{"glyphs":{"0":{"ha":890,"x_min":0,"x_max":0,"o":"m 83 600 l 83 372 b 444 -19 83 111 224 -19 b 807 372 667 -19 807 111 l 807 600 b 444 992 807 858 667 992 b 83 600 224 992 83 858 z m 196 607 b 444 890 196 785 282 890 b 694 607 607 890 694 786 l 694 367 b 444 82 694 188 611 82 b 196 367 279 82 196 186 z "},"1":{"ha":581,"x_min":0,"x_max":0,"o":"m 257 972 l 25 551 l 147 551 l 336 897 l 357 897 l 357 0 l 469 0 l 469 972 z "},"2":{"ha":838,"x_min":0,"x_max":0,"o":"m 79 663 l 79 644 l 190 644 l 190 664 b 429 890 190 815 288 890 b 657 692 563 890 657 814 l 657 686 b 447 458 657 557 574 497 l 371 435 b 74 101 188 378 74 308 l 74 0 l 761 0 l 761 101 l 188 101 l 188 125 b 399 335 188 253 258 290 l 474 358 b 769 682 650 414 769 493 l 769 694 b 429 992 769 872 629 992 b 79 663 229 992 79 874 z "},"3":{"ha":839,"x_min":0,"x_max":0,"o":"m 86 972 l 86 871 l 640 871 l 640 854 l 269 617 l 269 476 l 428 476 b 656 296 554 476 656 422 l 656 285 b 421 82 656 168 568 82 b 176 311 274 82 176 169 l 176 336 l 63 336 l 63 310 b 421 -19 63 101 213 -19 b 768 283 631 -19 768 100 l 768 299 b 467 565 768 476 631 565 l 397 565 l 397 582 l 760 815 l 760 972 z "},"4":{"ha":868,"x_min":0,"x_max":0,"o":"m 453 972 l 44 332 l 44 199 l 551 199 l 551 0 l 664 0 l 664 199 l 831 199 l 831 300 l 664 300 l 664 972 z m 532 904 l 551 904 l 551 300 l 157 300 l 157 317 z "},"5":{"ha":832,"x_min":0,"x_max":0,"o":"m 100 972 l 100 446 l 253 446 b 436 556 278 493 325 556 b 653 328 564 556 653 467 l 653 315 b 417 82 653 171 565 82 b 185 308 276 82 185 163 l 185 321 l 71 321 l 71 304 b 419 -19 71 111 207 -19 b 765 314 633 -19 765 117 l 765 329 b 461 651 765 531 629 651 b 232 535 326 651 260 589 l 213 535 l 213 871 l 739 871 l 739 972 z "},"6":{"ha":850,"x_min":0,"x_max":0,"o":"m 196 524 l 196 658 b 435 890 196 803 282 890 b 658 697 583 890 658 811 l 772 697 b 435 992 772 868 650 992 b 83 647 218 992 83 865 l 83 308 b 431 -19 83 106 229 -19 b 779 303 631 -19 779 106 l 779 319 b 461 636 779 514 636 636 b 215 524 322 636 249 579 z m 431 542 b 667 315 569 542 667 453 l 667 304 b 431 82 667 167 571 82 b 196 304 290 82 196 167 l 196 315 b 431 542 196 453 292 542 z "},"7":{"ha":783,"x_min":0,"x_max":0,"o":"m 44 972 l 44 871 l 622 871 l 622 856 l 251 196 b 211 35 218 135 211 100 l 211 0 l 324 0 l 324 32 b 353 144 324 81 331 104 l 740 839 l 740 972 z "},"8":{"ha":865,"x_min":0,"x_max":0,"o":"m 432 992 b 82 739 229 992 82 896 l 82 724 b 250 514 82 599 174 535 l 250 496 b 64 271 174 481 64 415 l 64 256 b 432 -19 64 89 207 -19 b 800 256 657 -19 800 89 l 800 271 b 615 496 800 415 692 481 l 615 514 b 782 724 692 535 782 599 l 782 739 b 432 992 782 896 636 992 z m 432 890 b 669 726 579 890 669 832 l 669 715 b 432 553 669 611 581 553 b 194 715 285 553 194 611 l 194 726 b 432 890 194 832 286 890 z m 432 451 b 688 272 590 451 688 389 l 688 261 b 432 82 688 144 589 82 b 178 261 276 82 178 144 l 178 272 b 432 451 178 389 274 451 z "},"9":{"ha":850,"x_min":0,"x_max":0,"o":"m 654 449 l 654 314 b 415 82 654 169 568 82 b 193 275 267 82 193 161 l 79 275 b 415 -19 79 104 201 -19 b 767 325 632 -19 767 107 l 767 664 b 419 992 767 867 622 992 b 71 669 219 992 71 867 l 71 653 b 390 336 71 458 214 336 b 636 449 529 336 601 393 z m 419 431 b 185 657 281 431 185 519 l 185 668 b 419 890 185 806 279 890 b 654 668 560 890 654 806 l 654 657 b 419 431 654 519 558 431 z "},"\r":{"ha":833,"x_min":0,"x_max":0,"o":""}," ":{"ha":357,"x_min":0,"x_max":0,"o":""},"A":{"ha":875,"x_min":0,"x_max":0,"o":"m 335 972 l 35 0 l 156 0 l 231 246 l 644 246 l 719 0 l 840 0 l 540 972 z m 261 351 l 428 901 l 447 901 l 614 351 z "},"B":{"ha":918,"x_min":0,"x_max":0,"o":"m 65 0 l 551 0 b 844 254 719 0 844 94 l 844 268 b 683 482 844 404 753 465 l 683 501 b 843 717 751 522 843 581 l 843 728 b 553 972 843 875 724 972 l 65 972 l 65 868 l 201 868 l 201 104 l 65 104 z m 318 543 l 318 867 l 543 867 b 726 711 656 867 726 806 l 726 697 b 543 543 726 604 656 543 z m 318 106 l 318 438 l 539 438 b 728 278 661 438 728 376 l 728 265 b 539 106 728 167 661 106 z "},"C":{"ha":892,"x_min":0,"x_max":0,"o":"m 83 375 b 463 -19 83 118 232 -19 b 819 339 692 -19 819 118 l 819 357 l 704 357 l 704 335 b 463 85 704 189 628 85 b 200 372 297 85 200 192 l 200 600 b 463 888 200 781 297 888 b 704 638 628 888 704 783 l 704 626 l 819 626 l 819 633 b 463 992 819 854 692 992 b 83 597 232 992 83 854 z "},"D":{"ha":921,"x_min":0,"x_max":0,"o":"m 65 972 l 65 868 l 201 868 l 201 104 l 65 104 l 65 0 l 444 0 b 846 396 700 0 846 126 l 846 576 b 444 972 846 844 700 972 z m 318 865 l 444 865 b 731 581 632 865 731 778 l 731 390 b 444 106 731 194 632 106 l 318 106 z "},"E":{"ha":782,"x_min":0,"x_max":0,"o":"m 111 972 l 111 0 l 717 0 l 717 106 l 228 106 l 228 436 l 671 436 l 671 542 l 228 542 l 228 867 l 710 867 l 710 972 z "},"F":{"ha":750,"x_min":0,"x_max":0,"o":"m 111 972 l 111 0 l 228 0 l 228 435 l 661 435 l 661 540 l 228 540 l 228 867 l 699 867 l 699 972 z "},"G":{"ha":917,"x_min":0,"x_max":0,"o":"m 83 375 b 450 -19 83 118 233 -19 b 690 106 600 -19 661 43 l 710 106 l 710 0 l 815 0 l 815 463 l 407 463 l 407 363 l 701 363 l 701 339 b 464 85 701 185 626 85 b 200 372 297 85 200 192 l 200 600 b 463 888 200 781 297 888 b 700 647 628 888 700 785 l 700 638 l 815 638 l 815 644 b 463 992 815 856 692 992 b 83 597 232 992 83 854 z "},"H":{"ha":911,"x_min":0,"x_max":0,"o":"m 111 972 l 111 0 l 228 0 l 228 435 l 683 435 l 683 0 l 800 0 l 800 972 l 683 972 l 683 540 l 228 540 l 228 972 z "},"I":{"ha":339,"x_min":0,"x_max":0,"o":"m 111 972 l 111 0 l 228 0 l 228 972 z "},"J":{"ha":825,"x_min":0,"x_max":0,"o":"m 371 972 l 371 867 l 542 867 l 542 292 b 364 88 542 169 493 88 b 172 292 236 88 172 169 l 172 367 l 57 367 l 57 292 b 365 -19 57 90 175 -19 b 658 292 556 -19 658 89 l 658 867 l 764 867 l 764 972 z "},"K":{"ha":847,"x_min":0,"x_max":0,"o":"m 111 0 l 228 0 l 228 432 l 247 432 l 671 0 l 831 0 l 340 492 l 814 972 l 658 972 l 247 549 l 228 549 l 228 972 l 111 972 z "},"L":{"ha":758,"x_min":0,"x_max":0,"o":"m 111 972 l 111 0 l 719 0 l 719 106 l 228 106 l 228 972 z "},"M":{"ha":1201,"x_min":0,"x_max":0,"o":"m 111 972 l 111 0 l 224 0 l 224 896 l 243 896 l 500 0 l 701 0 l 958 896 l 978 896 l 978 0 l 1090 0 l 1090 972 l 868 972 l 610 74 l 592 74 l 333 972 z "},"N":{"ha":922,"x_min":0,"x_max":0,"o":"m 111 972 l 111 0 l 226 0 l 226 900 l 246 900 l 583 0 l 810 0 l 810 972 l 694 972 l 694 74 l 676 74 l 338 972 z "},"O":{"ha":929,"x_min":0,"x_max":0,"o":"m 83 597 l 83 375 b 464 -19 83 118 232 -19 b 846 375 697 -19 846 118 l 846 597 b 464 992 846 854 697 992 b 83 597 232 992 83 854 z m 200 601 b 464 888 200 781 297 888 b 729 601 632 888 729 781 l 729 371 b 464 85 729 192 632 85 b 200 371 297 85 200 192 z "},"P":{"ha":835,"x_min":0,"x_max":0,"o":"m 111 972 l 111 0 l 228 0 l 228 392 l 483 392 b 789 672 654 392 789 496 l 789 690 b 483 972 789 868 657 972 z m 228 867 l 471 867 b 672 689 597 867 672 801 l 672 675 b 471 497 672 561 594 497 l 228 497 z "},"Q":{"ha":929,"x_min":0,"x_max":0,"o":"m 83 597 l 83 375 b 407 -17 83 139 208 4 l 407 -108 b 521 -225 407 -181 451 -225 l 651 -225 l 651 -129 l 560 -129 b 521 -87 535 -129 521 -115 l 521 -17 b 846 375 721 4 846 139 l 846 597 b 464 992 846 854 697 992 b 83 597 232 992 83 854 z m 200 601 b 464 888 200 781 297 888 b 729 601 632 888 729 781 l 729 371 b 464 85 729 192 632 85 b 200 371 297 85 200 192 z "},"R":{"ha":876,"x_min":0,"x_max":0,"o":"m 111 972 l 111 0 l 228 0 l 228 399 l 564 399 b 656 313 626 399 656 368 l 656 0 l 771 0 l 771 326 b 656 453 771 410 722 450 l 656 472 b 810 699 739 499 810 571 l 810 714 b 504 972 810 875 683 972 z m 228 867 l 493 867 b 693 690 622 867 693 803 l 693 681 b 493 504 693 569 619 504 l 228 504 z "},"S":{"ha":851,"x_min":0,"x_max":0,"o":"m 418 992 b 90 726 222 992 90 890 b 379 454 90 563 207 496 l 451 436 b 668 263 582 406 668 369 b 435 82 668 158 586 82 b 182 321 286 82 182 158 l 182 350 l 67 350 l 67 321 b 435 -19 67 93 222 -19 b 783 265 646 -19 783 93 b 483 539 783 436 651 500 l 411 557 b 206 728 282 589 206 624 b 418 890 206 832 289 890 b 649 692 551 890 649 832 l 649 633 l 764 633 l 764 692 b 418 992 764 890 614 992 z "},"T":{"ha":817,"x_min":0,"x_max":0,"o":"m 38 972 l 38 867 l 350 867 l 350 0 l 467 0 l 467 867 l 779 867 l 779 972 z "},"U":{"ha":925,"x_min":0,"x_max":0,"o":"m 104 972 l 104 325 b 463 -19 104 99 246 -19 b 822 325 681 -19 822 99 l 822 972 l 706 972 l 706 324 b 463 85 706 165 617 85 b 221 324 308 85 221 165 l 221 972 z "},"V":{"ha":860,"x_min":0,"x_max":0,"o":"m 35 972 l 328 0 l 532 0 l 825 972 l 704 972 l 439 71 l 421 71 l 156 972 z "},"W":{"ha":1215,"x_min":0,"x_max":0,"o":"m 51 972 l 210 0 l 419 0 l 599 903 l 618 903 l 797 0 l 1006 0 l 1164 972 l 1047 972 l 910 75 l 890 75 l 713 972 l 504 972 l 325 75 l 306 75 l 168 972 z "},"X":{"ha":886,"x_min":0,"x_max":0,"o":"m 49 972 l 358 490 l 44 0 l 181 0 l 433 410 l 451 410 l 706 0 l 842 0 l 528 490 l 836 972 l 700 972 l 451 572 l 433 572 l 186 972 z "},"Y":{"ha":847,"x_min":0,"x_max":0,"o":"m 19 972 l 365 371 l 365 0 l 482 0 l 482 371 l 828 972 l 694 972 l 433 507 l 414 507 l 153 972 z "},"Z":{"ha":801,"x_min":0,"x_max":0,"o":"m 86 972 l 86 868 l 611 868 l 611 851 l 69 154 l 69 0 l 738 0 l 738 104 l 185 104 l 185 121 l 726 818 l 726 972 z "},"a":{"ha":799,"x_min":0,"x_max":0,"o":"m 93 492 l 196 458 b 386 604 217 546 276 604 b 554 449 499 604 554 544 l 554 399 l 325 399 b 69 193 179 399 69 331 b 324 -19 69 57 179 -19 b 550 101 464 -19 521 47 l 565 103 b 668 0 565 40 606 0 l 764 0 l 764 93 l 701 93 b 663 135 676 93 663 107 l 663 442 b 388 699 663 604 560 699 b 93 492 217 699 125 606 z m 179 196 b 329 310 179 272 242 310 l 554 310 l 554 294 b 336 75 554 156 467 75 b 179 196 242 75 179 119 z "},"b":{"ha":894,"x_min":0,"x_max":0,"o":"m 115 972 l 115 0 l 222 0 l 222 113 l 242 113 b 492 -19 278 44 350 -19 b 813 331 668 -19 813 113 l 813 349 b 492 699 813 565 669 699 b 244 572 350 699 278 635 l 225 572 l 225 972 z m 463 601 b 700 346 603 601 700 507 l 700 333 b 463 78 700 172 601 78 b 224 333 322 78 224 172 l 224 346 b 463 601 224 507 322 601 z "},"c":{"ha":831,"x_min":0,"x_max":0,"o":"m 82 347 l 82 332 b 428 -19 82 114 229 -19 b 758 239 624 -19 729 103 l 650 263 b 429 79 633 158 564 79 b 192 333 294 79 192 175 l 192 346 b 429 600 192 504 294 600 b 646 417 564 600 632 517 l 753 439 b 428 699 731 576 624 699 b 82 347 229 699 82 565 z "},"d":{"ha":894,"x_min":0,"x_max":0,"o":"m 779 972 l 669 972 l 669 572 l 650 572 b 403 699 615 635 544 699 b 82 349 225 699 82 565 l 82 331 b 403 -19 82 113 226 -19 b 653 113 544 -19 615 44 l 672 113 l 672 0 l 779 0 z m 432 601 b 669 346 572 601 669 507 l 669 333 b 432 78 669 172 571 78 b 193 333 292 78 193 172 l 193 346 b 432 601 193 507 292 601 z "},"e":{"ha":822,"x_min":0,"x_max":0,"o":"m 82 347 l 82 331 b 426 -19 82 121 219 -19 b 731 168 608 -19 689 82 l 636 214 b 429 78 603 139 546 78 b 193 311 294 78 197 165 l 746 311 l 746 361 b 419 699 746 568 613 699 b 82 347 221 699 82 557 z m 194 401 b 419 601 211 528 296 601 b 635 401 542 601 626 528 z "},"f":{"ha":614,"x_min":0,"x_max":0,"o":"m 40 679 l 40 583 l 249 583 l 249 0 l 358 0 l 358 583 l 572 583 l 572 679 l 358 679 l 358 836 b 400 878 358 864 371 878 l 540 878 l 540 972 l 369 972 b 249 853 292 972 249 926 l 249 679 z "},"g":{"ha":894,"x_min":0,"x_max":0,"o":"m 196 -181 l 196 -278 l 657 -278 b 778 -158 735 -278 778 -232 l 778 0 l 779 679 l 672 679 l 672 567 l 653 567 b 403 699 617 633 546 699 b 82 356 225 699 82 568 l 82 336 b 403 -7 82 124 225 -7 b 650 119 546 -7 617 58 l 669 119 l 668 0 l 668 -139 b 628 -181 668 -167 656 -181 z m 432 601 b 669 351 572 601 669 508 l 669 340 b 432 90 669 183 571 90 b 193 340 292 90 193 183 l 193 351 b 432 601 193 508 292 601 z "},"h":{"ha":851,"x_min":0,"x_max":0,"o":"m 115 972 l 115 0 l 225 0 l 225 342 b 447 596 225 510 317 596 b 635 403 561 596 635 538 l 635 0 l 744 0 l 744 411 b 475 692 744 593 625 692 b 244 571 338 692 274 631 l 225 571 l 225 972 z "},"i":{"ha":340,"x_min":0,"x_max":0,"o":"m 86 868 b 169 785 86 819 122 785 b 254 868 218 785 254 819 b 169 953 254 918 218 953 b 86 868 122 953 86 918 z m 225 679 l 115 679 l 115 0 l 225 0 z "},"j":{"ha":343,"x_min":0,"x_max":0,"o":"m 89 868 b 172 785 89 819 125 785 b 257 868 221 785 257 819 b 172 953 257 918 221 953 b 89 868 125 953 89 918 z m 228 679 l 118 679 l 118 -139 b 76 -181 118 -167 106 -181 l -18 -181 l -18 -278 l 107 -278 b 228 -158 185 -278 228 -232 z "},"k":{"ha":747,"x_min":0,"x_max":0,"o":"m 115 0 l 225 0 l 225 296 l 244 296 l 568 0 l 719 0 l 332 349 l 708 679 l 556 679 l 244 400 l 225 400 l 225 972 l 115 972 z "},"l":{"ha":340,"x_min":0,"x_max":0,"o":"m 225 972 l 115 972 l 115 0 l 225 0 z "},"m":{"ha":1194,"x_min":0,"x_max":0,"o":"m 115 679 l 115 0 l 225 0 l 225 408 b 396 597 225 531 296 597 b 546 450 490 597 546 540 l 546 0 l 656 0 l 656 408 b 826 597 656 531 726 597 b 976 450 921 597 976 540 l 976 0 l 1086 0 l 1086 460 b 856 692 1086 604 990 692 b 650 572 740 692 681 639 l 631 572 b 431 692 600 639 536 692 b 242 594 324 692 268 643 l 222 594 l 222 679 z "},"n":{"ha":851,"x_min":0,"x_max":0,"o":"m 115 679 l 115 0 l 225 0 l 225 342 b 447 596 225 510 317 596 b 635 403 561 596 635 538 l 635 0 l 744 0 l 744 411 b 475 692 744 593 625 692 b 242 564 336 692 271 629 l 222 564 l 222 679 z "},"o":{"ha":858,"x_min":0,"x_max":0,"o":"m 82 349 l 82 331 b 429 -19 82 118 224 -19 b 776 331 635 -19 776 118 l 776 349 b 429 699 776 561 635 699 b 82 349 224 699 82 561 z m 192 346 b 429 600 192 501 285 600 b 667 346 572 600 667 501 l 667 333 b 429 79 667 178 572 79 b 192 333 286 79 192 178 z "},"p":{"ha":894,"x_min":0,"x_max":0,"o":"m 115 -278 l 225 -278 l 225 107 l 244 107 b 492 -19 278 44 350 -19 b 813 331 669 -19 813 114 l 813 349 b 492 699 813 567 668 699 b 242 567 350 699 278 635 l 222 567 l 222 679 l 115 679 z m 463 78 b 224 333 322 78 224 172 l 224 346 b 463 601 224 507 322 601 b 700 346 601 601 700 507 l 700 333 b 463 78 700 172 603 78 z "},"q":{"ha":894,"x_min":0,"x_max":0,"o":"m 779 -278 l 779 679 l 672 679 l 672 567 l 653 567 b 403 699 615 635 544 699 b 82 349 226 699 82 567 l 82 331 b 403 -19 82 114 225 -19 b 650 107 544 -19 615 44 l 669 107 l 669 -278 z m 432 78 b 193 333 292 78 193 172 l 193 346 b 432 601 193 507 292 601 b 669 346 571 601 669 507 l 669 333 b 432 78 669 172 572 78 z "},"r":{"ha":524,"x_min":0,"x_max":0,"o":"m 222 679 l 115 679 l 115 0 l 225 0 l 225 414 b 389 582 225 528 290 582 l 476 582 l 476 682 l 396 682 b 242 596 314 682 265 656 l 222 596 z "},"s":{"ha":732,"x_min":0,"x_max":0,"o":"m 101 504 b 339 304 101 382 206 328 l 396 294 b 554 185 494 276 554 254 b 389 72 554 115 490 72 b 175 247 286 72 194 114 l 71 224 b 389 -19 94 56 219 -19 b 663 189 556 -19 663 56 b 407 390 663 321 550 365 l 350 400 b 210 506 264 415 210 440 b 360 607 210 571 267 607 b 536 474 451 607 519 571 l 639 500 b 360 699 611 626 513 699 b 101 504 204 699 101 626 z "},"t":{"ha":639,"x_min":0,"x_max":0,"o":"m 40 583 l 244 583 l 244 119 b 365 0 244 46 288 0 l 546 0 l 546 96 l 394 96 b 354 138 365 96 354 110 l 354 583 l 576 583 l 576 679 l 354 679 l 354 921 l 244 921 l 244 679 l 40 679 z "},"u":{"ha":850,"x_min":0,"x_max":0,"o":"m 736 0 l 736 679 l 626 679 l 626 338 b 404 83 626 169 533 83 b 217 276 289 83 217 142 l 217 679 l 107 679 l 107 268 b 375 -12 107 86 225 -12 b 610 115 514 -12 579 50 l 629 115 l 629 0 z "},"v":{"ha":749,"x_min":0,"x_max":0,"o":"m 44 679 l 288 0 l 463 0 l 706 679 l 589 679 l 385 82 l 365 82 l 161 679 z "},"w":{"ha":1113,"x_min":0,"x_max":0,"o":"m 74 679 l 210 0 l 397 0 l 547 606 l 565 606 l 715 0 l 903 0 l 1039 679 l 928 679 l 815 74 l 796 74 l 647 679 l 465 679 l 317 74 l 297 74 l 185 679 z "},"x":{"ha":824,"x_min":0,"x_max":0,"o":"m 68 679 l 332 344 l 60 0 l 194 0 l 403 271 l 422 271 l 631 0 l 764 0 l 492 344 l 757 679 l 624 679 l 422 417 l 403 417 l 200 679 z "},"y":{"ha":850,"x_min":0,"x_max":0,"o":"m 197 -181 l 197 -278 l 614 -278 b 736 -158 692 -278 736 -232 l 736 679 l 626 679 l 626 338 b 404 83 626 168 533 83 b 217 275 289 83 217 140 l 217 679 l 107 679 l 107 267 b 375 -12 107 85 225 -12 b 607 108 514 -12 578 49 l 626 108 l 626 -139 b 586 -181 626 -167 615 -181 z "},"z":{"ha":724,"x_min":0,"x_max":0,"o":"m 99 679 l 99 583 l 517 583 l 517 568 l 85 142 l 85 0 l 643 0 l 643 96 l 199 96 l 199 111 l 632 538 l 632 679 z "},"[":{"ha":465,"x_min":0,"x_max":0,"o":"m 115 925 l 115 -217 b 224 -326 115 -279 160 -326 l 439 -326 l 439 -231 l 258 -231 b 221 -189 233 -231 221 -217 l 221 897 b 258 939 221 925 233 939 l 439 939 l 439 1035 l 224 1035 b 115 925 160 1035 115 988 z "},"]":{"ha":465,"x_min":0,"x_max":0,"o":"m 351 925 b 243 1035 351 988 306 1035 l 26 1035 l 26 939 l 207 939 b 244 897 232 939 244 925 l 244 -189 b 207 -231 244 -217 232 -231 l 26 -231 l 26 -326 l 243 -326 b 351 -217 306 -326 351 -279 z "},"{":{"ha":600,"x_min":0,"x_max":0,"o":"m 54 407 l 54 301 l 174 301 b 249 232 225 301 249 278 l 249 -217 b 357 -326 249 -279 294 -326 l 574 -326 l 574 -231 l 393 -231 b 356 -189 368 -231 356 -217 l 356 233 b 253 344 356 300 318 344 l 243 344 l 243 364 l 253 364 b 356 475 318 364 356 408 l 356 897 b 393 939 356 925 368 939 l 574 939 l 574 1035 l 357 1035 b 249 925 294 1035 249 988 l 249 476 b 174 407 249 431 225 407 z "},"}":{"ha":600,"x_min":0,"x_max":0,"o":"m 546 407 l 425 407 b 351 476 375 407 351 431 l 351 925 b 243 1035 351 988 306 1035 l 26 1035 l 26 939 l 207 939 b 244 897 232 939 244 925 l 244 475 b 347 364 244 408 282 364 l 357 364 l 357 344 l 347 344 b 244 233 282 344 244 300 l 244 -189 b 207 -231 244 -217 232 -231 l 26 -231 l 26 -326 l 243 -326 b 351 -217 306 -326 351 -279 l 351 232 b 425 301 351 278 375 301 l 546 301 z "},"(":{"ha":526,"x_min":0,"x_max":0,"o":"m 83 129 b 513 -326 83 -192 244 -326 l 513 -231 b 190 136 290 -228 190 -111 l 190 572 b 513 939 190 819 290 936 l 513 1035 b 83 579 244 1035 83 900 z "},")":{"ha":524,"x_min":0,"x_max":0,"o":"m 440 129 l 440 579 b 10 1035 440 900 279 1035 l 10 939 b 333 572 232 936 333 819 l 333 136 b 10 -231 333 -111 232 -228 l 10 -326 b 440 129 279 -326 440 -192 z "},"/":{"ha":514,"x_min":0,"x_max":0,"o":"m 408 972 l 0 -278 l 110 -278 l 518 972 z "},"|":{"ha":333,"x_min":0,"x_max":0,"o":"m 221 1119 l 111 1119 l 111 -342 l 221 -342 z "},"¦":{"ha":333,"x_min":0,"x_max":0,"o":"m 221 508 l 221 1119 l 111 1119 l 111 508 z m 111 269 l 111 -342 l 221 -342 l 221 269 z "},"\\":{"ha":514,"x_min":0,"x_max":0,"o":"m 107 972 l -4 972 l 404 -278 l 515 -278 z "},"'":{"ha":349,"x_min":0,"x_max":0,"o":"m 81 901 b 175 813 81 850 121 813 l 194 813 l 194 768 b 144 718 194 733 179 718 l 104 718 l 104 650 l 149 650 b 268 769 229 650 268 689 l 268 897 b 175 992 268 953 228 992 b 81 901 121 992 81 954 z "},"\"":{"ha":590,"x_min":0,"x_max":0,"o":"m 81 901 b 175 813 81 850 121 813 l 194 813 l 194 768 b 144 718 194 733 179 718 l 104 718 l 104 650 l 149 650 b 268 769 229 650 268 689 l 268 897 b 175 992 268 953 228 992 b 81 901 121 992 81 954 z m 321 901 b 415 813 321 850 361 813 l 435 813 l 435 768 b 385 718 435 733 419 718 l 346 718 l 346 650 l 390 650 b 508 769 469 650 508 689 l 508 897 b 415 992 508 953 468 992 b 321 901 361 992 321 954 z "},"‘":{"ha":349,"x_min":0,"x_max":0,"o":"m 268 740 b 175 828 268 792 228 828 l 156 828 l 156 872 b 206 922 156 907 171 922 l 244 922 l 244 992 l 200 992 b 81 872 119 992 81 953 l 81 743 b 175 650 81 689 121 650 b 268 740 228 650 268 688 z "},"’":{"ha":349,"x_min":0,"x_max":0,"o":"m 81 901 b 175 813 81 850 121 813 l 194 813 l 194 768 b 144 718 194 733 179 718 l 104 718 l 104 650 l 149 650 b 268 769 229 650 268 689 l 268 897 b 175 992 268 953 228 992 b 81 901 121 992 81 954 z "},"“":{"ha":590,"x_min":0,"x_max":0,"o":"m 508 740 b 415 828 508 792 468 828 l 396 828 l 396 872 b 446 922 396 907 411 922 l 485 922 l 485 992 l 440 992 b 321 872 360 992 321 953 l 321 743 b 415 650 321 689 361 650 b 508 740 468 650 508 688 z m 268 740 b 175 828 268 792 228 828 l 156 828 l 156 872 b 206 922 156 907 171 922 l 244 922 l 244 992 l 200 992 b 81 872 119 992 81 953 l 81 743 b 175 650 81 689 121 650 b 268 740 228 650 268 688 z "},"”":{"ha":590,"x_min":0,"x_max":0,"o":"m 81 901 b 175 813 81 850 121 813 l 194 813 l 194 768 b 144 718 194 733 179 718 l 104 718 l 104 650 l 149 650 b 268 769 229 650 268 689 l 268 897 b 175 992 268 953 228 992 b 81 901 121 992 81 954 z m 321 901 b 415 813 321 850 361 813 l 435 813 l 435 768 b 385 718 435 733 419 718 l 346 718 l 346 650 l 390 650 b 508 769 469 650 508 689 l 508 897 b 415 992 508 953 468 992 b 321 901 361 992 321 954 z "},"‚":{"ha":349,"x_min":0,"x_max":0,"o":"m 81 78 b 175 -10 81 26 121 -10 l 194 -10 l 194 -54 b 144 -104 194 -89 179 -104 l 104 -104 l 104 -174 l 149 -174 b 268 -54 229 -174 268 -135 l 268 75 b 175 168 268 129 228 168 b 81 78 121 168 81 131 z "},"„":{"ha":590,"x_min":0,"x_max":0,"o":"m 81 78 b 175 -10 81 26 121 -10 l 194 -10 l 194 -54 b 144 -104 194 -89 179 -104 l 104 -104 l 104 -174 l 149 -174 b 268 -54 229 -174 268 -135 l 268 75 b 175 168 268 129 228 168 b 81 78 121 168 81 131 z m 321 78 b 415 -10 321 26 361 -10 l 435 -10 l 435 -54 b 385 -104 435 -89 419 -104 l 346 -104 l 346 -174 l 390 -174 b 508 -54 469 -174 508 -135 l 508 75 b 415 168 508 129 468 168 b 321 78 361 168 321 131 z "},".":{"ha":351,"x_min":0,"x_max":0,"o":"m 81 75 b 175 -19 81 19 121 -19 b 269 75 229 -19 269 19 b 175 169 269 131 229 169 b 81 75 121 169 81 131 z "},",":{"ha":349,"x_min":0,"x_max":0,"o":"m 81 78 b 175 -10 81 26 121 -10 l 194 -10 l 194 -54 b 144 -104 194 -89 179 -104 l 104 -104 l 104 -174 l 149 -174 b 268 -54 229 -174 268 -135 l 268 75 b 175 168 268 129 228 168 b 81 78 121 168 81 131 z "},":":{"ha":351,"x_min":0,"x_max":0,"o":"m 81 604 b 175 510 81 549 121 510 b 269 604 229 510 269 549 b 175 699 269 660 229 699 b 81 604 121 699 81 660 z m 81 75 b 175 -19 81 19 121 -19 b 269 75 229 -19 269 19 b 175 169 269 131 229 169 b 81 75 121 169 81 131 z "},";":{"ha":351,"x_min":0,"x_max":0,"o":"m 81 604 b 175 510 81 549 121 510 b 269 604 229 510 269 549 b 175 699 269 660 229 699 b 81 604 121 699 81 660 z m 82 78 b 175 -10 82 26 122 -10 l 194 -10 l 194 -54 b 144 -104 194 -89 179 -104 l 106 -104 l 106 -174 l 150 -174 b 269 -54 231 -174 269 -135 l 269 75 b 175 168 269 129 229 168 b 82 78 122 168 82 131 z "},"…":{"ha":943,"x_min":0,"x_max":0,"o":"m 81 75 b 175 -19 81 19 121 -19 b 269 75 229 -19 269 19 b 175 169 269 131 229 169 b 81 75 121 169 81 131 z m 376 75 b 471 -19 376 19 417 -19 b 565 75 525 -19 565 19 b 471 169 565 131 525 169 b 376 75 417 169 376 131 z m 672 75 b 767 -19 672 19 713 -19 b 861 75 822 -19 861 19 b 767 169 861 131 822 169 b 672 75 713 169 672 131 z "},"!":{"ha":351,"x_min":0,"x_max":0,"o":"m 119 972 l 119 260 l 232 260 l 232 972 z m 81 75 b 175 -19 81 19 121 -19 b 269 75 229 -19 269 19 b 175 169 269 131 229 169 b 81 75 121 169 81 131 z "},"¡":{"ha":351,"x_min":0,"x_max":0,"o":"m 269 604 b 175 699 269 660 229 699 b 81 604 121 699 81 660 b 175 510 81 549 121 510 b 269 604 229 510 269 549 z m 232 -278 l 232 419 l 119 419 l 119 -278 z "},"?":{"ha":806,"x_min":0,"x_max":0,"o":"m 60 696 l 60 647 l 172 647 l 172 696 b 407 893 172 829 281 893 b 628 717 531 893 628 829 b 475 525 628 614 571 565 l 436 508 b 329 344 356 474 329 429 l 329 260 l 444 260 l 444 343 b 493 424 444 388 457 408 l 531 440 b 742 717 643 488 742 560 b 407 992 742 876 604 992 b 60 696 207 992 60 885 z m 294 75 b 389 -19 294 19 335 -19 b 483 75 443 -19 483 19 b 389 169 483 131 443 169 b 294 75 335 169 294 131 z "},"¿":{"ha":806,"x_min":0,"x_max":0,"o":"m 511 604 b 417 699 511 660 471 699 b 322 604 363 699 322 660 b 417 510 322 549 363 510 b 511 604 471 510 511 549 z m 747 -4 l 747 46 l 633 46 l 633 -4 b 399 -201 633 -136 525 -201 b 178 -24 275 -201 178 -137 b 331 167 178 79 236 125 l 369 185 b 476 349 450 221 476 263 l 476 419 l 361 419 l 361 350 b 314 269 361 304 349 285 l 275 253 b 64 -24 164 203 64 133 b 399 -299 64 -183 201 -299 b 747 -4 599 -299 747 -193 z "},"‹":{"ha":642,"x_min":0,"x_max":0,"o":"m 72 408 l 72 278 l 536 31 l 544 31 l 544 147 l 181 335 l 181 351 l 544 540 l 544 657 l 536 657 z "},"›":{"ha":642,"x_min":0,"x_max":0,"o":"m 569 408 l 104 657 l 96 657 l 96 540 l 461 351 l 461 335 l 96 147 l 96 31 l 104 31 l 569 278 z "},"-":{"ha":632,"x_min":0,"x_max":0,"o":"m 110 307 l 521 307 l 521 408 l 110 408 z "},"–":{"ha":843,"x_min":0,"x_max":0,"o":"m 110 307 l 732 307 l 732 408 l 110 408 z "},"—":{"ha":1265,"x_min":0,"x_max":0,"o":"m 110 307 l 1154 307 l 1154 408 l 110 408 z "},"·":{"ha":351,"x_min":0,"x_max":0,"o":"m 81 357 b 175 263 81 301 121 263 b 269 357 229 263 269 301 b 175 451 269 413 229 451 b 81 357 121 451 81 413 z "},"•":{"ha":500,"x_min":0,"x_max":0,"o":"m 83 357 b 250 193 83 264 157 193 b 417 357 343 193 417 261 b 250 522 417 451 344 522 b 83 357 156 522 83 451 z "},"_":{"ha":861,"x_min":0,"x_max":0,"o":"m 107 -169 l 754 -169 l 754 -68 l 107 -68 z "},"@":{"ha":1425,"x_min":0,"x_max":0,"o":"m 107 336 b 739 -278 107 -54 367 -278 l 1017 -278 l 1017 -179 l 744 -179 b 217 339 429 -179 217 -1 l 217 361 b 718 879 217 701 414 879 l 742 879 b 1214 396 1036 879 1214 703 l 1214 357 b 1068 96 1214 171 1172 96 l 1051 96 b 1017 133 1026 96 1017 106 l 1017 672 l 910 672 l 910 575 l 890 575 b 686 689 863 628 811 689 b 404 349 524 689 404 544 l 404 324 b 690 -17 404 129 525 -17 b 896 108 818 -17 872 50 l 915 108 l 915 94 b 1031 0 915 36 954 0 l 1076 0 b 1324 351 1235 0 1324 115 l 1324 399 b 743 978 1324 758 1088 978 l 714 978 b 107 365 351 978 107 756 z m 513 328 l 513 344 b 711 592 513 496 594 592 b 910 343 828 592 910 499 l 910 329 b 711 82 910 174 828 82 b 513 328 594 82 513 178 z "},"&":{"ha":839,"x_min":0,"x_max":0,"o":"m 528 972 l 353 972 b 69 714 197 972 69 882 b 228 500 69 593 142 526 l 228 485 b 61 257 142 454 61 379 b 347 0 61 93 186 0 l 668 0 l 668 443 l 804 443 l 804 539 l 668 539 l 668 688 l 558 688 l 558 539 l 367 539 b 182 707 267 539 182 589 b 367 878 182 822 264 878 l 528 878 z m 361 443 l 558 443 l 558 96 l 361 96 b 172 269 258 96 172 150 b 361 443 172 388 256 443 z "},"*":{"ha":722,"x_min":0,"x_max":0,"o":"m 324 381 l 399 381 l 399 499 l 386 594 b 401 601 392 596 396 599 l 461 524 l 544 440 l 597 493 l 514 576 l 436 636 b 443 651 439 640 442 646 l 539 639 l 657 639 l 657 714 l 539 714 l 443 701 b 436 717 442 707 439 711 l 514 775 l 597 860 l 544 911 l 461 828 l 401 751 b 386 758 397 754 392 756 l 399 854 l 399 972 l 324 972 l 324 854 l 336 758 b 321 751 331 756 326 754 l 261 828 l 178 911 l 125 860 l 208 775 l 286 717 b 279 701 283 711 281 707 l 183 714 l 65 714 l 65 639 l 183 639 l 279 651 b 286 636 282 646 283 640 l 208 576 l 125 493 l 178 440 l 261 524 l 321 601 b 336 594 326 599 331 596 l 324 499 z "},"À":{"ha":875,"x_min":0,"x_max":0,"o":"m 422 1225 l 286 1225 l 408 1057 l 515 1057 z m 335 972 l 35 0 l 156 0 l 231 246 l 644 246 l 719 0 l 840 0 l 540 972 z m 261 351 l 428 901 l 447 901 l 614 351 z "},"Á":{"ha":875,"x_min":0,"x_max":0,"o":"m 453 1221 l 360 1053 l 465 1053 l 589 1221 z m 335 972 l 35 0 l 156 0 l 231 246 l 644 246 l 719 0 l 840 0 l 540 972 z m 261 351 l 428 901 l 447 901 l 614 351 z "},"Â":{"ha":875,"x_min":0,"x_max":0,"o":"m 546 1053 l 679 1053 l 503 1221 l 371 1221 l 196 1053 l 329 1053 l 428 1154 l 447 1154 z m 335 972 l 35 0 l 156 0 l 231 246 l 644 246 l 719 0 l 840 0 l 540 972 z m 261 351 l 428 901 l 447 901 l 614 351 z "},"Ã":{"ha":875,"x_min":0,"x_max":0,"o":"m 207 1097 l 272 1053 l 307 1108 b 356 1142 319 1126 333 1142 b 415 1104 378 1142 392 1129 b 522 1049 451 1067 479 1049 b 624 1110 571 1049 601 1075 l 668 1179 l 603 1224 l 567 1167 b 518 1133 554 1149 540 1133 b 458 1172 497 1133 483 1147 b 353 1228 422 1208 396 1228 b 251 1167 304 1228 274 1201 z m 335 972 l 35 0 l 156 0 l 231 246 l 644 246 l 719 0 l 840 0 l 540 972 z m 261 351 l 428 901 l 447 901 l 614 351 z "},"Ä":{"ha":875,"x_min":0,"x_max":0,"o":"m 217 1138 b 300 1056 217 1089 251 1056 b 383 1138 349 1056 383 1089 b 300 1221 383 1188 349 1221 b 217 1138 251 1221 217 1188 z m 492 1138 b 575 1056 492 1089 526 1056 b 658 1138 622 1056 658 1089 b 575 1221 658 1188 622 1221 b 492 1138 526 1221 492 1188 z m 335 972 l 35 0 l 156 0 l 231 246 l 644 246 l 719 0 l 840 0 l 540 972 z m 261 351 l 428 901 l 447 901 l 614 351 z "},"Ā":{"ha":875,"x_min":0,"x_max":0,"o":"m 651 1161 l 224 1161 l 224 1071 l 651 1071 z m 335 972 l 35 0 l 156 0 l 231 246 l 644 246 l 719 0 l 840 0 l 540 972 z m 261 351 l 428 901 l 447 901 l 614 351 z "},"Ă":{"ha":875,"x_min":0,"x_max":0,"o":"m 549 1224 l 549 1219 b 438 1122 549 1161 514 1122 b 326 1219 363 1122 326 1161 l 326 1224 l 231 1224 l 231 1219 b 438 1044 231 1115 306 1044 b 646 1219 568 1044 646 1115 l 646 1224 z m 335 972 l 35 0 l 156 0 l 231 246 l 644 246 l 719 0 l 840 0 l 540 972 z m 261 351 l 428 901 l 447 901 l 614 351 z "},"Å":{"ha":875,"x_min":0,"x_max":0,"o":"m 301 1172 b 438 1039 301 1093 361 1039 b 575 1172 514 1039 575 1092 b 438 1304 575 1251 515 1304 b 301 1172 360 1304 301 1250 z m 378 1172 b 438 1232 378 1207 401 1232 b 497 1172 474 1232 497 1207 b 438 1113 497 1138 474 1113 b 378 1172 401 1113 378 1138 z m 335 972 l 35 0 l 156 0 l 231 246 l 644 246 l 719 0 l 840 0 l 540 972 z m 261 351 l 428 901 l 447 901 l 614 351 z "},"Ą":{"ha":875,"x_min":0,"x_max":0,"o":"m 335 972 l 35 0 l 156 0 l 231 246 l 644 246 l 719 0 l 739 0 l 726 -54 b 714 -137 719 -83 714 -111 b 813 -228 714 -196 751 -228 l 892 -228 l 892 -143 l 833 -143 b 801 -115 813 -143 801 -133 b 807 -78 801 -103 804 -94 l 822 0 l 840 0 l 540 972 z m 261 351 l 428 901 l 447 901 l 614 351 z "},"Æ":{"ha":1154,"x_min":0,"x_max":0,"o":"m 539 246 l 539 0 l 1088 0 l 1088 106 l 656 106 l 656 436 l 1043 436 l 1043 542 l 656 542 l 656 867 l 1082 867 l 1082 972 l 431 972 l 35 0 l 158 0 l 257 246 z m 539 351 l 297 351 l 521 907 l 539 907 z "},"Ç":{"ha":892,"x_min":0,"x_max":0,"o":"m 83 375 b 419 -18 83 135 213 -1 l 410 -117 l 461 -117 b 529 -161 504 -117 529 -132 b 461 -208 529 -194 500 -208 b 351 -175 418 -208 382 -193 l 318 -244 b 464 -285 356 -268 407 -285 b 617 -171 546 -285 617 -249 b 496 -62 617 -101 568 -62 l 500 -18 b 819 339 706 -4 819 129 l 819 357 l 704 357 l 704 335 b 463 85 704 189 628 85 b 200 372 297 85 200 192 l 200 600 b 463 888 200 781 297 888 b 704 638 628 888 704 783 l 704 626 l 819 626 l 819 633 b 463 992 819 854 692 992 b 83 597 232 992 83 854 z "},"Ć":{"ha":892,"x_min":0,"x_max":0,"o":"m 479 1221 l 385 1053 l 492 1053 l 614 1221 z m 83 375 b 463 -19 83 118 232 -19 b 819 339 692 -19 819 118 l 819 357 l 704 357 l 704 335 b 463 85 704 189 628 85 b 200 372 297 85 200 192 l 200 600 b 463 888 200 781 297 888 b 704 638 628 888 704 783 l 704 626 l 819 626 l 819 633 b 463 992 819 854 692 992 b 83 597 232 992 83 854 z "},"Ĉ":{"ha":892,"x_min":0,"x_max":0,"o":"m 571 1053 l 706 1053 l 529 1221 l 397 1221 l 221 1053 l 356 1053 l 454 1154 l 472 1154 z m 83 375 b 463 -19 83 118 232 -19 b 819 339 692 -19 819 118 l 819 357 l 704 357 l 704 335 b 463 85 704 189 628 85 b 200 372 297 85 200 192 l 200 600 b 463 888 200 781 297 888 b 704 638 628 888 704 783 l 704 626 l 819 626 l 819 633 b 463 992 819 854 692 992 b 83 597 232 992 83 854 z "},"Č":{"ha":892,"x_min":0,"x_max":0,"o":"m 356 1221 l 221 1221 l 397 1053 l 529 1053 l 706 1221 l 571 1221 l 472 1119 l 454 1119 z m 83 375 b 463 -19 83 118 232 -19 b 819 339 692 -19 819 118 l 819 357 l 704 357 l 704 335 b 463 85 704 189 628 85 b 200 372 297 85 200 192 l 200 600 b 463 888 200 781 297 888 b 704 638 628 888 704 783 l 704 626 l 819 626 l 819 633 b 463 992 819 854 692 992 b 83 597 232 992 83 854 z "},"Ċ":{"ha":892,"x_min":0,"x_max":0,"o":"m 379 1139 b 463 1056 379 1090 415 1056 b 547 1139 511 1056 547 1090 b 463 1222 547 1188 511 1222 b 379 1139 415 1222 379 1188 z m 83 375 b 463 -19 83 118 232 -19 b 819 339 692 -19 819 118 l 819 357 l 704 357 l 704 335 b 463 85 704 189 628 85 b 200 372 297 85 200 192 l 200 600 b 463 888 200 781 297 888 b 704 638 628 888 704 783 l 704 626 l 819 626 l 819 633 b 463 992 819 854 692 992 b 83 597 232 992 83 854 z "},"Ð":{"ha":921,"x_min":0,"x_max":0,"o":"m 65 439 l 201 439 l 201 104 l 65 104 l 65 0 l 444 0 b 846 396 700 0 846 126 l 846 576 b 444 972 846 844 700 972 l 65 972 l 65 868 l 201 868 l 201 525 l 65 525 z m 318 865 l 444 865 b 731 581 632 865 731 778 l 731 390 b 444 106 731 194 632 106 l 318 106 l 318 439 l 488 439 l 488 525 l 318 525 z "},"Ď":{"ha":921,"x_min":0,"x_max":0,"o":"m 333 1221 l 200 1221 l 375 1053 l 507 1053 l 683 1221 l 550 1221 l 451 1119 l 432 1119 z m 65 972 l 65 868 l 201 868 l 201 104 l 65 104 l 65 0 l 444 0 b 846 396 700 0 846 126 l 846 576 b 444 972 846 844 700 972 z m 318 865 l 444 865 b 731 581 632 865 731 778 l 731 390 b 444 106 731 194 632 106 l 318 106 z "},"Đ":{"ha":921,"x_min":0,"x_max":0,"o":"m 65 439 l 201 439 l 201 104 l 65 104 l 65 0 l 444 0 b 846 396 700 0 846 126 l 846 576 b 444 972 846 844 700 972 l 65 972 l 65 868 l 201 868 l 201 525 l 65 525 z m 318 865 l 444 865 b 731 581 632 865 731 778 l 731 390 b 444 106 731 194 632 106 l 318 106 l 318 439 l 488 439 l 488 525 l 318 525 z "},"È":{"ha":782,"x_min":0,"x_max":0,"o":"m 404 1225 l 268 1225 l 390 1057 l 497 1057 z m 111 972 l 111 0 l 717 0 l 717 106 l 228 106 l 228 436 l 671 436 l 671 542 l 228 542 l 228 867 l 710 867 l 710 972 z "},"É":{"ha":782,"x_min":0,"x_max":0,"o":"m 435 1221 l 342 1053 l 447 1053 l 571 1221 z m 111 972 l 111 0 l 717 0 l 717 106 l 228 106 l 228 436 l 671 436 l 671 542 l 228 542 l 228 867 l 710 867 l 710 972 z "},"Ê":{"ha":782,"x_min":0,"x_max":0,"o":"m 528 1053 l 661 1053 l 485 1221 l 353 1221 l 176 1053 l 311 1053 l 410 1154 l 429 1154 z m 111 972 l 111 0 l 717 0 l 717 106 l 228 106 l 228 436 l 671 436 l 671 542 l 228 542 l 228 867 l 710 867 l 710 972 z "},"Ě":{"ha":782,"x_min":0,"x_max":0,"o":"m 311 1221 l 176 1221 l 353 1053 l 485 1053 l 661 1221 l 528 1221 l 429 1119 l 410 1119 z m 111 972 l 111 0 l 717 0 l 717 106 l 228 106 l 228 436 l 671 436 l 671 542 l 228 542 l 228 867 l 710 867 l 710 972 z "},"Ë":{"ha":782,"x_min":0,"x_max":0,"o":"m 199 1138 b 282 1056 199 1089 233 1056 b 364 1138 329 1056 364 1089 b 282 1221 364 1188 329 1221 b 199 1138 233 1221 199 1188 z m 474 1138 b 557 1056 474 1089 508 1056 b 639 1138 604 1056 639 1089 b 557 1221 639 1188 604 1221 b 474 1138 508 1221 474 1188 z m 111 972 l 111 0 l 717 0 l 717 106 l 228 106 l 228 436 l 671 436 l 671 542 l 228 542 l 228 867 l 710 867 l 710 972 z "},"Ē":{"ha":782,"x_min":0,"x_max":0,"o":"m 633 1161 l 206 1161 l 206 1071 l 633 1071 z m 111 972 l 111 0 l 717 0 l 717 106 l 228 106 l 228 436 l 671 436 l 671 542 l 228 542 l 228 867 l 710 867 l 710 972 z "},"Ĕ":{"ha":782,"x_min":0,"x_max":0,"o":"m 531 1224 l 531 1219 b 419 1122 531 1161 494 1122 b 308 1219 344 1122 308 1161 l 308 1224 l 213 1224 l 213 1219 b 419 1044 213 1115 288 1044 b 626 1219 550 1044 626 1115 l 626 1224 z m 111 972 l 111 0 l 717 0 l 717 106 l 228 106 l 228 436 l 671 436 l 671 542 l 228 542 l 228 867 l 710 867 l 710 972 z "},"Ė":{"ha":782,"x_min":0,"x_max":0,"o":"m 335 1139 b 419 1056 335 1090 371 1056 b 503 1139 467 1056 503 1090 b 419 1222 503 1188 467 1222 b 335 1139 371 1222 335 1188 z m 111 972 l 111 0 l 717 0 l 717 106 l 228 106 l 228 436 l 671 436 l 671 542 l 228 542 l 228 867 l 710 867 l 710 972 z "},"Ę":{"ha":782,"x_min":0,"x_max":0,"o":"m 111 972 l 111 0 l 563 0 l 550 -54 b 538 -137 543 -83 538 -111 b 636 -228 538 -196 575 -228 l 715 -228 l 715 -143 l 656 -143 b 625 -115 636 -143 625 -133 b 631 -78 625 -103 628 -94 l 646 0 l 717 0 l 717 106 l 228 106 l 228 436 l 671 436 l 671 542 l 228 542 l 228 867 l 710 867 l 710 972 z "},"Ĝ":{"ha":917,"x_min":0,"x_max":0,"o":"m 574 1053 l 707 1053 l 531 1221 l 400 1221 l 224 1053 l 357 1053 l 456 1154 l 475 1154 z m 83 375 b 450 -19 83 118 233 -19 b 690 106 600 -19 661 43 l 710 106 l 710 0 l 815 0 l 815 463 l 407 463 l 407 363 l 701 363 l 701 339 b 464 85 701 185 626 85 b 200 372 297 85 200 192 l 200 600 b 463 888 200 781 297 888 b 700 647 628 888 700 785 l 700 638 l 815 638 l 815 644 b 463 992 815 856 692 992 b 83 597 232 992 83 854 z "},"Ğ":{"ha":917,"x_min":0,"x_max":0,"o":"m 576 1224 l 576 1219 b 465 1122 576 1161 542 1122 b 354 1219 390 1122 354 1161 l 354 1224 l 258 1224 l 258 1219 b 465 1044 258 1115 335 1044 b 674 1219 596 1044 674 1115 l 674 1224 z m 83 375 b 450 -19 83 118 233 -19 b 690 106 600 -19 661 43 l 710 106 l 710 0 l 815 0 l 815 463 l 407 463 l 407 363 l 701 363 l 701 339 b 464 85 701 185 626 85 b 200 372 297 85 200 192 l 200 600 b 463 888 200 781 297 888 b 700 647 628 888 700 785 l 700 638 l 815 638 l 815 644 b 463 992 815 856 692 992 b 83 597 232 992 83 854 z "},"Ġ":{"ha":917,"x_min":0,"x_max":0,"o":"m 382 1139 b 465 1056 382 1090 417 1056 b 549 1139 514 1056 549 1090 b 465 1222 549 1188 514 1222 b 382 1139 417 1222 382 1188 z m 83 375 b 450 -19 83 118 233 -19 b 690 106 600 -19 661 43 l 710 106 l 710 0 l 815 0 l 815 463 l 407 463 l 407 363 l 701 363 l 701 339 b 464 85 701 185 626 85 b 200 372 297 85 200 192 l 200 600 b 463 888 200 781 297 888 b 700 647 628 888 700 785 l 700 638 l 815 638 l 815 644 b 463 992 815 856 692 992 b 83 597 232 992 83 854 z "},"Ĥ":{"ha":911,"x_min":0,"x_max":0,"o":"m 564 1053 l 697 1053 l 521 1221 l 390 1221 l 214 1053 l 347 1053 l 446 1154 l 465 1154 z m 111 972 l 111 0 l 228 0 l 228 435 l 683 435 l 683 0 l 800 0 l 800 972 l 683 972 l 683 540 l 228 540 l 228 972 z "},"Ħ":{"ha":911,"x_min":0,"x_max":0,"o":"m 111 972 l 111 792 l 17 792 l 17 707 l 111 707 l 111 0 l 228 0 l 228 435 l 683 435 l 683 0 l 800 0 l 800 707 l 896 707 l 896 792 l 800 792 l 800 972 l 683 972 l 683 792 l 228 792 l 228 972 z m 228 540 l 228 707 l 683 707 l 683 540 z "},"Ì":{"ha":339,"x_min":0,"x_max":0,"o":"m 154 1225 l 18 1225 l 142 1057 l 247 1057 z m 111 972 l 111 0 l 228 0 l 228 972 z "},"Í":{"ha":339,"x_min":0,"x_max":0,"o":"m 185 1221 l 92 1053 l 199 1053 l 321 1221 z m 111 972 l 111 0 l 228 0 l 228 972 z "},"Î":{"ha":339,"x_min":0,"x_max":0,"o":"m 278 1053 l 411 1053 l 236 1221 l 104 1221 l -72 1053 l 61 1053 l 160 1154 l 179 1154 z m 111 972 l 111 0 l 228 0 l 228 972 z "},"Ĩ":{"ha":339,"x_min":0,"x_max":0,"o":"m -61 1097 l 4 1053 l 39 1108 b 89 1142 53 1126 65 1142 b 149 1104 110 1142 124 1129 b 254 1049 185 1067 211 1049 b 356 1110 303 1049 333 1075 l 400 1179 l 335 1224 l 299 1167 b 251 1133 286 1149 274 1133 b 190 1172 229 1133 215 1147 b 85 1228 156 1208 128 1228 b -17 1167 36 1228 6 1201 z m 111 972 l 111 0 l 228 0 l 228 972 z "},"Ï":{"ha":339,"x_min":0,"x_max":0,"o":"m -51 1138 b 32 1056 -51 1089 -17 1056 b 115 1138 81 1056 115 1089 b 32 1221 115 1188 81 1221 b -51 1138 -17 1221 -51 1188 z m 224 1138 b 307 1056 224 1089 258 1056 b 390 1138 356 1056 390 1089 b 307 1221 390 1188 356 1221 b 224 1138 258 1221 224 1188 z m 111 972 l 111 0 l 228 0 l 228 972 z "},"Ī":{"ha":339,"x_min":0,"x_max":0,"o":"m 383 1161 l -44 1161 l -44 1071 l 383 1071 z m 111 972 l 111 0 l 228 0 l 228 972 z "},"İ":{"ha":339,"x_min":0,"x_max":0,"o":"m 86 1139 b 169 1056 86 1090 121 1056 b 253 1139 218 1056 253 1090 b 169 1222 253 1188 218 1222 b 86 1139 121 1222 86 1188 z m 111 972 l 111 0 l 228 0 l 228 972 z "},"Į":{"ha":339,"x_min":0,"x_max":0,"o":"m 111 972 l 111 0 l 128 0 l 115 -54 b 103 -137 108 -83 103 -111 b 200 -228 103 -196 140 -228 l 281 -228 l 281 -143 l 221 -143 b 190 -115 201 -143 190 -133 b 196 -78 190 -103 193 -94 l 210 0 l 228 0 l 228 972 z "},"Ĭ":{"ha":339,"x_min":0,"x_max":0,"o":"m 282 1224 l 282 1219 b 169 1122 282 1161 246 1122 b 58 1219 94 1122 58 1161 l 58 1224 l -37 1224 l -37 1219 b 169 1044 -37 1115 39 1044 b 378 1219 301 1044 378 1115 l 378 1224 z m 111 972 l 111 0 l 228 0 l 228 972 z "},"Ĵ":{"ha":825,"x_min":0,"x_max":0,"o":"m 675 1053 l 810 1053 l 633 1221 l 501 1221 l 325 1053 l 460 1053 l 558 1154 l 576 1154 z m 371 972 l 371 867 l 542 867 l 542 292 b 364 88 542 169 493 88 b 172 292 236 88 172 169 l 172 367 l 57 367 l 57 292 b 365 -19 57 90 175 -19 b 658 292 556 -19 658 89 l 658 867 l 764 867 l 764 972 z "},"Ĺ":{"ha":758,"x_min":0,"x_max":0,"o":"m 185 1221 l 90 1053 l 197 1053 l 319 1221 z m 111 972 l 111 0 l 719 0 l 719 106 l 228 106 l 228 972 z "},"Ľ":{"ha":758,"x_min":0,"x_max":0,"o":"m 111 972 l 111 0 l 719 0 l 719 106 l 228 106 l 228 972 z m 342 972 l 329 714 l 411 714 l 454 972 z "},"Ḹ":{"ha":758,"x_min":0,"x_max":0,"o":"m 382 1161 l -46 1161 l -46 1071 l 382 1071 z m 111 972 l 111 0 l 719 0 l 719 106 l 228 106 l 228 972 z m 332 -187 b 415 -272 332 -237 367 -272 b 500 -187 464 -272 500 -237 b 415 -104 500 -139 464 -104 b 332 -187 367 -104 332 -139 z "},"Ł":{"ha":833,"x_min":0,"x_max":0,"o":"m 24 410 l 63 333 l 188 399 l 188 0 l 794 0 l 794 106 l 303 106 l 303 460 l 467 546 l 428 622 l 303 557 l 303 972 l 188 972 l 188 496 z "},"Ŀ":{"ha":758,"x_min":0,"x_max":0,"o":"m 111 972 l 111 0 l 719 0 l 719 106 l 228 106 l 228 972 z m 458 510 b 543 426 458 461 494 426 b 626 510 590 426 626 461 b 543 594 626 560 590 594 b 458 510 494 594 458 560 z "},"Ń":{"ha":922,"x_min":0,"x_max":0,"o":"m 481 1221 l 388 1053 l 493 1053 l 617 1221 z m 111 972 l 111 0 l 226 0 l 226 900 l 246 900 l 583 0 l 810 0 l 810 972 l 694 972 l 694 74 l 676 74 l 338 972 z "},"Ň":{"ha":922,"x_min":0,"x_max":0,"o":"m 357 1221 l 222 1221 l 399 1053 l 531 1053 l 707 1221 l 574 1221 l 475 1119 l 456 1119 z m 111 972 l 111 0 l 226 0 l 226 900 l 246 900 l 583 0 l 810 0 l 810 972 l 694 972 l 694 74 l 676 74 l 338 972 z "},"Ñ":{"ha":922,"x_min":0,"x_max":0,"o":"m 235 1097 l 300 1053 l 335 1108 b 383 1142 347 1126 361 1142 b 443 1104 406 1142 419 1129 b 550 1049 479 1067 507 1049 b 651 1110 599 1049 629 1075 l 696 1179 l 631 1224 l 594 1167 b 546 1133 581 1149 568 1133 b 486 1172 525 1133 510 1147 b 379 1228 450 1208 424 1228 b 279 1167 332 1228 301 1201 z m 111 972 l 111 0 l 226 0 l 226 900 l 246 900 l 583 0 l 810 0 l 810 972 l 694 972 l 694 74 l 676 74 l 338 972 z "},"Ò":{"ha":929,"x_min":0,"x_max":0,"o":"m 449 1225 l 314 1225 l 436 1057 l 542 1057 z m 83 597 l 83 375 b 464 -19 83 118 232 -19 b 846 375 697 -19 846 118 l 846 597 b 464 992 846 854 697 992 b 83 597 232 992 83 854 z m 200 601 b 464 888 200 781 297 888 b 729 601 632 888 729 781 l 729 371 b 464 85 729 192 632 85 b 200 371 297 85 200 192 z "},"Ó":{"ha":929,"x_min":0,"x_max":0,"o":"m 481 1221 l 386 1053 l 493 1053 l 615 1221 z m 83 597 l 83 375 b 464 -19 83 118 232 -19 b 846 375 697 -19 846 118 l 846 597 b 464 992 846 854 697 992 b 83 597 232 992 83 854 z m 200 601 b 464 888 200 781 297 888 b 729 601 632 888 729 781 l 729 371 b 464 85 729 192 632 85 b 200 371 297 85 200 192 z "},"Ô":{"ha":929,"x_min":0,"x_max":0,"o":"m 572 1053 l 707 1053 l 531 1221 l 399 1221 l 222 1053 l 357 1053 l 456 1154 l 474 1154 z m 83 597 l 83 375 b 464 -19 83 118 232 -19 b 846 375 697 -19 846 118 l 846 597 b 464 992 846 854 697 992 b 83 597 232 992 83 854 z m 200 601 b 464 888 200 781 297 888 b 729 601 632 888 729 781 l 729 371 b 464 85 729 192 632 85 b 200 371 297 85 200 192 z "},"Õ":{"ha":929,"x_min":0,"x_max":0,"o":"m 233 1097 l 299 1053 l 335 1108 b 383 1142 347 1126 361 1142 b 443 1104 406 1142 419 1129 b 550 1049 479 1067 506 1049 b 651 1110 599 1049 628 1075 l 696 1179 l 631 1224 l 593 1167 b 546 1133 581 1149 568 1133 b 486 1172 524 1133 510 1147 b 379 1228 450 1208 422 1228 b 278 1167 331 1228 301 1201 z m 83 597 l 83 375 b 464 -19 83 118 232 -19 b 846 375 697 -19 846 118 l 846 597 b 464 992 846 854 697 992 b 83 597 232 992 83 854 z m 200 601 b 464 888 200 781 297 888 b 729 601 632 888 729 781 l 729 371 b 464 85 729 192 632 85 b 200 371 297 85 200 192 z "},"Ö":{"ha":929,"x_min":0,"x_max":0,"o":"m 244 1138 b 328 1056 244 1089 279 1056 b 410 1138 375 1056 410 1089 b 328 1221 410 1188 375 1221 b 244 1138 279 1221 244 1188 z m 519 1138 b 601 1056 519 1089 554 1056 b 685 1138 650 1056 685 1089 b 601 1221 685 1188 650 1221 b 519 1138 554 1221 519 1188 z m 83 597 l 83 375 b 464 -19 83 118 232 -19 b 846 375 697 -19 846 118 l 846 597 b 464 992 846 854 697 992 b 83 597 232 992 83 854 z m 200 601 b 464 888 200 781 297 888 b 729 601 632 888 729 781 l 729 371 b 464 85 729 192 632 85 b 200 371 297 85 200 192 z "},"Ō":{"ha":929,"x_min":0,"x_max":0,"o":"m 679 1161 l 250 1161 l 250 1071 l 679 1071 z m 83 597 l 83 375 b 464 -19 83 118 232 -19 b 846 375 697 -19 846 118 l 846 597 b 464 992 846 854 697 992 b 83 597 232 992 83 854 z m 200 601 b 464 888 200 781 297 888 b 729 601 632 888 729 781 l 729 371 b 464 85 729 192 632 85 b 200 371 297 85 200 192 z "},"Ő":{"ha":929,"x_min":0,"x_max":0,"o":"m 369 1225 l 290 1057 l 382 1057 l 488 1225 z m 583 1225 l 485 1057 l 585 1057 l 715 1225 z m 83 597 l 83 375 b 464 -19 83 118 232 -19 b 846 375 697 -19 846 118 l 846 597 b 464 992 846 854 697 992 b 83 597 232 992 83 854 z m 200 601 b 464 888 200 781 297 888 b 729 601 632 888 729 781 l 729 371 b 464 85 729 192 632 85 b 200 371 297 85 200 192 z "},"Ŏ":{"ha":929,"x_min":0,"x_max":0,"o":"m 576 1224 l 576 1219 b 464 1122 576 1161 540 1122 b 354 1219 390 1122 354 1161 l 354 1224 l 257 1224 l 257 1219 b 464 1044 257 1115 333 1044 b 672 1219 596 1044 672 1115 l 672 1224 z m 83 597 l 83 375 b 464 -19 83 118 232 -19 b 846 375 697 -19 846 118 l 846 597 b 464 992 846 854 697 992 b 83 597 232 992 83 854 z m 200 601 b 464 888 200 781 297 888 b 729 601 632 888 729 781 l 729 371 b 464 85 729 192 632 85 b 200 371 297 85 200 192 z "},"Ø":{"ha":929,"x_min":0,"x_max":0,"o":"m 83 597 l 83 375 b 244 36 83 213 142 99 l 194 -89 l 275 -121 l 322 1 b 464 -19 365 -12 413 -19 b 846 375 697 -19 846 118 l 846 597 b 690 933 846 757 789 869 l 735 1044 l 656 1076 l 614 969 b 464 992 569 985 519 992 b 83 597 232 992 83 854 z m 200 601 b 464 888 200 781 297 888 b 574 868 506 888 542 881 l 288 143 b 200 371 231 192 200 269 z m 729 601 l 729 371 b 464 85 729 192 632 85 b 363 101 426 85 393 90 l 647 824 b 729 601 701 775 729 699 z "},"Œ":{"ha":1164,"x_min":0,"x_max":0,"o":"m 200 429 l 200 543 b 550 872 200 747 311 872 l 550 100 b 200 429 310 100 200 224 z m 550 0 l 1099 0 l 1099 106 l 665 106 l 665 436 l 1053 436 l 1053 542 l 665 542 l 665 867 l 1092 867 l 1092 972 l 550 972 b 83 533 254 972 83 821 l 83 439 b 550 0 83 151 254 0 z "},"Ŕ":{"ha":876,"x_min":0,"x_max":0,"o":"m 443 1221 l 349 1053 l 456 1053 l 578 1221 z m 111 972 l 111 0 l 228 0 l 228 399 l 564 399 b 656 313 626 399 656 368 l 656 0 l 771 0 l 771 326 b 656 453 771 410 722 450 l 656 472 b 810 699 739 499 810 571 l 810 714 b 504 972 810 875 683 972 z m 228 867 l 493 867 b 693 690 622 867 693 803 l 693 681 b 493 504 693 569 619 504 l 228 504 z "},"Ř":{"ha":876,"x_min":0,"x_max":0,"o":"m 319 1221 l 185 1221 l 361 1053 l 493 1053 l 669 1221 l 535 1221 l 436 1119 l 418 1119 z m 111 972 l 111 0 l 228 0 l 228 399 l 564 399 b 656 313 626 399 656 368 l 656 0 l 771 0 l 771 326 b 656 453 771 410 722 450 l 656 472 b 810 699 739 499 810 571 l 810 714 b 504 972 810 875 683 972 z m 228 867 l 493 867 b 693 690 622 867 693 803 l 693 681 b 493 504 693 569 619 504 l 228 504 z "},"Ṝ":{"ha":876,"x_min":0,"x_max":0,"o":"m 640 1161 l 213 1161 l 213 1071 l 640 1071 z m 111 972 l 111 0 l 228 0 l 228 399 l 564 399 b 656 313 626 399 656 368 l 656 0 l 771 0 l 771 326 b 656 453 771 410 722 450 l 656 472 b 810 699 739 499 810 571 l 810 714 b 504 972 810 875 683 972 z m 228 867 l 493 867 b 693 690 622 867 693 803 l 693 681 b 493 504 693 569 619 504 l 228 504 z m 357 -187 b 440 -272 357 -237 393 -272 b 525 -187 489 -272 525 -237 b 440 -104 525 -139 489 -104 b 357 -187 393 -104 357 -139 z "},"Ś":{"ha":851,"x_min":0,"x_max":0,"o":"m 439 1221 l 346 1053 l 453 1053 l 575 1221 z m 418 992 b 90 726 222 992 90 890 b 379 454 90 563 207 496 l 451 436 b 668 263 582 406 668 369 b 435 82 668 158 586 82 b 182 321 286 82 182 158 l 182 350 l 67 350 l 67 321 b 435 -19 67 93 222 -19 b 783 265 646 -19 783 93 b 483 539 783 436 651 500 l 411 557 b 206 728 282 589 206 624 b 418 890 206 832 289 890 b 649 692 551 890 649 832 l 649 633 l 764 633 l 764 692 b 418 992 764 890 614 992 z "},"Ŝ":{"ha":851,"x_min":0,"x_max":0,"o":"m 532 1053 l 667 1053 l 490 1221 l 358 1221 l 182 1053 l 315 1053 l 414 1154 l 433 1154 z m 418 992 b 90 726 222 992 90 890 b 379 454 90 563 207 496 l 451 436 b 668 263 582 406 668 369 b 435 82 668 158 586 82 b 182 321 286 82 182 158 l 182 350 l 67 350 l 67 321 b 435 -19 67 93 222 -19 b 783 265 646 -19 783 93 b 483 539 783 436 651 500 l 411 557 b 206 728 282 589 206 624 b 418 890 206 832 289 890 b 649 692 551 890 649 832 l 649 633 l 764 633 l 764 692 b 418 992 764 890 614 992 z "},"Š":{"ha":851,"x_min":0,"x_max":0,"o":"m 315 1221 l 182 1221 l 358 1053 l 490 1053 l 667 1221 l 532 1221 l 433 1119 l 414 1119 z m 418 992 b 90 726 222 992 90 890 b 379 454 90 563 207 496 l 451 436 b 668 263 582 406 668 369 b 435 82 668 158 586 82 b 182 321 286 82 182 158 l 182 350 l 67 350 l 67 321 b 435 -19 67 93 222 -19 b 783 265 646 -19 783 93 b 483 539 783 436 651 500 l 411 557 b 206 728 282 589 206 624 b 418 890 206 832 289 890 b 649 692 551 890 649 832 l 649 633 l 764 633 l 764 692 b 418 992 764 890 614 992 z "},"Ş":{"ha":851,"x_min":0,"x_max":0,"o":"m 418 992 b 90 726 222 992 90 890 b 379 454 90 563 207 496 l 451 436 b 668 263 582 406 668 369 b 435 82 668 158 586 82 b 182 321 286 82 182 158 l 182 350 l 67 350 l 67 321 b 401 -18 67 106 207 -7 l 392 -117 l 443 -117 b 511 -161 486 -117 511 -132 b 444 -208 511 -194 482 -208 b 335 -175 400 -208 365 -193 l 300 -244 b 446 -285 338 -268 390 -285 b 599 -171 528 -285 599 -249 b 478 -62 599 -101 550 -62 l 482 -18 b 783 265 667 -1 783 106 b 483 539 783 436 651 500 l 411 557 b 206 728 282 589 206 624 b 418 890 206 832 289 890 b 649 692 551 890 649 832 l 649 633 l 764 633 l 764 692 b 418 992 764 890 614 992 z "},"Ť":{"ha":817,"x_min":0,"x_max":0,"o":"m 300 1221 l 167 1221 l 343 1053 l 474 1053 l 650 1221 l 517 1221 l 418 1119 l 399 1119 z m 38 972 l 38 867 l 350 867 l 350 0 l 467 0 l 467 867 l 779 867 l 779 972 z "},"Ŧ":{"ha":817,"x_min":0,"x_max":0,"o":"m 197 439 l 350 439 l 350 0 l 467 0 l 467 439 l 619 439 l 619 525 l 467 525 l 467 867 l 779 867 l 779 972 l 38 972 l 38 867 l 350 867 l 350 525 l 197 525 z "},"Ù":{"ha":925,"x_min":0,"x_max":0,"o":"m 447 1225 l 311 1225 l 435 1057 l 540 1057 z m 104 972 l 104 325 b 463 -19 104 99 246 -19 b 822 325 681 -19 822 99 l 822 972 l 706 972 l 706 324 b 463 85 706 165 617 85 b 221 324 308 85 221 165 l 221 972 z "},"Ú":{"ha":925,"x_min":0,"x_max":0,"o":"m 478 1221 l 385 1053 l 492 1053 l 614 1221 z m 104 972 l 104 325 b 463 -19 104 99 246 -19 b 822 325 681 -19 822 99 l 822 972 l 706 972 l 706 324 b 463 85 706 165 617 85 b 221 324 308 85 221 165 l 221 972 z "},"Û":{"ha":925,"x_min":0,"x_max":0,"o":"m 571 1053 l 704 1053 l 529 1221 l 397 1221 l 221 1053 l 354 1053 l 453 1154 l 472 1154 z m 104 972 l 104 325 b 463 -19 104 99 246 -19 b 822 325 681 -19 822 99 l 822 972 l 706 972 l 706 324 b 463 85 706 165 617 85 b 221 324 308 85 221 165 l 221 972 z "},"Ũ":{"ha":925,"x_min":0,"x_max":0,"o":"m 232 1097 l 297 1053 l 333 1108 b 382 1142 346 1126 360 1142 b 442 1104 403 1142 418 1129 b 547 1049 478 1067 504 1049 b 649 1110 596 1049 626 1075 l 693 1179 l 628 1224 l 592 1167 b 544 1133 579 1149 567 1133 b 485 1172 522 1133 508 1147 b 378 1228 449 1208 421 1228 b 276 1167 329 1228 299 1201 z m 104 972 l 104 325 b 463 -19 104 99 246 -19 b 822 325 681 -19 822 99 l 822 972 l 706 972 l 706 324 b 463 85 706 165 617 85 b 221 324 308 85 221 165 l 221 972 z "},"Ü":{"ha":925,"x_min":0,"x_max":0,"o":"m 243 1138 b 325 1056 243 1089 278 1056 b 408 1138 374 1056 408 1089 b 325 1221 408 1188 374 1221 b 243 1138 278 1221 243 1188 z m 517 1138 b 600 1056 517 1089 551 1056 b 683 1138 649 1056 683 1089 b 600 1221 683 1188 649 1221 b 517 1138 551 1221 517 1188 z m 104 972 l 104 325 b 463 -19 104 99 246 -19 b 822 325 681 -19 822 99 l 822 972 l 706 972 l 706 324 b 463 85 706 165 617 85 b 221 324 308 85 221 165 l 221 972 z "},"Ū":{"ha":925,"x_min":0,"x_max":0,"o":"m 676 1161 l 249 1161 l 249 1071 l 676 1071 z m 104 972 l 104 325 b 463 -19 104 99 246 -19 b 822 325 681 -19 822 99 l 822 972 l 706 972 l 706 324 b 463 85 706 165 617 85 b 221 324 308 85 221 165 l 221 972 z "},"Ŭ":{"ha":925,"x_min":0,"x_max":0,"o":"m 575 1224 l 575 1219 b 463 1122 575 1161 539 1122 b 351 1219 388 1122 351 1161 l 351 1224 l 256 1224 l 256 1219 b 463 1044 256 1115 332 1044 b 671 1219 594 1044 671 1115 l 671 1224 z m 104 972 l 104 325 b 463 -19 104 99 246 -19 b 822 325 681 -19 822 99 l 822 972 l 706 972 l 706 324 b 463 85 706 165 617 85 b 221 324 308 85 221 165 l 221 972 z "},"Ů":{"ha":925,"x_min":0,"x_max":0,"o":"m 326 1172 b 463 1039 326 1093 386 1039 b 600 1172 539 1039 600 1092 b 463 1304 600 1251 540 1304 b 326 1172 386 1304 326 1250 z m 403 1172 b 463 1232 403 1207 426 1232 b 524 1172 500 1232 524 1207 b 463 1113 524 1138 500 1113 b 403 1172 426 1113 403 1138 z m 104 972 l 104 325 b 463 -19 104 99 246 -19 b 822 325 681 -19 822 99 l 822 972 l 706 972 l 706 324 b 463 85 706 165 617 85 b 221 324 308 85 221 165 l 221 972 z "},"Ű":{"ha":925,"x_min":0,"x_max":0,"o":"m 368 1225 l 289 1057 l 381 1057 l 486 1225 z m 582 1225 l 483 1057 l 583 1057 l 713 1225 z m 104 972 l 104 325 b 463 -19 104 99 246 -19 b 822 325 681 -19 822 99 l 822 972 l 706 972 l 706 324 b 463 85 706 165 617 85 b 221 324 308 85 221 165 l 221 972 z "},"Ų":{"ha":925,"x_min":0,"x_max":0,"o":"m 104 972 l 104 325 b 463 -19 104 99 246 -19 b 518 -17 482 -19 500 -18 l 510 -54 b 497 -137 503 -83 497 -111 b 596 -228 497 -196 535 -228 l 675 -228 l 675 -143 l 615 -143 b 585 -115 596 -143 585 -133 b 590 -78 585 -103 588 -94 l 606 1 b 822 325 740 43 822 153 l 822 972 l 706 972 l 706 324 b 463 85 706 165 617 85 b 221 324 308 85 221 165 l 221 972 z "},"Ŵ":{"ha":1215,"x_min":0,"x_max":0,"o":"m 717 1053 l 850 1053 l 674 1221 l 542 1221 l 365 1053 l 500 1053 l 599 1154 l 618 1154 z m 51 972 l 210 0 l 419 0 l 599 903 l 618 903 l 797 0 l 1006 0 l 1164 972 l 1047 972 l 910 75 l 890 75 l 713 972 l 504 972 l 325 75 l 306 75 l 168 972 z "},"Ý":{"ha":847,"x_min":0,"x_max":0,"o":"m 439 1221 l 346 1053 l 451 1053 l 575 1221 z m 19 972 l 365 371 l 365 0 l 482 0 l 482 371 l 828 972 l 694 972 l 433 507 l 414 507 l 153 972 z "},"Ŷ":{"ha":847,"x_min":0,"x_max":0,"o":"m 532 1053 l 665 1053 l 489 1221 l 357 1221 l 182 1053 l 315 1053 l 414 1154 l 433 1154 z m 19 972 l 365 371 l 365 0 l 482 0 l 482 371 l 828 972 l 694 972 l 433 507 l 414 507 l 153 972 z "},"Ÿ":{"ha":847,"x_min":0,"x_max":0,"o":"m 203 1138 b 286 1056 203 1089 238 1056 b 369 1138 335 1056 369 1089 b 286 1221 369 1188 335 1221 b 203 1138 238 1221 203 1188 z m 478 1138 b 561 1056 478 1089 513 1056 b 644 1138 608 1056 644 1089 b 561 1221 644 1188 608 1221 b 478 1138 513 1221 478 1188 z m 19 972 l 365 371 l 365 0 l 482 0 l 482 371 l 828 972 l 694 972 l 433 507 l 414 507 l 153 972 z "},"Ź":{"ha":801,"x_min":0,"x_max":0,"o":"m 413 1221 l 319 1053 l 425 1053 l 549 1221 z m 86 972 l 86 868 l 611 868 l 611 851 l 69 154 l 69 0 l 738 0 l 738 104 l 185 104 l 185 121 l 726 818 l 726 972 z "},"Ž":{"ha":801,"x_min":0,"x_max":0,"o":"m 289 1221 l 156 1221 l 331 1053 l 463 1053 l 639 1221 l 506 1221 l 407 1119 l 388 1119 z m 86 972 l 86 868 l 611 868 l 611 851 l 69 154 l 69 0 l 738 0 l 738 104 l 185 104 l 185 121 l 726 818 l 726 972 z "},"Ż":{"ha":801,"x_min":0,"x_max":0,"o":"m 313 1139 b 397 1056 313 1090 349 1056 b 481 1139 446 1056 481 1090 b 397 1222 481 1188 446 1222 b 313 1139 349 1222 313 1188 z m 86 972 l 86 868 l 611 868 l 611 851 l 69 154 l 69 0 l 738 0 l 738 104 l 185 104 l 185 121 l 726 818 l 726 972 z "},"Þ":{"ha":835,"x_min":0,"x_max":0,"o":"m 228 0 l 228 211 l 483 211 b 789 493 654 211 789 317 l 789 510 b 483 792 789 686 657 792 l 228 792 l 228 972 l 111 972 l 111 0 z m 471 686 b 672 508 597 686 672 621 l 672 494 b 471 317 672 382 594 317 l 228 317 l 228 686 z "},"Ŋ":{"ha":922,"x_min":0,"x_max":0,"o":"m 111 972 l 111 0 l 228 0 l 228 900 l 247 900 l 583 0 l 697 0 l 697 -140 b 658 -182 697 -168 686 -182 l 514 -182 l 514 -278 l 692 -278 b 810 -160 764 -278 810 -237 l 810 972 l 694 972 l 694 74 l 675 74 l 338 972 z "},"Ĳ":{"ha":996,"x_min":0,"x_max":0,"o":"m 60 972 l 60 867 l 179 867 l 179 482 l 296 482 l 296 867 l 414 867 l 414 972 z m 579 971 l 579 865 l 699 865 l 699 297 b 504 86 699 171 644 86 b 296 297 364 86 296 171 l 296 318 l 179 318 l 179 297 b 504 -21 179 92 304 -21 b 815 297 707 -21 815 90 l 815 865 l 933 865 l 933 971 z "},"":{"ha":997,"x_min":0,"x_max":0,"o":"m 253 1221 l 160 1053 l 265 1053 l 389 1221 z m 776 1221 l 679 1053 l 785 1053 l 913 1221 z m 60 972 l 60 867 l 179 867 l 179 482 l 296 482 l 296 867 l 414 867 l 414 972 z m 579 971 l 579 865 l 699 865 l 699 297 b 504 86 699 171 644 86 b 296 297 364 86 296 171 l 296 318 l 179 318 l 179 297 b 504 -21 179 92 304 -21 b 815 297 707 -21 815 90 l 815 865 l 933 865 l 933 971 z "},"à":{"ha":799,"x_min":0,"x_max":0,"o":"m 358 972 l 225 972 l 358 782 l 464 782 z m 93 492 l 196 458 b 386 604 217 546 276 604 b 554 449 499 604 554 544 l 554 399 l 325 399 b 69 193 179 399 69 331 b 324 -19 69 57 179 -19 b 550 101 464 -19 521 47 l 565 103 b 668 0 565 40 606 0 l 764 0 l 764 93 l 701 93 b 663 135 676 93 663 107 l 663 442 b 388 699 663 604 560 699 b 93 492 217 699 125 606 z m 179 196 b 329 310 179 272 242 310 l 554 310 l 554 294 b 336 75 554 156 467 75 b 179 196 242 75 179 119 z "},"á":{"ha":799,"x_min":0,"x_max":0,"o":"m 425 960 l 318 771 l 424 771 l 557 960 z m 93 492 l 196 458 b 386 604 217 546 276 604 b 554 449 499 604 554 544 l 554 399 l 325 399 b 69 193 179 399 69 331 b 324 -19 69 57 179 -19 b 550 101 464 -19 521 47 l 565 103 b 668 0 565 40 606 0 l 764 0 l 764 93 l 701 93 b 663 135 676 93 663 107 l 663 442 b 388 699 663 604 560 699 b 93 492 217 699 125 606 z m 179 196 b 329 310 179 272 242 310 l 554 310 l 554 294 b 336 75 554 156 467 75 b 179 196 242 75 179 119 z "},"â":{"ha":799,"x_min":0,"x_max":0,"o":"m 276 771 l 382 888 l 401 888 l 506 771 l 631 771 l 458 960 l 324 960 l 153 771 z m 93 492 l 196 458 b 386 604 217 546 276 604 b 554 449 499 604 554 544 l 554 399 l 325 399 b 69 193 179 399 69 331 b 324 -19 69 57 179 -19 b 550 101 464 -19 521 47 l 565 103 b 668 0 565 40 606 0 l 764 0 l 764 93 l 701 93 b 663 135 676 93 663 107 l 663 442 b 388 699 663 604 560 699 b 93 492 217 699 125 606 z m 179 196 b 329 310 179 272 242 310 l 554 310 l 554 294 b 336 75 554 156 467 75 b 179 196 242 75 179 119 z "},"ã":{"ha":799,"x_min":0,"x_max":0,"o":"m 168 799 l 238 758 l 272 818 b 315 849 283 836 294 849 b 375 804 336 849 351 829 b 472 753 407 768 433 753 b 569 813 515 753 547 775 l 611 892 l 543 932 l 508 872 b 465 840 497 854 486 840 b 406 886 444 840 428 860 b 308 936 374 922 347 936 b 211 876 265 936 232 914 z m 93 492 l 196 458 b 386 604 217 546 276 604 b 554 449 499 604 554 544 l 554 399 l 325 399 b 69 193 179 399 69 331 b 324 -19 69 57 179 -19 b 550 101 464 -19 521 47 l 565 103 b 668 0 565 40 606 0 l 764 0 l 764 93 l 701 93 b 663 135 676 93 663 107 l 663 442 b 388 699 663 604 560 699 b 93 492 217 699 125 606 z m 179 196 b 329 310 179 272 242 310 l 554 310 l 554 294 b 336 75 554 156 467 75 b 179 196 242 75 179 119 z "},"ä":{"ha":799,"x_min":0,"x_max":0,"o":"m 178 867 b 261 783 178 817 213 783 b 344 867 310 783 344 817 b 261 949 344 915 310 949 b 178 867 213 949 178 915 z m 439 867 b 521 783 439 817 474 783 b 604 867 569 783 604 817 b 521 949 604 915 569 949 b 439 867 474 949 439 915 z m 93 492 l 196 458 b 386 604 217 546 276 604 b 554 449 499 604 554 544 l 554 399 l 325 399 b 69 193 179 399 69 331 b 324 -19 69 57 179 -19 b 550 101 464 -19 521 47 l 565 103 b 668 0 565 40 606 0 l 764 0 l 764 93 l 701 93 b 663 135 676 93 663 107 l 663 442 b 388 699 663 604 560 699 b 93 492 217 699 125 606 z m 179 196 b 329 310 179 272 242 310 l 554 310 l 554 294 b 336 75 554 156 467 75 b 179 196 242 75 179 119 z "},"ā":{"ha":799,"x_min":0,"x_max":0,"o":"m 606 889 l 178 889 l 178 799 l 606 799 z m 93 492 l 196 458 b 386 604 217 546 276 604 b 554 449 499 604 554 544 l 554 399 l 325 399 b 69 193 179 399 69 331 b 324 -19 69 57 179 -19 b 550 101 464 -19 521 47 l 565 103 b 668 0 565 40 606 0 l 764 0 l 764 93 l 701 93 b 663 135 676 93 663 107 l 663 442 b 388 699 663 604 560 699 b 93 492 217 699 125 606 z m 179 196 b 329 310 179 272 242 310 l 554 310 l 554 294 b 336 75 554 156 467 75 b 179 196 242 75 179 119 z "},"ă":{"ha":799,"x_min":0,"x_max":0,"o":"m 497 960 l 497 953 b 392 847 497 892 463 847 b 285 953 319 847 285 892 l 285 960 l 188 960 l 188 951 b 392 767 188 835 268 767 b 594 951 514 767 594 835 l 594 960 z m 93 492 l 196 458 b 386 604 217 546 276 604 b 554 449 499 604 554 544 l 554 399 l 325 399 b 69 193 179 399 69 331 b 324 -19 69 57 179 -19 b 550 101 464 -19 521 47 l 565 103 b 668 0 565 40 606 0 l 764 0 l 764 93 l 701 93 b 663 135 676 93 663 107 l 663 442 b 388 699 663 604 560 699 b 93 492 217 699 125 606 z m 179 196 b 329 310 179 272 242 310 l 554 310 l 554 294 b 336 75 554 156 467 75 b 179 196 242 75 179 119 z "},"å":{"ha":799,"x_min":0,"x_max":0,"o":"m 254 886 b 392 754 254 808 315 754 b 529 886 468 754 529 807 b 392 1019 529 965 469 1019 b 254 886 314 1019 254 965 z m 332 886 b 392 946 332 921 356 946 b 451 886 428 946 451 921 b 392 828 451 851 428 828 b 332 886 356 828 332 851 z m 93 492 l 196 458 b 386 604 217 546 276 604 b 554 449 499 604 554 544 l 554 399 l 325 399 b 69 193 179 399 69 331 b 324 -19 69 57 179 -19 b 550 101 464 -19 521 47 l 565 103 b 668 0 565 40 606 0 l 764 0 l 764 93 l 701 93 b 663 135 676 93 663 107 l 663 442 b 388 699 663 604 560 699 b 93 492 217 699 125 606 z m 179 196 b 329 310 179 272 242 310 l 554 310 l 554 294 b 336 75 554 156 467 75 b 179 196 242 75 179 119 z "},"ą":{"ha":799,"x_min":0,"x_max":0,"o":"m 93 492 l 196 458 b 386 604 217 546 276 604 b 554 449 499 604 554 544 l 554 399 l 325 399 b 69 193 179 399 69 331 b 324 -19 69 57 179 -19 b 550 101 464 -19 521 47 l 565 103 b 617 11 565 60 585 26 l 601 -54 b 589 -137 594 -83 589 -111 b 688 -228 589 -196 626 -228 l 768 -228 l 768 -143 l 708 -143 b 678 -115 689 -143 678 -133 b 683 -78 678 -103 681 -94 l 697 0 l 764 0 l 764 93 l 701 93 b 663 135 676 93 663 107 l 663 442 b 388 699 663 604 560 699 b 93 492 217 699 125 606 z m 179 196 b 329 310 179 272 242 310 l 554 310 l 554 294 b 336 75 554 156 467 75 b 179 196 242 75 179 119 z "},"æ":{"ha":1285,"x_min":0,"x_max":0,"o":"m 89 493 l 189 461 b 390 604 214 546 278 604 b 567 449 501 604 567 543 l 567 394 l 333 394 b 69 192 181 394 69 328 b 340 -19 69 54 183 -19 b 613 139 503 -19 579 61 l 629 139 b 908 -19 685 43 783 -19 b 1193 156 1068 -19 1143 64 l 1106 208 b 906 78 1072 140 1018 78 b 676 307 772 78 685 167 l 1208 307 l 1208 367 b 896 699 1208 565 1086 699 b 644 569 790 699 701 649 l 629 569 b 390 699 592 647 511 699 b 89 493 218 699 122 606 z m 678 394 b 894 600 689 522 772 600 b 1099 394 1014 600 1094 528 z m 178 194 b 338 307 178 269 244 307 l 567 307 l 567 293 b 349 72 567 154 478 72 b 178 194 247 72 178 118 z "},"ç":{"ha":831,"x_min":0,"x_max":0,"o":"m 82 347 l 82 332 b 386 -18 82 129 210 0 l 378 -117 l 428 -117 b 497 -161 471 -117 497 -132 b 429 -208 497 -194 468 -208 b 319 -175 385 -208 350 -193 l 286 -244 b 432 -285 324 -268 375 -285 b 583 -171 514 -285 583 -249 b 464 -62 583 -101 535 -62 l 468 -18 b 758 239 638 -3 732 113 l 650 263 b 429 79 633 158 564 79 b 192 333 294 79 192 175 l 192 346 b 429 600 192 504 294 600 b 646 417 564 600 632 517 l 753 439 b 428 699 731 576 624 699 b 82 347 229 699 82 565 z "},"ć":{"ha":831,"x_min":0,"x_max":0,"o":"m 461 960 l 354 771 l 460 771 l 593 960 z m 82 347 l 82 332 b 428 -19 82 114 229 -19 b 758 239 624 -19 729 103 l 650 263 b 429 79 633 158 564 79 b 192 333 294 79 192 175 l 192 346 b 429 600 192 504 294 600 b 646 417 564 600 632 517 l 753 439 b 428 699 731 576 624 699 b 82 347 229 699 82 565 z "},"ĉ":{"ha":831,"x_min":0,"x_max":0,"o":"m 313 771 l 418 888 l 438 888 l 543 771 l 667 771 l 496 960 l 360 960 l 189 771 z m 82 347 l 82 332 b 428 -19 82 114 229 -19 b 758 239 624 -19 729 103 l 650 263 b 429 79 633 158 564 79 b 192 333 294 79 192 175 l 192 346 b 429 600 192 504 294 600 b 646 417 564 600 632 517 l 753 439 b 428 699 731 576 624 699 b 82 347 229 699 82 565 z "},"č":{"ha":831,"x_min":0,"x_max":0,"o":"m 543 960 l 438 844 l 418 844 l 313 960 l 189 960 l 360 771 l 496 771 l 667 960 z m 82 347 l 82 332 b 428 -19 82 114 229 -19 b 758 239 624 -19 729 103 l 650 263 b 429 79 633 158 564 79 b 192 333 294 79 192 175 l 192 346 b 429 600 192 504 294 600 b 646 417 564 600 632 517 l 753 439 b 428 699 731 576 624 699 b 82 347 229 699 82 565 z "},"ċ":{"ha":831,"x_min":0,"x_max":0,"o":"m 344 868 b 428 785 344 819 379 785 b 511 868 476 785 511 819 b 428 953 511 918 476 953 b 344 868 379 953 344 918 z m 82 347 l 82 332 b 428 -19 82 114 229 -19 b 758 239 624 -19 729 103 l 650 263 b 429 79 633 158 564 79 b 192 333 294 79 192 175 l 192 346 b 429 600 192 504 294 600 b 646 417 564 600 632 517 l 753 439 b 428 699 731 576 624 699 b 82 347 229 699 82 565 z "},"ð":{"ha":854,"x_min":0,"x_max":0,"o":"m 283 925 b 401 879 326 913 365 897 l 343 799 l 404 756 l 465 842 b 642 603 560 778 617 696 l 624 603 b 406 693 576 656 508 694 b 82 347 219 693 82 556 l 82 331 b 429 -19 82 121 221 -21 b 776 374 639 -18 776 121 b 521 917 776 626 686 804 l 574 989 l 513 1033 l 457 956 b 318 1011 414 978 368 996 z m 192 344 b 429 600 192 499 285 600 b 667 344 572 600 667 499 l 667 335 b 429 79 667 179 571 79 b 192 335 286 79 192 179 z "},"ď":{"ha":988,"x_min":0,"x_max":0,"o":"m 779 972 l 669 972 l 669 572 l 650 572 b 403 699 615 635 544 699 b 82 349 225 699 82 565 l 82 331 b 403 -19 82 113 226 -19 b 653 113 544 -19 615 44 l 672 113 l 672 0 l 779 0 z m 893 972 l 881 714 l 963 714 l 1006 972 z m 432 601 b 669 346 572 601 669 507 l 669 333 b 432 78 669 172 571 78 b 193 333 292 78 193 172 l 193 346 b 432 601 193 507 292 601 z "},"đ":{"ha":894,"x_min":0,"x_max":0,"o":"m 432 854 l 432 782 l 669 782 l 669 572 l 650 572 b 403 699 615 635 544 699 b 82 349 225 699 82 565 l 82 331 b 403 -19 82 113 226 -19 b 653 113 544 -19 615 44 l 672 113 l 672 0 l 779 0 l 779 782 l 886 782 l 886 854 l 779 854 l 779 972 l 669 972 l 669 854 z m 432 601 b 669 346 572 601 669 507 l 669 333 b 432 78 669 172 571 78 b 193 333 292 78 193 172 l 193 346 b 432 601 193 507 292 601 z "},"è":{"ha":822,"x_min":0,"x_max":0,"o":"m 386 972 l 253 972 l 386 782 l 492 782 z m 82 347 l 82 331 b 426 -19 82 121 219 -19 b 731 168 608 -19 689 82 l 636 214 b 429 78 603 139 546 78 b 193 311 294 78 197 165 l 746 311 l 746 361 b 419 699 746 568 613 699 b 82 347 221 699 82 557 z m 194 401 b 419 601 211 528 296 601 b 635 401 542 601 626 528 z "},"é":{"ha":822,"x_min":0,"x_max":0,"o":"m 453 960 l 346 771 l 451 771 l 585 960 z m 82 347 l 82 331 b 426 -19 82 121 219 -19 b 731 168 608 -19 689 82 l 636 214 b 429 78 603 139 546 78 b 193 311 294 78 197 165 l 746 311 l 746 361 b 419 699 746 568 613 699 b 82 347 221 699 82 557 z m 194 401 b 419 601 211 528 296 601 b 635 401 542 601 626 528 z "},"ê":{"ha":822,"x_min":0,"x_max":0,"o":"m 304 771 l 410 888 l 429 888 l 535 771 l 658 771 l 488 960 l 351 960 l 181 771 z m 82 347 l 82 331 b 426 -19 82 121 219 -19 b 731 168 608 -19 689 82 l 636 214 b 429 78 603 139 546 78 b 193 311 294 78 197 165 l 746 311 l 746 361 b 419 699 746 568 613 699 b 82 347 221 699 82 557 z m 194 401 b 419 601 211 528 296 601 b 635 401 542 601 626 528 z "},"ě":{"ha":822,"x_min":0,"x_max":0,"o":"m 535 960 l 429 844 l 410 844 l 304 960 l 181 960 l 351 771 l 488 771 l 658 960 z m 82 347 l 82 331 b 426 -19 82 121 219 -19 b 731 168 608 -19 689 82 l 636 214 b 429 78 603 139 546 78 b 193 311 294 78 197 165 l 746 311 l 746 361 b 419 699 746 568 613 699 b 82 347 221 699 82 557 z m 194 401 b 419 601 211 528 296 601 b 635 401 542 601 626 528 z "},"ë":{"ha":822,"x_min":0,"x_max":0,"o":"m 206 867 b 289 783 206 817 240 783 b 372 867 338 783 372 817 b 289 949 372 915 338 949 b 206 867 240 949 206 915 z m 467 867 b 550 783 467 817 501 783 b 632 867 597 783 632 817 b 550 949 632 915 597 949 b 467 867 501 949 467 915 z m 82 347 l 82 331 b 426 -19 82 121 219 -19 b 731 168 608 -19 689 82 l 636 214 b 429 78 603 139 546 78 b 193 311 294 78 197 165 l 746 311 l 746 361 b 419 699 746 568 613 699 b 82 347 221 699 82 557 z m 194 401 b 419 601 211 528 296 601 b 635 401 542 601 626 528 z "},"ē":{"ha":822,"x_min":0,"x_max":0,"o":"m 633 889 l 206 889 l 206 799 l 633 799 z m 82 347 l 82 331 b 426 -19 82 121 219 -19 b 731 168 608 -19 689 82 l 636 214 b 429 78 603 139 546 78 b 193 311 294 78 197 165 l 746 311 l 746 361 b 419 699 746 568 613 699 b 82 347 221 699 82 557 z m 194 401 b 419 601 211 528 296 601 b 635 401 542 601 626 528 z "},"ĕ":{"ha":822,"x_min":0,"x_max":0,"o":"m 525 960 l 525 953 b 419 847 525 892 490 847 b 313 953 347 847 313 892 l 313 960 l 215 960 l 215 951 b 419 767 215 835 296 767 b 622 951 542 767 622 835 l 622 960 z m 82 347 l 82 331 b 426 -19 82 121 219 -19 b 731 168 608 -19 689 82 l 636 214 b 429 78 603 139 546 78 b 193 311 294 78 197 165 l 746 311 l 746 361 b 419 699 746 568 613 699 b 82 347 221 699 82 557 z m 194 401 b 419 601 211 528 296 601 b 635 401 542 601 626 528 z "},"ę":{"ha":822,"x_min":0,"x_max":0,"o":"m 82 347 l 82 331 b 426 -19 82 121 219 -19 b 474 -17 443 -19 460 -18 l 465 -54 b 453 -137 458 -83 453 -111 b 551 -228 453 -196 490 -228 l 631 -228 l 631 -143 l 572 -143 b 542 -115 553 -143 542 -133 b 547 -78 542 -103 544 -94 l 563 4 b 731 168 653 39 701 107 l 636 214 b 429 78 603 139 546 78 b 193 311 294 78 197 165 l 746 311 l 746 361 b 419 699 746 568 613 699 b 82 347 221 699 82 557 z m 194 401 b 419 601 211 528 296 601 b 635 401 542 601 626 528 z "},"ė":{"ha":822,"x_min":0,"x_max":0,"o":"m 335 868 b 419 785 335 819 371 785 b 503 868 467 785 503 819 b 419 953 503 918 467 953 b 335 868 371 953 335 918 z m 82 347 l 82 331 b 426 -19 82 121 219 -19 b 731 168 608 -19 689 82 l 636 214 b 429 78 603 139 546 78 b 193 311 294 78 197 165 l 746 311 l 746 361 b 419 699 746 568 613 699 b 82 347 221 699 82 557 z m 194 401 b 419 601 211 528 296 601 b 635 401 542 601 626 528 z "},"ĝ":{"ha":894,"x_min":0,"x_max":0,"o":"m 344 771 l 450 888 l 469 888 l 575 771 l 699 771 l 528 960 l 392 960 l 221 771 z m 196 -181 l 196 -278 l 657 -278 b 778 -158 735 -278 778 -232 l 778 0 l 779 679 l 672 679 l 672 567 l 653 567 b 403 699 617 633 546 699 b 82 356 225 699 82 568 l 82 336 b 403 -7 82 124 225 -7 b 650 119 546 -7 617 58 l 669 119 l 668 0 l 668 -139 b 628 -181 668 -167 656 -181 z m 432 601 b 669 351 572 601 669 508 l 669 340 b 432 90 669 183 571 90 b 193 340 292 90 193 183 l 193 351 b 432 601 193 508 292 601 z "},"ğ":{"ha":894,"x_min":0,"x_max":0,"o":"m 565 960 l 565 953 b 460 847 565 892 531 847 b 353 953 388 847 353 892 l 353 960 l 256 960 l 256 951 b 460 767 256 835 336 767 b 663 951 582 767 663 835 l 663 960 z m 196 -181 l 196 -278 l 657 -278 b 778 -158 735 -278 778 -232 l 778 0 l 779 679 l 672 679 l 672 567 l 653 567 b 403 699 617 633 546 699 b 82 356 225 699 82 568 l 82 336 b 403 -7 82 124 225 -7 b 650 119 546 -7 617 58 l 669 119 l 668 0 l 668 -139 b 628 -181 668 -167 656 -181 z m 432 601 b 669 351 572 601 669 508 l 669 340 b 432 90 669 183 571 90 b 193 340 292 90 193 183 l 193 351 b 432 601 193 508 292 601 z "},"ġ":{"ha":894,"x_min":0,"x_max":0,"o":"m 375 868 b 460 785 375 819 411 785 b 543 868 507 785 543 819 b 460 953 543 918 507 953 b 375 868 411 953 375 918 z m 196 -181 l 196 -278 l 657 -278 b 778 -158 735 -278 778 -232 l 778 0 l 779 679 l 672 679 l 672 567 l 653 567 b 403 699 617 633 546 699 b 82 356 225 699 82 568 l 82 336 b 403 -7 82 124 225 -7 b 650 119 546 -7 617 58 l 669 119 l 668 0 l 668 -139 b 628 -181 668 -167 656 -181 z m 432 601 b 669 351 572 601 669 508 l 669 340 b 432 90 669 183 571 90 b 193 340 292 90 193 183 l 193 351 b 432 601 193 508 292 601 z "},"ĥ":{"ha":851,"x_min":0,"x_max":0,"o":"m 278 1053 l 413 1053 l 236 1221 l 104 1221 l -72 1053 l 61 1053 l 160 1154 l 179 1154 z m 115 972 l 115 0 l 225 0 l 225 342 b 447 596 225 510 317 596 b 635 403 561 596 635 538 l 635 0 l 744 0 l 744 411 b 475 692 744 593 625 692 b 244 571 338 692 274 631 l 225 571 l 225 972 z "},"ħ":{"ha":851,"x_min":0,"x_max":0,"o":"m 8 854 l 8 782 l 115 782 l 115 0 l 225 0 l 225 342 b 447 596 225 510 317 596 b 635 403 561 596 635 538 l 635 0 l 744 0 l 744 411 b 475 692 744 593 625 692 b 244 571 338 692 274 631 l 225 571 l 225 782 l 461 782 l 461 854 l 225 854 l 225 972 l 115 972 l 115 854 z "},"ì":{"ha":340,"x_min":0,"x_max":0,"o":"m 138 972 l 4 972 l 138 782 l 243 782 z m 225 679 l 115 679 l 115 0 l 225 0 z "},"í":{"ha":340,"x_min":0,"x_max":0,"o":"m 204 960 l 97 771 l 203 771 l 336 960 z m 225 679 l 115 679 l 115 0 l 225 0 z "},"î":{"ha":340,"x_min":0,"x_max":0,"o":"m 56 771 l 160 888 l 179 888 l 285 771 l 408 771 l 238 960 l 103 960 l -69 771 z m 225 679 l 115 679 l 115 0 l 225 0 z "},"ĩ":{"ha":340,"x_min":0,"x_max":0,"o":"m -53 799 l 17 758 l 50 818 b 93 849 61 836 72 849 b 153 804 115 849 131 829 b 251 753 185 768 211 753 b 347 813 294 753 326 775 l 390 892 l 321 932 l 288 872 b 244 840 276 854 265 840 b 185 886 222 840 207 860 b 86 936 151 922 126 936 b -10 876 43 936 11 914 z m 225 679 l 115 679 l 115 0 l 225 0 z "},"ï":{"ha":340,"x_min":0,"x_max":0,"o":"m -43 867 b 40 783 -43 817 -8 783 b 122 867 88 783 122 817 b 40 949 122 915 88 949 b -43 867 -8 949 -43 915 z m 217 867 b 300 783 217 817 251 783 b 383 867 349 783 383 817 b 300 949 383 915 349 949 b 217 867 251 949 217 915 z m 225 679 l 115 679 l 115 0 l 225 0 z "},"ī":{"ha":340,"x_min":0,"x_max":0,"o":"m 383 889 l -44 889 l -44 799 l 383 799 z m 225 679 l 115 679 l 115 0 l 225 0 z "},"į":{"ha":340,"x_min":0,"x_max":0,"o":"m 86 868 b 169 785 86 819 122 785 b 254 868 218 785 254 819 b 169 953 254 918 218 953 b 86 868 122 953 86 918 z m 225 679 l 115 679 l 115 0 l 128 0 l 115 -54 b 103 -137 108 -83 103 -111 b 201 -228 103 -196 140 -228 l 281 -228 l 281 -143 l 222 -143 b 190 -115 201 -143 190 -133 b 196 -78 190 -103 193 -94 l 211 0 l 225 0 z "},"ĭ":{"ha":340,"x_min":0,"x_max":0,"o":"m 276 960 l 276 953 b 169 847 276 892 240 847 b 63 953 99 847 63 892 l 63 960 l -33 960 l -33 951 b 169 767 -33 835 47 767 b 372 951 292 767 372 835 l 372 960 z m 225 679 l 115 679 l 115 0 l 225 0 z "},"ĵ":{"ha":343,"x_min":0,"x_max":0,"o":"m 58 771 l 163 888 l 182 888 l 288 771 l 411 771 l 240 960 l 106 960 l -67 771 z m 228 679 l 118 679 l 118 -139 b 76 -181 118 -167 106 -181 l -18 -181 l -18 -278 l 107 -278 b 228 -158 185 -278 228 -232 z "},"ĸ":{"ha":747,"x_min":0,"x_max":0,"o":"m 115 0 l 225 0 l 225 296 l 244 296 l 568 0 l 719 0 l 332 349 l 708 679 l 556 679 l 244 400 l 225 400 l 225 679 l 115 679 z "},"ĺ":{"ha":340,"x_min":0,"x_max":0,"o":"m 186 1221 l 92 1053 l 199 1053 l 321 1221 z m 225 972 l 115 972 l 115 0 l 225 0 z "},"ľ":{"ha":433,"x_min":0,"x_max":0,"o":"m 225 972 l 115 972 l 115 0 l 225 0 z m 339 972 l 326 714 l 408 714 l 451 972 z "},"ḹ":{"ha":340,"x_min":0,"x_max":0,"o":"m 383 1161 l -44 1161 l -44 1071 l 383 1071 z m 225 972 l 115 972 l 115 0 l 225 0 z m 86 -187 b 169 -272 86 -237 122 -272 b 254 -187 218 -272 254 -237 b 169 -104 254 -139 218 -104 b 86 -187 122 -104 86 -139 z "},"ł":{"ha":513,"x_min":0,"x_max":0,"o":"m 35 347 l 71 276 l 201 344 l 201 0 l 311 0 l 311 401 l 478 489 l 442 560 l 311 492 l 311 972 l 201 972 l 201 435 z "},"ŀ":{"ha":508,"x_min":0,"x_max":0,"o":"m 225 972 l 115 972 l 115 0 l 225 0 z m 340 354 b 424 271 340 306 375 271 b 508 354 472 271 508 306 b 424 438 508 403 472 438 b 340 354 375 438 340 403 z "},"ń":{"ha":851,"x_min":0,"x_max":0,"o":"m 461 960 l 354 771 l 460 771 l 593 960 z m 115 679 l 115 0 l 225 0 l 225 342 b 447 596 225 510 317 596 b 635 403 561 596 635 538 l 635 0 l 744 0 l 744 411 b 475 692 744 593 625 692 b 242 564 336 692 271 629 l 222 564 l 222 679 z "},"ň":{"ha":851,"x_min":0,"x_max":0,"o":"m 543 960 l 438 844 l 418 844 l 313 960 l 189 960 l 360 771 l 496 771 l 667 960 z m 115 679 l 115 0 l 225 0 l 225 342 b 447 596 225 510 317 596 b 635 403 561 596 635 538 l 635 0 l 744 0 l 744 411 b 475 692 744 593 625 692 b 242 564 336 692 271 629 l 222 564 l 222 679 z "},"ñ":{"ha":851,"x_min":0,"x_max":0,"o":"m 206 799 l 274 758 l 308 818 b 351 849 319 836 331 849 b 411 804 372 849 389 829 b 508 753 443 768 469 753 b 606 813 551 753 585 775 l 649 892 l 579 932 l 544 872 b 501 840 533 854 522 840 b 442 886 481 840 464 860 b 344 936 410 922 383 936 b 247 876 301 936 268 914 z m 115 679 l 115 0 l 225 0 l 225 342 b 447 596 225 510 317 596 b 635 403 561 596 635 538 l 635 0 l 744 0 l 744 411 b 475 692 744 593 625 692 b 242 564 336 692 271 629 l 222 564 l 222 679 z "},"ŉ":{"ha":851,"x_min":0,"x_max":0,"o":"m 100 983 b 181 906 100 938 135 906 l 194 906 l 194 879 b 147 833 194 846 182 833 l 115 833 l 115 772 l 153 772 b 261 878 225 772 261 807 l 261 976 b 181 1063 261 1029 226 1063 b 100 983 133 1063 100 1029 z m 115 679 l 115 0 l 225 0 l 225 342 b 447 596 225 510 317 596 b 635 403 561 596 635 538 l 635 0 l 744 0 l 744 411 b 475 692 744 593 625 692 b 242 564 336 692 271 629 l 222 564 l 222 679 z "},"ò":{"ha":858,"x_min":0,"x_max":0,"o":"m 396 972 l 263 972 l 396 782 l 501 782 z m 82 349 l 82 331 b 429 -19 82 118 224 -19 b 776 331 635 -19 776 118 l 776 349 b 429 699 776 561 635 699 b 82 349 224 699 82 561 z m 192 346 b 429 600 192 501 285 600 b 667 346 572 600 667 501 l 667 333 b 429 79 667 178 572 79 b 192 333 286 79 192 178 z "},"ó":{"ha":858,"x_min":0,"x_max":0,"o":"m 463 960 l 356 771 l 461 771 l 594 960 z m 82 349 l 82 331 b 429 -19 82 118 224 -19 b 776 331 635 -19 776 118 l 776 349 b 429 699 776 561 635 699 b 82 349 224 699 82 561 z m 192 346 b 429 600 192 501 285 600 b 667 346 572 600 667 501 l 667 333 b 429 79 667 178 572 79 b 192 333 286 79 192 178 z "},"ô":{"ha":858,"x_min":0,"x_max":0,"o":"m 314 771 l 419 888 l 439 888 l 544 771 l 668 771 l 497 960 l 361 960 l 190 771 z m 82 349 l 82 331 b 429 -19 82 118 224 -19 b 776 331 635 -19 776 118 l 776 349 b 429 699 776 561 635 699 b 82 349 224 699 82 561 z m 192 346 b 429 600 192 501 285 600 b 667 346 572 600 667 501 l 667 333 b 429 79 667 178 572 79 b 192 333 286 79 192 178 z "},"õ":{"ha":858,"x_min":0,"x_max":0,"o":"m 206 799 l 275 758 l 310 818 b 353 849 321 836 332 849 b 413 804 374 849 390 829 b 510 753 444 768 471 753 b 607 813 553 753 586 775 l 650 892 l 581 932 l 546 872 b 503 840 535 854 524 840 b 443 886 482 840 465 860 b 346 936 411 922 385 936 b 249 876 303 936 269 914 z m 82 349 l 82 331 b 429 -19 82 118 224 -19 b 776 331 635 -19 776 118 l 776 349 b 429 699 776 561 635 699 b 82 349 224 699 82 561 z m 192 346 b 429 600 192 501 285 600 b 667 346 572 600 667 501 l 667 333 b 429 79 667 178 572 79 b 192 333 286 79 192 178 z "},"ö":{"ha":858,"x_min":0,"x_max":0,"o":"m 215 867 b 299 783 215 817 250 783 b 382 867 347 783 382 817 b 299 949 382 915 347 949 b 215 867 250 949 215 915 z m 476 867 b 560 783 476 817 511 783 b 642 867 607 783 642 817 b 560 949 642 915 607 949 b 476 867 511 949 476 915 z m 82 349 l 82 331 b 429 -19 82 118 224 -19 b 776 331 635 -19 776 118 l 776 349 b 429 699 776 561 635 699 b 82 349 224 699 82 561 z m 192 346 b 429 600 192 501 285 600 b 667 346 572 600 667 501 l 667 333 b 429 79 667 178 572 79 b 192 333 286 79 192 178 z "},"ō":{"ha":858,"x_min":0,"x_max":0,"o":"m 643 889 l 215 889 l 215 799 l 643 799 z m 82 349 l 82 331 b 429 -19 82 118 224 -19 b 776 331 635 -19 776 118 l 776 349 b 429 699 776 561 635 699 b 82 349 224 699 82 561 z m 192 346 b 429 600 192 501 285 600 b 667 346 572 600 667 501 l 667 333 b 429 79 667 178 572 79 b 192 333 286 79 192 178 z "},"ő":{"ha":858,"x_min":0,"x_max":0,"o":"m 336 960 l 256 771 l 353 771 l 451 960 z m 554 960 l 458 771 l 557 771 l 676 960 z m 82 349 l 82 331 b 429 -19 82 118 224 -19 b 776 331 635 -19 776 118 l 776 349 b 429 699 776 561 635 699 b 82 349 224 699 82 561 z m 192 346 b 429 600 192 501 285 600 b 667 346 572 600 667 501 l 667 333 b 429 79 667 178 572 79 b 192 333 286 79 192 178 z "},"ŏ":{"ha":858,"x_min":0,"x_max":0,"o":"m 535 960 l 535 953 b 429 847 535 892 500 847 b 322 953 357 847 322 892 l 322 960 l 225 960 l 225 951 b 429 767 225 835 306 767 b 632 951 551 767 632 835 l 632 960 z m 82 349 l 82 331 b 429 -19 82 118 224 -19 b 776 331 635 -19 776 118 l 776 349 b 429 699 776 561 635 699 b 82 349 224 699 82 561 z m 192 346 b 429 600 192 501 285 600 b 667 346 572 600 667 501 l 667 333 b 429 79 667 178 572 79 b 192 333 286 79 192 178 z "},"ø":{"ha":858,"x_min":0,"x_max":0,"o":"m 82 349 l 82 331 b 211 47 82 207 131 108 l 157 -44 l 225 -86 l 281 8 b 429 -19 325 -10 375 -19 b 776 331 635 -19 776 118 l 776 349 b 650 629 776 471 729 569 l 700 715 l 632 757 l 581 669 b 429 699 536 689 485 699 b 82 349 224 699 82 561 z m 192 346 b 429 600 192 501 285 600 b 528 582 465 600 499 593 l 265 139 b 192 333 218 183 192 250 z m 667 346 l 667 333 b 429 79 667 178 572 79 b 333 96 394 79 361 85 l 594 538 b 667 346 640 493 667 428 z "},"œ":{"ha":1419,"x_min":0,"x_max":0,"o":"m 82 349 l 82 329 b 425 -19 82 118 222 -19 b 715 156 564 -19 665 46 l 733 156 b 1028 -19 783 50 889 -19 b 1329 169 1208 -19 1286 82 l 1233 214 b 1026 78 1200 139 1144 78 b 790 313 892 78 796 168 l 1343 313 l 1343 361 b 1018 699 1343 568 1210 699 b 733 524 892 699 788 631 l 715 524 b 425 699 665 633 564 699 b 82 349 222 699 82 561 z m 792 401 b 1017 600 806 522 893 600 b 1231 401 1139 600 1224 528 z m 190 346 b 429 599 190 500 285 599 b 667 346 572 599 667 500 l 667 333 b 429 79 667 178 571 79 b 190 333 286 79 190 178 z "},"ŕ":{"ha":524,"x_min":0,"x_max":0,"o":"m 329 960 l 222 771 l 328 771 l 461 960 z m 222 679 l 115 679 l 115 0 l 225 0 l 225 414 b 389 582 225 528 290 582 l 476 582 l 476 682 l 396 682 b 242 596 314 682 265 656 l 222 596 z "},"ř":{"ha":524,"x_min":0,"x_max":0,"o":"m 410 960 l 304 844 l 286 844 l 181 960 l 56 960 l 228 771 l 363 771 l 535 960 z m 222 679 l 115 679 l 115 0 l 225 0 l 225 414 b 389 582 225 528 290 582 l 476 582 l 476 682 l 396 682 b 242 596 314 682 265 656 l 222 596 z "},"ṝ":{"ha":524,"x_min":0,"x_max":0,"o":"m 510 889 l 81 889 l 81 799 l 510 799 z m 222 679 l 115 679 l 115 0 l 225 0 l 225 414 b 389 582 225 528 290 582 l 476 582 l 476 682 l 396 682 b 242 596 314 682 265 656 l 222 596 z m 88 -187 b 171 -272 88 -237 122 -272 b 254 -187 219 -272 254 -237 b 171 -104 254 -139 219 -104 b 88 -187 122 -104 88 -139 z "},"ś":{"ha":732,"x_min":0,"x_max":0,"o":"m 396 960 l 289 771 l 394 771 l 528 960 z m 101 504 b 339 304 101 382 206 328 l 396 294 b 554 185 494 276 554 254 b 389 72 554 115 490 72 b 175 247 286 72 194 114 l 71 224 b 389 -19 94 56 219 -19 b 663 189 556 -19 663 56 b 407 390 663 321 550 365 l 350 400 b 210 506 264 415 210 440 b 360 607 210 571 267 607 b 536 474 451 607 519 571 l 639 500 b 360 699 611 626 513 699 b 101 504 204 699 101 626 z "},"ŝ":{"ha":732,"x_min":0,"x_max":0,"o":"m 247 771 l 353 888 l 372 888 l 478 771 l 601 771 l 431 960 l 294 960 l 124 771 z m 101 504 b 339 304 101 382 206 328 l 396 294 b 554 185 494 276 554 254 b 389 72 554 115 490 72 b 175 247 286 72 194 114 l 71 224 b 389 -19 94 56 219 -19 b 663 189 556 -19 663 56 b 407 390 663 321 550 365 l 350 400 b 210 506 264 415 210 440 b 360 607 210 571 267 607 b 536 474 451 607 519 571 l 639 500 b 360 699 611 626 513 699 b 101 504 204 699 101 626 z "},"š":{"ha":732,"x_min":0,"x_max":0,"o":"m 478 960 l 372 844 l 353 844 l 247 960 l 124 960 l 294 771 l 431 771 l 601 960 z m 101 504 b 339 304 101 382 206 328 l 396 294 b 554 185 494 276 554 254 b 389 72 554 115 490 72 b 175 247 286 72 194 114 l 71 224 b 389 -19 94 56 219 -19 b 663 189 556 -19 663 56 b 407 390 663 321 550 365 l 350 400 b 210 506 264 415 210 440 b 360 607 210 571 267 607 b 536 474 451 607 519 571 l 639 500 b 360 699 611 626 513 699 b 101 504 204 699 101 626 z "},"ş":{"ha":732,"x_min":0,"x_max":0,"o":"m 101 504 b 339 304 101 382 206 328 l 396 294 b 554 185 494 276 554 254 b 389 72 554 115 490 72 b 175 247 286 72 194 114 l 71 224 b 336 -17 92 74 194 -3 l 326 -117 l 378 -117 b 446 -161 421 -117 446 -132 b 378 -208 446 -194 417 -208 b 268 -175 335 -208 300 -193 l 235 -244 b 381 -285 272 -268 324 -285 b 533 -171 463 -285 533 -249 b 413 -62 533 -101 485 -62 l 417 -18 b 663 189 568 -11 663 64 b 407 390 663 321 550 365 l 350 400 b 210 506 264 415 210 440 b 360 607 210 571 267 607 b 536 474 451 607 519 571 l 639 500 b 360 699 611 626 513 699 b 101 504 204 699 101 626 z "},"ß":{"ha":872,"x_min":0,"x_max":0,"o":"m 115 0 l 224 0 l 224 618 b 461 897 224 822 351 897 b 624 775 553 897 624 851 b 511 624 624 701 569 658 b 418 496 456 590 418 558 b 519 374 418 444 450 403 l 571 351 b 724 203 650 317 724 282 b 568 74 724 122 664 74 b 381 225 468 74 400 122 l 279 199 b 568 -19 300 68 404 -19 b 832 201 729 -19 832 68 b 624 433 832 333 733 386 l 572 457 b 529 503 543 468 529 485 b 567 549 529 521 539 535 b 732 778 656 600 732 658 b 461 992 732 897 624 992 b 115 613 257 992 115 851 z "},"ſ":{"ha":478,"x_min":0,"x_max":0,"o":"m 40 679 l 40 583 l 193 583 l 193 0 l 303 0 l 303 836 b 344 878 303 864 315 878 l 481 878 l 481 972 l 314 972 b 193 853 236 972 193 926 l 193 679 z "},"ť":{"ha":639,"x_min":0,"x_max":0,"o":"m 492 1046 l 479 788 l 561 788 l 604 1046 z m 40 583 l 244 583 l 244 119 b 365 0 244 46 288 0 l 546 0 l 546 96 l 394 96 b 354 138 365 96 354 110 l 354 583 l 576 583 l 576 679 l 354 679 l 354 921 l 244 921 l 244 679 l 40 679 z "},"ŧ":{"ha":639,"x_min":0,"x_max":0,"o":"m 40 583 l 244 583 l 244 386 l 40 386 l 40 304 l 244 304 l 244 118 b 363 0 244 44 290 0 l 546 0 l 546 96 l 393 96 b 354 138 367 96 354 110 l 354 304 l 576 304 l 576 386 l 354 386 l 354 583 l 576 583 l 576 679 l 354 679 l 354 921 l 244 921 l 244 679 l 40 679 z "},"ù":{"ha":850,"x_min":0,"x_max":0,"o":"m 389 972 l 256 972 l 389 782 l 494 782 z m 736 0 l 736 679 l 626 679 l 626 338 b 404 83 626 169 533 83 b 217 276 289 83 217 142 l 217 679 l 107 679 l 107 268 b 375 -12 107 86 225 -12 b 610 115 514 -12 579 50 l 629 115 l 629 0 z "},"ú":{"ha":850,"x_min":0,"x_max":0,"o":"m 454 960 l 349 771 l 454 771 l 588 960 z m 736 0 l 736 679 l 626 679 l 626 338 b 404 83 626 169 533 83 b 217 276 289 83 217 142 l 217 679 l 107 679 l 107 268 b 375 -12 107 86 225 -12 b 610 115 514 -12 579 50 l 629 115 l 629 0 z "},"û":{"ha":850,"x_min":0,"x_max":0,"o":"m 306 771 l 411 888 l 431 888 l 536 771 l 660 771 l 489 960 l 353 960 l 182 771 z m 736 0 l 736 679 l 626 679 l 626 338 b 404 83 626 169 533 83 b 217 276 289 83 217 142 l 217 679 l 107 679 l 107 268 b 375 -12 107 86 225 -12 b 610 115 514 -12 579 50 l 629 115 l 629 0 z "},"ũ":{"ha":850,"x_min":0,"x_max":0,"o":"m 199 799 l 268 758 l 301 818 b 344 849 313 836 324 849 b 404 804 365 849 382 829 b 501 753 436 768 463 753 b 599 813 546 753 578 775 l 642 892 l 572 932 l 538 872 b 494 840 528 854 515 840 b 435 886 474 840 458 860 b 338 936 403 922 376 936 b 242 876 294 936 263 914 z m 736 0 l 736 679 l 626 679 l 626 338 b 404 83 626 169 533 83 b 217 276 289 83 217 142 l 217 679 l 107 679 l 107 268 b 375 -12 107 86 225 -12 b 610 115 514 -12 579 50 l 629 115 l 629 0 z "},"ü":{"ha":850,"x_min":0,"x_max":0,"o":"m 208 867 b 290 783 208 817 243 783 b 374 867 339 783 374 817 b 290 949 374 915 339 949 b 208 867 243 949 208 915 z m 468 867 b 551 783 468 817 503 783 b 635 867 600 783 635 817 b 551 949 635 915 600 949 b 468 867 503 949 468 915 z m 736 0 l 736 679 l 626 679 l 626 338 b 404 83 626 169 533 83 b 217 276 289 83 217 142 l 217 679 l 107 679 l 107 268 b 375 -12 107 86 225 -12 b 610 115 514 -12 579 50 l 629 115 l 629 0 z "},"ū":{"ha":850,"x_min":0,"x_max":0,"o":"m 635 889 l 207 889 l 207 799 l 635 799 z m 736 0 l 736 679 l 626 679 l 626 338 b 404 83 626 169 533 83 b 217 276 289 83 217 142 l 217 679 l 107 679 l 107 268 b 375 -12 107 86 225 -12 b 610 115 514 -12 579 50 l 629 115 l 629 0 z "},"ŭ":{"ha":850,"x_min":0,"x_max":0,"o":"m 526 960 l 526 953 b 421 847 526 892 492 847 b 314 953 349 847 314 892 l 314 960 l 217 960 l 217 951 b 421 767 217 835 297 767 b 624 951 543 767 624 835 l 624 960 z m 736 0 l 736 679 l 626 679 l 626 338 b 404 83 626 169 533 83 b 217 276 289 83 217 142 l 217 679 l 107 679 l 107 268 b 375 -12 107 86 225 -12 b 610 115 514 -12 579 50 l 629 115 l 629 0 z "},"ů":{"ha":850,"x_min":0,"x_max":0,"o":"m 285 886 b 421 754 285 808 344 754 b 558 886 497 754 558 807 b 421 1019 558 965 499 1019 b 285 886 344 1019 285 965 z m 361 886 b 421 946 361 921 385 946 b 482 886 458 946 482 921 b 421 828 482 851 458 828 b 361 886 385 828 361 851 z m 736 0 l 736 679 l 626 679 l 626 338 b 404 83 626 169 533 83 b 217 276 289 83 217 142 l 217 679 l 107 679 l 107 268 b 375 -12 107 86 225 -12 b 610 115 514 -12 579 50 l 629 115 l 629 0 z "},"ű":{"ha":850,"x_min":0,"x_max":0,"o":"m 329 960 l 249 771 l 344 771 l 444 960 z m 546 960 l 451 771 l 550 771 l 668 960 z m 736 0 l 736 679 l 626 679 l 626 338 b 404 83 626 169 533 83 b 217 276 289 83 217 142 l 217 679 l 107 679 l 107 268 b 375 -12 107 86 225 -12 b 610 115 514 -12 579 50 l 629 115 l 629 0 z "},"ų":{"ha":850,"x_min":0,"x_max":0,"o":"m 736 0 l 736 679 l 626 679 l 626 338 b 404 83 626 169 533 83 b 217 276 289 83 217 142 l 217 679 l 107 679 l 107 268 b 375 -12 107 86 225 -12 b 610 115 514 -12 579 50 l 629 115 l 629 0 l 639 0 l 626 -54 b 614 -137 619 -83 614 -111 b 713 -228 614 -196 651 -228 l 792 -228 l 792 -143 l 733 -143 b 701 -115 713 -143 701 -133 b 707 -78 701 -103 704 -94 l 722 0 z "},"ŵ":{"ha":1113,"x_min":0,"x_max":0,"o":"m 442 771 l 547 888 l 565 888 l 671 771 l 796 771 l 624 960 l 489 960 l 317 771 z m 74 679 l 210 0 l 397 0 l 547 606 l 565 606 l 715 0 l 903 0 l 1039 679 l 928 679 l 815 74 l 796 74 l 647 679 l 465 679 l 317 74 l 297 74 l 185 679 z "},"ý":{"ha":850,"x_min":0,"x_max":0,"o":"m 456 960 l 349 771 l 454 771 l 588 960 z m 197 -181 l 197 -278 l 614 -278 b 736 -158 692 -278 736 -232 l 736 679 l 626 679 l 626 338 b 404 83 626 168 533 83 b 217 275 289 83 217 140 l 217 679 l 107 679 l 107 267 b 375 -12 107 85 225 -12 b 607 108 514 -12 578 49 l 626 108 l 626 -139 b 586 -181 626 -167 615 -181 z "},"ŷ":{"ha":850,"x_min":0,"x_max":0,"o":"m 307 771 l 413 888 l 432 888 l 538 771 l 661 771 l 490 960 l 354 960 l 183 771 z m 197 -181 l 197 -278 l 614 -278 b 736 -158 692 -278 736 -232 l 736 679 l 626 679 l 626 338 b 404 83 626 168 533 83 b 217 275 289 83 217 140 l 217 679 l 107 679 l 107 267 b 375 -12 107 85 225 -12 b 607 108 514 -12 578 49 l 626 108 l 626 -139 b 586 -181 626 -167 615 -181 z "},"ÿ":{"ha":850,"x_min":0,"x_max":0,"o":"m 208 867 b 292 783 208 817 243 783 b 375 867 340 783 375 817 b 292 949 375 915 340 949 b 208 867 243 949 208 915 z m 469 867 b 553 783 469 817 504 783 b 635 867 600 783 635 817 b 553 949 635 915 600 949 b 469 867 504 949 469 915 z m 197 -181 l 197 -278 l 614 -278 b 736 -158 692 -278 736 -232 l 736 679 l 626 679 l 626 338 b 404 83 626 168 533 83 b 217 275 289 83 217 140 l 217 679 l 107 679 l 107 267 b 375 -12 107 85 225 -12 b 607 108 514 -12 578 49 l 626 108 l 626 -139 b 586 -181 626 -167 615 -181 z "},"ź":{"ha":724,"x_min":0,"x_max":0,"o":"m 388 960 l 281 771 l 386 771 l 519 960 z m 99 679 l 99 583 l 517 583 l 517 568 l 85 142 l 85 0 l 643 0 l 643 96 l 199 96 l 199 111 l 632 538 l 632 679 z "},"ž":{"ha":724,"x_min":0,"x_max":0,"o":"m 469 960 l 364 844 l 344 844 l 239 960 l 115 960 l 286 771 l 422 771 l 593 960 z m 99 679 l 99 583 l 517 583 l 517 568 l 85 142 l 85 0 l 643 0 l 643 96 l 199 96 l 199 111 l 632 538 l 632 679 z "},"ż":{"ha":724,"x_min":0,"x_max":0,"o":"m 271 868 b 354 785 271 819 306 785 b 438 868 403 785 438 819 b 354 953 438 918 403 953 b 271 868 306 953 271 918 z m 99 679 l 99 583 l 517 583 l 517 568 l 85 142 l 85 0 l 643 0 l 643 96 l 199 96 l 199 111 l 632 538 l 632 679 z "},"þ":{"ha":892,"x_min":0,"x_max":0,"o":"m 115 -278 l 224 -278 l 224 106 l 242 106 b 490 -19 278 43 349 -19 b 810 331 668 -19 810 113 l 810 349 b 490 699 810 565 668 699 b 242 572 349 699 278 635 l 224 572 l 224 972 l 115 972 z m 463 78 b 224 333 324 78 224 172 l 224 346 b 463 601 224 507 324 601 b 700 346 603 601 700 507 l 700 333 b 463 78 700 172 603 78 z "},"ŋ":{"ha":851,"x_min":0,"x_max":0,"o":"m 115 679 l 115 0 l 225 0 l 225 342 b 447 596 225 510 317 596 b 635 403 561 596 635 538 l 635 -139 b 596 -181 635 -167 621 -181 l 451 -181 l 451 -278 l 631 -278 b 744 -161 701 -278 744 -233 l 744 411 b 475 692 744 593 625 692 b 242 564 336 692 271 629 l 222 564 l 222 679 z "},"ĳ":{"ha":682,"x_min":0,"x_max":0,"o":"m 86 868 b 169 785 86 819 122 785 b 254 868 218 785 254 819 b 169 953 254 918 218 953 b 86 868 122 953 86 918 z m 429 868 b 513 785 429 819 464 785 b 596 868 561 785 596 819 b 513 953 596 918 561 953 b 429 868 464 953 429 918 z m 225 679 l 115 679 l 115 0 l 225 0 z m 568 679 l 457 679 l 457 -139 b 417 -181 457 -167 446 -181 l 321 -181 l 321 -278 l 446 -278 b 568 -158 524 -278 568 -232 z "},"":{"ha":682,"x_min":0,"x_max":0,"o":"m 204 960 l 97 771 l 203 771 l 336 960 z m 546 960 l 439 771 l 544 771 l 678 960 z m 225 679 l 115 679 l 115 0 l 225 0 z m 568 679 l 457 679 l 457 -139 b 417 -181 457 -167 446 -181 l 321 -181 l 321 -278 l 446 -278 b 568 -158 524 -278 568 -232 z "},"ɑ":{"ha":921,"x_min":0,"x_max":0,"o":"m 672 679 l 672 567 l 653 567 b 403 699 615 635 544 699 b 82 349 226 699 82 567 l 82 331 b 403 -19 82 114 225 -19 b 657 118 547 -19 619 46 l 675 118 l 675 110 b 779 0 675 42 714 0 l 881 0 l 881 93 l 818 93 b 779 135 793 93 779 107 l 779 679 z m 432 78 b 193 333 292 78 193 172 l 193 346 b 432 601 193 507 292 601 b 669 346 571 601 669 507 l 669 333 b 432 78 669 172 572 78 z "},"π":{"ha":831,"x_min":0,"x_max":0,"o":"m 283 0 l 283 583 l 529 583 l 529 119 b 651 0 529 46 574 0 l 740 0 l 740 96 l 681 96 b 640 138 651 96 640 110 l 640 583 l 740 583 l 740 679 l 74 679 l 74 583 l 174 583 l 174 0 z "},"ª":{"ha":583,"x_min":0,"x_max":0,"o":"m 56 624 b 239 472 56 524 136 472 b 392 554 333 472 374 518 l 408 554 b 488 486 408 511 439 486 l 553 486 l 553 558 l 508 558 b 481 589 490 558 481 568 l 481 796 b 282 982 481 915 404 982 b 68 838 158 982 90 915 l 151 815 b 281 908 164 865 201 908 b 394 799 358 908 394 865 l 394 768 l 239 768 b 56 624 138 768 56 724 z m 142 625 b 244 699 142 676 183 699 l 394 699 l 394 686 b 250 547 394 592 340 547 b 142 625 183 547 142 575 z "},"º":{"ha":607,"x_min":0,"x_max":0,"o":"m 54 728 b 304 472 54 567 154 472 b 553 728 453 472 553 567 b 304 982 553 888 453 982 b 54 728 154 982 54 888 z m 143 728 b 304 908 143 839 207 908 b 465 728 400 908 465 839 b 304 546 465 615 400 546 b 143 728 207 546 143 615 z "},"†":{"ha":792,"x_min":0,"x_max":0,"o":"m 104 582 l 340 582 l 340 0 l 451 0 l 451 582 l 688 582 l 688 679 l 451 679 l 451 972 l 340 972 l 340 679 l 104 679 z "},"‡":{"ha":792,"x_min":0,"x_max":0,"o":"m 104 268 l 340 268 l 340 0 l 451 0 l 451 268 l 688 268 l 688 365 l 451 365 l 451 610 l 688 610 l 688 707 l 451 707 l 451 972 l 340 972 l 340 707 l 104 707 l 104 610 l 340 610 l 340 365 l 104 365 z "},"§":{"ha":692,"x_min":0,"x_max":0,"o":"m 92 785 l 92 778 b 129 661 92 732 104 693 b 92 547 101 628 92 592 b 339 338 92 429 171 367 b 513 206 463 317 513 285 b 357 75 513 128 457 75 b 163 261 231 75 163 147 l 163 283 l 60 283 l 60 256 b 356 -19 60 86 172 -19 b 617 207 526 -19 617 75 l 617 217 b 585 328 617 258 606 294 b 618 444 608 361 618 399 b 381 644 618 558 536 613 b 196 783 268 668 196 696 b 343 897 196 860 261 897 b 507 758 435 897 507 849 l 507 722 l 610 722 l 610 767 b 340 992 610 911 499 992 b 92 785 203 992 92 915 z m 376 431 b 196 547 250 451 196 481 b 210 596 196 568 201 583 b 340 556 244 581 289 564 b 514 439 460 532 514 504 b 501 393 514 419 508 404 b 376 431 468 410 435 419 z "},"¶":{"ha":801,"x_min":0,"x_max":0,"o":"m 38 706 l 38 690 b 342 424 38 526 164 424 l 363 424 l 363 0 l 465 0 l 465 876 l 588 876 l 588 0 l 690 0 l 690 972 l 344 972 b 38 706 167 972 38 872 z m 140 703 b 340 876 140 804 210 876 l 363 876 l 363 518 l 340 518 b 140 694 210 518 140 592 z "},"©":{"ha":978,"x_min":0,"x_max":0,"o":"m 83 563 l 83 410 b 481 -17 83 121 240 -17 l 499 -17 b 894 410 740 -17 894 121 l 894 563 b 499 989 894 851 740 989 l 481 989 b 83 563 240 989 83 851 z m 181 563 b 483 899 181 794 293 899 l 497 899 b 799 563 688 899 799 794 l 799 410 b 497 74 799 178 688 74 l 483 74 b 181 410 293 74 181 178 z m 293 565 l 293 404 b 497 185 293 260 372 185 b 690 385 626 185 690 267 l 690 411 l 594 411 l 594 382 b 496 274 594 308 558 274 b 389 383 438 274 389 311 l 389 586 b 496 703 389 663 433 703 b 594 597 567 703 594 656 l 594 563 l 690 563 l 690 589 b 494 790 690 708 622 790 b 293 565 375 790 293 713 z "},"®":{"ha":738,"x_min":0,"x_max":0,"o":"m 78 703 b 369 414 78 533 203 414 b 661 703 536 414 661 533 b 369 992 661 872 536 992 b 78 703 203 992 78 872 z m 135 703 b 369 938 135 844 228 938 b 604 703 510 938 604 844 b 369 468 604 561 510 468 b 135 703 228 468 135 561 z m 269 860 l 269 551 l 324 551 l 324 665 l 397 665 b 426 636 415 665 426 654 l 426 551 l 481 551 l 481 638 b 436 686 481 663 467 683 l 436 697 b 492 775 475 711 492 738 b 388 860 492 819 456 860 z m 324 811 l 389 811 b 438 764 419 811 438 789 b 389 715 438 738 419 715 l 324 715 z "},"™":{"ha":786,"x_min":0,"x_max":0,"o":"m 54 972 l 54 924 l 160 924 l 160 664 l 214 664 l 214 924 l 318 924 l 318 972 z m 360 972 l 360 664 l 414 664 l 414 924 l 424 924 l 496 664 l 579 664 l 650 924 l 660 924 l 660 664 l 715 664 l 715 972 l 613 972 l 542 714 l 532 714 l 463 972 z "},"℠":{"ha":778,"x_min":0,"x_max":0,"o":"m 181 978 b 74 890 114 978 74 947 b 169 800 74 833 108 813 l 183 797 b 246 750 225 789 246 778 b 186 706 246 725 226 706 b 119 764 144 706 119 726 l 119 776 l 67 776 l 67 764 b 186 658 67 697 114 658 b 300 753 257 658 300 696 b 197 843 300 814 256 832 l 183 846 b 128 892 144 854 128 868 b 181 931 128 915 144 931 b 239 879 218 931 239 914 l 239 865 l 292 865 l 292 879 b 181 978 292 946 246 978 z m 351 972 l 351 664 l 406 664 l 406 924 l 415 924 l 488 664 l 571 664 l 642 924 l 651 924 l 651 664 l 707 664 l 707 972 l 604 972 l 533 714 l 524 714 l 454 972 z "},"#":{"ha":872,"x_min":0,"x_max":0,"o":"m 60 689 l 60 593 l 235 593 l 235 379 l 60 379 l 60 283 l 235 283 l 235 0 l 336 0 l 336 283 l 535 283 l 535 0 l 636 0 l 636 283 l 813 283 l 813 379 l 636 379 l 636 593 l 813 593 l 813 689 l 636 689 l 636 972 l 535 972 l 535 689 l 336 689 l 336 972 l 235 972 l 235 689 z m 336 593 l 535 593 l 535 379 l 336 379 z "},"¤":{"ha":861,"x_min":0,"x_max":0,"o":"m 71 775 l 153 692 b 83 486 107 636 83 563 b 153 281 83 408 107 338 l 71 199 l 143 126 l 225 208 b 431 139 282 163 353 139 b 636 208 507 139 581 163 l 719 126 l 792 199 l 708 281 b 778 486 751 338 778 408 b 708 692 778 563 751 636 l 792 775 l 719 847 l 636 764 b 431 833 581 807 507 833 b 225 764 353 833 282 807 l 143 847 z m 185 486 b 431 736 185 631 292 736 b 676 486 568 736 676 632 b 431 238 676 342 569 238 b 185 486 293 238 185 340 z "},"$":{"ha":851,"x_min":0,"x_max":0,"o":"m 489 1133 l 382 1133 l 382 990 b 90 726 207 978 90 879 b 379 454 90 563 208 496 l 382 454 l 382 86 b 182 321 261 103 182 179 l 182 350 l 67 350 l 67 321 b 382 -17 67 113 197 1 l 382 -161 l 489 -161 l 489 -17 b 783 265 669 1 783 108 b 489 539 783 435 654 499 l 489 883 b 650 692 585 865 650 806 l 650 633 l 765 633 l 765 692 b 489 988 765 865 650 965 z m 207 728 b 382 888 207 821 275 878 l 382 565 b 207 728 271 594 207 632 z m 668 263 b 489 86 668 171 606 103 l 489 428 b 668 263 599 397 668 358 z "},"£":{"ha":872,"x_min":0,"x_max":0,"o":"m 88 521 l 88 428 l 185 428 l 185 101 l 82 101 l 82 0 l 783 0 l 783 101 l 297 101 l 297 428 l 471 428 l 471 521 l 297 521 l 297 693 b 481 890 297 815 363 890 b 665 693 599 890 665 815 l 665 610 l 776 610 l 776 693 b 481 992 776 888 664 992 b 185 693 299 992 185 888 l 185 521 z "},"¥":{"ha":861,"x_min":0,"x_max":0,"o":"m 147 303 l 147 210 l 372 210 l 372 0 l 489 0 l 489 210 l 714 210 l 714 303 l 489 303 l 489 383 l 714 383 l 714 476 l 551 476 l 839 972 l 703 972 l 440 507 l 421 507 l 158 972 l 22 972 l 310 476 l 147 476 l 147 383 l 372 383 l 372 303 z "},"¢":{"ha":832,"x_min":0,"x_max":0,"o":"m 83 347 l 83 332 b 381 -17 83 132 208 3 l 381 -161 l 483 -161 l 483 -17 b 760 239 644 4 733 115 l 653 263 b 483 83 638 174 583 101 l 483 596 b 647 417 583 576 636 503 l 754 439 b 483 696 735 563 644 675 l 483 850 l 381 850 l 381 696 b 83 347 208 676 83 547 z m 193 333 l 193 346 b 381 596 193 483 271 575 l 381 83 b 193 333 271 104 193 196 z "},"⁄":{"ha":904,"x_min":0,"x_max":0,"o":"m 33 38 l 99 -15 l 871 935 l 806 988 z "},"%":{"ha":1072,"x_min":0,"x_max":0,"o":"m 113 40 l 188 -19 l 960 932 l 886 992 z m 49 771 l 49 763 b 269 543 49 628 135 543 b 490 763 403 543 490 628 l 490 771 b 269 990 490 906 403 990 b 49 771 135 990 49 906 z m 142 775 b 269 910 142 856 190 910 b 397 775 347 910 397 856 l 397 758 b 269 624 397 678 347 624 b 142 758 190 624 142 678 z m 582 210 l 582 201 b 804 -18 582 67 669 -18 b 1025 201 938 -18 1025 67 l 1025 210 b 804 429 1025 344 936 429 b 582 210 669 429 582 344 z m 676 214 b 804 349 676 294 725 349 b 931 214 882 349 931 294 l 931 197 b 804 63 931 117 882 63 b 676 197 725 63 676 117 z "},"‰":{"ha":1365,"x_min":0,"x_max":0,"o":"m 113 40 l 188 -19 l 960 932 l 886 992 z m 49 771 l 49 763 b 269 543 49 628 135 543 b 490 763 403 543 490 628 l 490 771 b 269 990 490 906 403 990 b 49 771 135 990 49 906 z m 142 775 b 269 910 142 856 190 910 b 397 775 347 910 397 856 l 397 758 b 269 624 397 678 347 624 b 142 758 190 624 142 678 z m 583 211 l 583 200 b 781 -18 583 65 660 -18 b 942 72 856 -18 911 15 l 960 72 b 1119 -18 990 15 1044 -18 b 1318 200 1240 -18 1318 65 l 1318 211 b 1119 429 1318 344 1240 429 b 960 340 1046 429 990 396 l 942 340 b 781 429 910 396 856 429 b 583 211 660 429 583 344 z m 675 214 b 789 347 675 294 718 347 b 904 214 861 347 904 294 l 904 201 b 789 64 904 119 861 64 b 675 197 718 64 675 115 z m 1226 214 l 1226 197 b 1111 64 1226 115 1182 64 b 996 201 1040 64 996 119 l 996 214 b 1111 347 996 294 1040 347 b 1226 214 1182 347 1226 294 z "},"¼":{"ha":1132,"x_min":0,"x_max":0,"o":"m 94 38 l 160 -15 l 932 935 l 867 988 z m 138 972 l 26 756 l 115 756 l 176 879 l 194 879 l 194 486 l 281 486 l 281 972 z m 853 486 l 615 204 l 615 115 l 915 115 l 915 0 l 1001 0 l 1001 115 l 1108 115 l 1108 189 l 1001 189 l 1001 486 z m 897 418 l 915 418 l 915 189 l 717 189 l 717 204 z "},"½":{"ha":1143,"x_min":0,"x_max":0,"o":"m 94 38 l 160 -15 l 932 935 l 867 988 z m 138 972 l 26 756 l 115 756 l 176 879 l 194 879 l 194 486 l 281 486 l 281 972 z m 676 326 l 764 321 b 896 431 769 397 822 431 b 1014 342 967 431 1014 394 b 865 235 1014 285 967 257 b 674 43 735 204 674 143 l 674 0 l 1097 0 l 1097 74 l 765 74 b 915 171 771 125 815 147 b 1100 342 1032 197 1100 240 b 896 504 1100 442 1017 504 b 676 326 774 504 688 446 z "},"¾":{"ha":1243,"x_min":0,"x_max":0,"o":"m 206 38 l 271 -15 l 1043 935 l 978 988 z m 125 650 l 38 642 b 260 468 44 529 140 468 b 475 635 382 468 475 535 b 296 781 475 733 407 776 l 296 796 l 474 885 l 474 972 l 49 972 l 49 899 l 342 899 l 342 883 l 172 800 l 172 724 l 257 724 b 388 636 342 724 388 697 b 260 542 388 581 336 542 b 125 650 188 542 131 579 z m 963 486 l 726 204 l 726 115 l 1025 115 l 1025 0 l 1113 0 l 1113 115 l 1218 115 l 1218 189 l 1113 189 l 1113 486 z m 1007 418 l 1025 418 l 1025 189 l 828 189 l 828 204 z "},"⅓":{"ha":1193,"x_min":0,"x_max":0,"o":"m 94 38 l 160 -15 l 932 935 l 867 988 z m 138 972 l 26 756 l 115 756 l 176 879 l 194 879 l 194 486 l 281 486 l 281 972 z m 794 164 l 707 156 b 931 -18 715 43 810 -18 b 1144 149 1053 -18 1144 49 b 965 294 1144 247 1078 290 l 965 310 l 1143 399 l 1143 486 l 718 486 l 718 413 l 1011 413 l 1011 397 l 843 314 l 843 238 l 928 238 b 1057 150 1011 238 1057 211 b 931 56 1057 94 1006 56 b 794 164 858 56 800 93 z "},"⅔":{"ha":1329,"x_min":0,"x_max":0,"o":"m 42 813 l 129 807 b 260 917 135 883 188 917 b 379 828 332 917 379 881 b 231 721 379 771 332 743 b 38 529 100 690 38 629 l 38 486 l 463 486 l 463 560 l 131 560 b 281 657 136 611 181 633 b 465 828 397 683 465 726 b 260 990 465 928 382 990 b 42 813 139 990 53 932 z m 231 38 l 297 -15 l 1069 935 l 1003 988 z m 931 164 l 844 156 b 1067 -18 851 43 946 -18 b 1282 149 1189 -18 1282 49 b 1101 294 1282 247 1214 290 l 1101 310 l 1279 399 l 1279 486 l 854 486 l 854 413 l 1147 413 l 1147 397 l 979 314 l 979 238 l 1064 238 b 1194 150 1147 238 1194 211 b 1067 56 1194 94 1142 56 b 931 164 994 56 936 93 z "},"⅛":{"ha":1172,"x_min":0,"x_max":0,"o":"m 94 38 l 160 -15 l 932 935 l 867 988 z m 138 972 l 26 756 l 115 756 l 176 879 l 194 879 l 194 486 l 281 486 l 281 972 z m 690 368 b 776 258 690 299 742 268 l 776 242 b 682 126 738 232 682 203 b 901 -18 682 42 763 -18 b 1121 126 1042 -18 1121 42 b 1026 242 1121 203 1065 232 l 1026 258 b 1113 368 1061 268 1113 299 b 901 504 1113 451 1029 504 b 690 368 775 504 690 451 z m 776 358 b 901 431 776 404 824 431 b 1026 358 979 431 1026 404 b 901 285 1026 313 979 285 b 776 358 824 285 776 313 z m 768 133 b 901 211 768 185 819 211 b 1035 133 985 211 1035 185 b 901 56 1035 82 985 56 b 768 133 819 56 768 82 z "},"⅜":{"ha":1282,"x_min":0,"x_max":0,"o":"m 206 38 l 271 -15 l 1043 935 l 978 988 z m 125 650 l 38 642 b 260 468 44 529 140 468 b 475 635 382 468 475 535 b 296 781 475 733 407 776 l 296 796 l 474 885 l 474 972 l 49 972 l 49 899 l 342 899 l 342 883 l 172 800 l 172 724 l 257 724 b 388 636 342 724 388 697 b 260 542 388 581 336 542 b 125 650 188 542 131 579 z m 801 368 b 888 258 801 299 851 268 l 888 242 b 793 126 847 232 793 203 b 1013 -18 793 42 872 -18 b 1232 126 1151 -18 1232 42 b 1136 242 1232 203 1176 232 l 1136 258 b 1224 368 1172 268 1224 299 b 1013 504 1224 451 1139 504 b 801 368 885 504 801 451 z m 888 358 b 1013 431 888 404 935 431 b 1136 358 1089 431 1136 404 b 1013 285 1136 313 1089 285 b 888 358 935 285 888 313 z m 879 133 b 1013 211 879 185 929 211 b 1144 133 1094 211 1144 185 b 1013 56 1144 82 1094 56 b 879 133 929 56 879 82 z "},"⅝":{"ha":1275,"x_min":0,"x_max":0,"o":"m 197 38 l 264 -15 l 1036 935 l 969 988 z m 133 636 l 46 628 b 265 468 57 536 135 468 b 476 647 399 468 476 542 b 297 814 476 754 399 814 b 164 767 219 814 183 783 l 146 767 l 146 899 l 463 899 l 463 972 l 60 972 l 60 694 l 164 694 b 275 743 181 711 211 743 b 389 646 339 743 389 708 b 265 542 389 586 342 542 b 133 636 189 542 142 583 z m 793 368 b 881 258 793 299 844 268 l 881 242 b 785 126 840 232 785 203 b 1004 -18 785 42 865 -18 b 1224 126 1144 -18 1224 42 b 1129 242 1224 203 1169 232 l 1129 258 b 1215 368 1165 268 1215 299 b 1004 504 1215 451 1132 504 b 793 368 878 504 793 451 z m 881 358 b 1004 431 881 404 928 431 b 1129 358 1082 431 1129 404 b 1004 285 1129 313 1082 285 b 881 358 928 285 881 313 z m 872 133 b 1004 211 872 185 922 211 b 1138 133 1088 211 1138 185 b 1004 56 1138 82 1088 56 b 872 133 922 56 872 82 z "},"⅞":{"ha":1168,"x_min":0,"x_max":0,"o":"m 90 38 l 156 -15 l 928 935 l 863 988 z m 21 972 l 21 899 l 349 899 l 349 883 l 171 631 b 126 486 135 581 126 546 l 213 486 b 242 586 213 533 218 553 l 440 871 l 440 972 z m 686 368 b 774 258 686 299 738 268 l 774 242 b 678 126 733 232 678 203 b 897 -18 678 42 758 -18 b 1117 126 1038 -18 1117 42 b 1022 242 1117 203 1061 232 l 1022 258 b 1108 368 1057 268 1108 299 b 897 504 1108 451 1025 504 b 686 368 771 504 686 451 z m 774 358 b 897 431 774 404 821 431 b 1022 358 975 431 1022 404 b 897 285 1022 313 975 285 b 774 358 821 285 774 313 z m 765 133 b 897 211 765 185 815 211 b 1031 133 981 211 1031 185 b 897 56 1031 82 981 56 b 765 133 815 56 765 82 z "},"+":{"ha":861,"x_min":0,"x_max":0,"o":"m 139 536 l 139 436 l 378 436 l 378 194 l 483 194 l 483 436 l 722 436 l 722 536 l 483 536 l 483 778 l 378 778 l 378 536 z "},"−":{"ha":861,"x_min":0,"x_max":0,"o":"m 139 536 l 139 436 l 722 436 l 722 536 z "},"×":{"ha":861,"x_min":0,"x_max":0,"o":"m 156 690 l 360 486 l 156 282 l 228 210 l 431 415 l 633 210 l 706 282 l 501 486 l 706 690 l 633 763 l 431 558 l 228 763 z "},"÷":{"ha":861,"x_min":0,"x_max":0,"o":"m 340 715 b 431 624 340 664 379 624 b 521 715 482 624 521 664 b 431 806 521 767 482 806 b 340 715 379 806 340 767 z m 139 536 l 139 436 l 722 436 l 722 536 z m 340 257 b 431 167 340 206 379 167 b 521 257 482 167 521 206 b 431 349 521 308 482 349 b 340 257 379 349 340 308 z "},"=":{"ha":861,"x_min":0,"x_max":0,"o":"m 139 540 l 722 540 l 722 640 l 139 640 z m 139 332 l 722 332 l 722 432 l 139 432 z "},"<":{"ha":861,"x_min":0,"x_max":0,"o":"m 139 415 l 722 181 l 722 299 l 251 478 l 251 494 l 722 675 l 722 792 l 139 557 z "},">":{"ha":861,"x_min":0,"x_max":0,"o":"m 722 415 l 722 557 l 139 792 l 139 675 l 611 494 l 611 478 l 139 299 l 139 181 z "},"≤":{"ha":861,"x_min":0,"x_max":0,"o":"m 139 415 l 722 181 l 722 299 l 251 478 l 251 494 l 722 675 l 722 792 l 139 557 z m 139 0 l 722 0 l 722 99 l 139 99 z "},"≥":{"ha":861,"x_min":0,"x_max":0,"o":"m 722 415 l 722 557 l 139 792 l 139 675 l 611 494 l 611 478 l 139 299 l 139 181 z m 722 0 l 722 99 l 139 99 l 139 0 z "},"±":{"ha":861,"x_min":0,"x_max":0,"o":"m 139 436 l 378 436 l 378 206 l 483 206 l 483 436 l 722 436 l 722 538 l 483 538 l 483 768 l 378 768 l 378 538 l 139 538 z m 139 0 l 722 0 l 722 101 l 139 101 z "},"^":{"ha":861,"x_min":0,"x_max":0,"o":"m 517 972 l 344 972 l 103 589 l 235 589 l 422 897 l 439 897 l 628 589 l 758 589 z "},"≠":{"ha":861,"x_min":0,"x_max":0,"o":"m 139 332 l 324 332 l 281 208 l 379 175 l 432 332 l 722 332 l 722 432 l 467 432 l 503 540 l 722 540 l 722 640 l 538 640 l 581 764 l 483 796 l 429 640 l 139 640 l 139 540 l 394 540 l 358 432 l 139 432 z "},"~":{"ha":861,"x_min":0,"x_max":0,"o":"m 464 532 b 356 606 436 575 410 606 b 244 554 310 606 278 581 l 115 453 l 181 374 l 293 465 b 343 489 310 479 324 489 b 397 440 368 489 376 472 b 504 367 425 397 450 367 b 615 418 551 367 583 392 l 744 519 l 681 599 l 568 507 b 518 483 551 493 538 483 b 464 532 493 483 483 500 z "},"≈":{"ha":861,"x_min":0,"x_max":0,"o":"m 464 654 b 356 728 436 699 410 728 b 244 678 310 728 278 704 l 115 575 l 181 497 l 293 589 b 343 613 310 603 324 613 b 397 564 368 613 376 596 b 504 490 425 519 450 490 b 615 540 551 490 583 514 l 744 643 l 681 722 l 568 631 b 518 606 551 615 538 606 b 464 654 493 606 483 624 z m 464 408 b 356 482 436 453 410 482 b 244 432 310 482 278 458 l 115 329 l 181 250 l 293 342 b 343 367 310 357 324 367 b 397 318 368 367 376 349 b 504 244 425 274 450 244 b 615 294 551 244 583 268 l 744 397 l 681 475 l 568 383 b 518 360 551 369 538 360 b 464 408 493 360 483 376 z "},"¬":{"ha":861,"x_min":0,"x_max":0,"o":"m 140 436 l 622 436 l 622 299 l 721 299 l 721 536 l 140 536 z "},"∞":{"ha":861,"x_min":0,"x_max":0,"o":"m 78 486 b 275 285 78 367 161 285 b 422 365 347 285 400 317 l 439 365 b 586 285 461 317 514 285 b 783 486 700 285 783 367 b 586 688 783 606 700 688 b 439 607 514 688 461 656 l 422 607 b 275 688 400 656 347 688 b 78 486 161 688 78 606 z m 381 486 b 281 381 381 422 340 381 b 179 486 221 381 179 422 b 281 592 179 550 221 592 b 381 486 340 592 381 550 z m 481 486 b 581 592 481 550 521 592 b 682 486 640 592 682 550 b 581 381 682 422 640 381 b 481 486 521 381 481 422 z "},"°":{"ha":529,"x_min":0,"x_max":0,"o":"m 50 779 b 265 567 50 656 144 567 b 479 779 386 567 479 656 b 265 992 479 904 386 992 b 50 779 144 992 50 904 z m 146 779 b 265 900 146 851 194 900 b 383 779 335 900 383 851 b 265 658 383 707 335 658 b 146 779 194 658 146 707 z "},"∂":{"ha":861,"x_min":0,"x_max":0,"o":"m 85 347 l 85 331 b 431 -19 85 129 226 -19 b 776 378 650 -19 776 140 b 249 993 776 725 592 946 l 229 889 b 628 611 413 868 585 774 l 611 611 b 410 699 578 661 507 699 b 85 347 217 699 85 549 z m 431 82 b 194 332 292 82 194 186 l 194 347 b 431 597 194 488 292 597 b 664 347 565 597 664 492 b 431 82 664 194 578 82 z "},"◊":{"ha":861,"x_min":0,"x_max":0,"o":"m 85 486 l 344 0 l 517 0 l 776 486 l 517 972 l 344 972 z m 207 486 l 422 889 l 439 889 l 654 486 l 439 85 l 422 85 z "},"∫":{"ha":861,"x_min":0,"x_max":0,"o":"m 486 829 b 524 871 486 857 499 871 l 667 871 l 667 972 l 483 972 b 375 863 421 972 375 926 l 375 -135 b 338 -176 375 -162 363 -176 l 194 -176 l 194 -278 l 378 -278 b 486 -168 440 -278 486 -232 z "},"√":{"ha":861,"x_min":0,"x_max":0,"o":"m 67 436 l 204 436 l 313 0 l 513 0 l 811 1189 l 697 1189 l 421 71 l 404 71 l 290 536 l 67 536 z "},"∑":{"ha":861,"x_min":0,"x_max":0,"o":"m 78 826 l 440 347 l 78 -132 l 78 -278 l 781 -278 l 781 -176 l 194 -176 l 194 -160 l 579 347 l 194 854 l 194 871 l 781 871 l 781 972 l 78 972 z "},"∏":{"ha":861,"x_min":0,"x_max":0,"o":"m 94 -278 l 204 -278 l 204 871 l 642 871 l 642 -278 l 751 -278 l 751 972 l 94 972 z "},"Ω":{"ha":861,"x_min":0,"x_max":0,"o":"m 90 606 l 90 385 b 221 117 90 240 144 160 l 221 99 l 74 99 l 74 0 l 372 0 l 372 115 b 201 394 239 154 201 249 l 201 604 b 431 890 201 783 282 890 b 661 604 579 890 661 783 l 661 394 b 489 115 661 249 622 154 l 489 0 l 788 0 l 788 99 l 642 99 l 642 117 b 771 385 717 160 771 240 l 771 606 b 431 992 771 840 656 992 b 90 606 206 992 90 840 z "},"Δ":{"ha":861,"x_min":0,"x_max":0,"o":"m 38 0 l 824 0 l 522 972 l 339 972 z m 179 100 l 422 875 l 439 875 l 682 100 z "},"`":{"ha":389,"x_min":0,"x_max":0,"o":"m 208 972 l 75 972 l 208 782 l 314 782 z "},"´":{"ha":389,"x_min":0,"x_max":0,"o":"m 182 960 l 75 771 l 181 771 l 314 960 z "},"ˆ":{"ha":629,"x_min":0,"x_max":0,"o":"m 200 771 l 304 888 l 324 888 l 429 771 l 553 771 l 382 960 l 247 960 l 75 771 z "},"ˇ":{"ha":629,"x_min":0,"x_max":0,"o":"m 429 960 l 324 844 l 304 844 l 200 960 l 75 960 l 247 771 l 382 771 l 553 960 z "},"˜":{"ha":593,"x_min":0,"x_max":0,"o":"m 75 799 l 144 758 l 179 818 b 222 849 189 836 201 849 b 282 804 243 849 258 829 b 379 753 314 768 340 753 b 475 813 422 753 454 775 l 518 892 l 449 932 l 415 872 b 372 840 404 854 393 840 b 313 886 351 840 335 860 b 215 936 281 922 254 936 b 118 876 171 936 139 914 z "},"¨":{"ha":576,"x_min":0,"x_max":0,"o":"m 75 867 b 158 783 75 817 110 783 b 242 867 207 783 242 817 b 158 949 242 915 207 949 b 75 867 110 949 75 915 z m 336 867 b 418 783 336 817 371 783 b 501 867 467 783 501 817 b 418 949 501 915 467 949 b 336 867 371 949 336 915 z "},"¯":{"ha":579,"x_min":0,"x_max":0,"o":"m 503 889 l 75 889 l 75 799 l 503 799 z "},"˘":{"ha":557,"x_min":0,"x_max":0,"o":"m 385 960 l 385 953 b 279 847 385 892 350 847 b 172 953 207 847 172 892 l 172 960 l 75 960 l 75 951 b 279 767 75 835 156 767 b 482 951 401 767 482 835 l 482 960 z "},"˚":{"ha":425,"x_min":0,"x_max":0,"o":"m 75 886 b 213 754 75 808 136 754 b 350 886 289 754 350 807 b 213 1019 350 965 290 1019 b 75 886 135 1019 75 965 z m 153 886 b 213 946 153 921 176 946 b 272 886 249 946 272 921 b 213 828 272 851 249 828 b 153 886 176 828 153 851 z "},"˝":{"ha":571,"x_min":0,"x_max":0,"o":"m 156 960 l 75 771 l 172 771 l 271 960 z m 374 960 l 278 771 l 376 771 l 496 960 z "},"˙":{"ha":318,"x_min":0,"x_max":0,"o":"m 75 868 b 160 785 75 819 111 785 b 243 868 207 785 243 819 b 160 953 243 918 207 953 b 75 868 111 953 75 918 z "},"¸":{"ha":449,"x_min":0,"x_max":0,"o":"m 181 29 l 167 -117 l 218 -117 b 286 -161 261 -117 286 -132 b 219 -208 286 -194 257 -208 b 108 -175 175 -208 140 -193 l 75 -244 b 221 -285 113 -268 164 -285 b 374 -171 303 -285 374 -249 b 253 -62 374 -101 325 -62 l 261 29 z "},"˛":{"ha":329,"x_min":0,"x_max":0,"o":"m 104 19 l 88 -54 b 75 -137 81 -83 75 -111 b 174 -228 75 -196 113 -228 l 253 -228 l 253 -143 l 194 -143 b 164 -115 175 -143 164 -133 b 169 -78 164 -103 167 -94 l 186 19 z "},"ﬁ":{"ha":921,"x_min":0,"x_max":0,"o":"m 667 867 b 750 783 667 818 703 783 b 835 867 799 783 835 818 b 750 950 835 917 799 950 b 667 867 703 950 667 917 z m 40 679 l 40 583 l 249 583 l 249 0 l 358 0 l 358 583 l 696 583 l 696 0 l 806 0 l 806 679 l 358 679 l 358 836 b 400 878 358 864 371 878 l 536 878 l 536 972 l 369 972 b 249 853 292 972 249 926 l 249 679 z "},"ﬂ":{"ha":921,"x_min":0,"x_max":0,"o":"m 40 679 l 40 583 l 249 583 l 249 0 l 358 0 l 358 583 l 572 583 l 572 679 l 358 679 l 358 836 b 400 878 358 864 371 878 l 540 878 l 540 972 l 369 972 b 249 853 292 972 249 926 l 249 679 z m 806 972 l 696 972 l 696 0 l 806 0 z "},"ƒ":{"ha":861,"x_min":0,"x_max":0,"o":"m 183 610 l 183 510 l 371 510 l 371 143 b 333 101 371 115 358 101 l 133 101 l 133 0 l 374 0 b 481 110 438 0 481 46 l 481 510 l 678 510 l 678 610 l 481 610 l 481 829 b 518 871 481 857 493 871 l 728 871 l 728 972 l 478 972 b 371 863 415 972 371 926 l 371 610 z "},"́":{"ha":0,"x_min":0,"x_max":0,"o":"m 182 960 l 75 771 l 181 771 l 314 960 z "},"¹":{"ha":349,"x_min":0,"x_max":0,"o":"m 138 972 l 26 756 l 115 756 l 176 879 l 194 879 l 194 486 l 281 486 l 281 972 z "},"²":{"ha":508,"x_min":0,"x_max":0,"o":"m 42 813 l 129 807 b 260 917 135 883 188 917 b 379 828 332 917 379 881 b 231 721 379 771 332 743 b 38 529 100 690 38 629 l 38 486 l 463 486 l 463 560 l 131 560 b 281 657 136 611 181 633 b 465 828 397 683 465 726 b 260 990 465 928 382 990 b 42 813 139 990 53 932 z "},"³":{"ha":522,"x_min":0,"x_max":0,"o":"m 125 650 l 38 642 b 260 468 44 529 140 468 b 475 635 382 468 475 535 b 296 781 475 733 407 776 l 296 796 l 474 885 l 474 972 l 49 972 l 49 899 l 342 899 l 342 883 l 172 800 l 172 724 l 257 724 b 388 636 342 724 388 697 b 260 542 388 581 336 542 b 125 650 188 542 131 579 z "},"ⁱ":{"ha":290,"x_min":0,"x_max":0,"o":"m 75 1118 b 144 1051 75 1081 106 1051 b 214 1118 183 1051 214 1081 b 144 1185 214 1156 183 1185 b 75 1118 106 1185 75 1156 z m 189 972 l 101 972 l 101 486 l 189 486 z "},"ⁿ":{"ha":619,"x_min":0,"x_max":0,"o":"m 82 972 l 82 486 l 168 486 l 168 738 b 321 911 168 850 232 911 b 457 767 410 911 457 861 l 457 486 l 543 486 l 543 775 b 343 983 543 910 458 983 b 183 900 254 983 208 943 l 165 900 l 165 972 z "},"ₔ":{"ha":583,"x_min":0,"x_max":0,"o":"m 529 -43 l 529 -32 b 294 222 529 115 439 222 b 71 92 168 222 101 156 l 142 57 b 290 149 165 108 201 149 b 443 -10 386 149 443 81 l 54 -10 l 54 -50 b 290 -292 54 -193 146 -292 b 529 -43 436 -292 529 -190 z m 443 -79 b 292 -218 436 -161 386 -218 b 143 -79 200 -218 144 -161 z "},"Ǽ":{"ha":1154,"x_min":0,"x_max":0,"o":"m 611 1221 l 518 1053 l 624 1053 l 746 1221 z m 539 246 l 539 0 l 1088 0 l 1088 106 l 656 106 l 656 436 l 1043 436 l 1043 542 l 656 542 l 656 867 l 1082 867 l 1082 972 l 431 972 l 35 0 l 158 0 l 257 246 z m 539 351 l 297 351 l 521 907 l 539 907 z "},"Ắ":{"ha":875,"x_min":0,"x_max":0,"o":"m 456 1426 l 363 1258 l 468 1258 l 592 1426 z m 549 1224 l 549 1219 b 438 1122 549 1161 514 1122 b 326 1219 363 1122 326 1161 l 326 1224 l 231 1224 l 231 1219 b 438 1044 231 1115 306 1044 b 646 1219 568 1044 646 1115 l 646 1224 z m 335 972 l 35 0 l 156 0 l 231 246 l 644 246 l 719 0 l 840 0 l 540 972 z m 261 351 l 428 901 l 447 901 l 614 351 z "},"Ặ":{"ha":875,"x_min":0,"x_max":0,"o":"m 549 1224 l 549 1219 b 438 1122 549 1161 514 1122 b 326 1219 363 1122 326 1161 l 326 1224 l 231 1224 l 231 1219 b 438 1044 231 1115 306 1044 b 646 1219 568 1044 646 1115 l 646 1224 z m 335 972 l 35 0 l 156 0 l 231 246 l 644 246 l 719 0 l 840 0 l 540 972 z m 261 351 l 428 901 l 447 901 l 614 351 z m 353 -187 b 438 -272 353 -237 389 -272 b 521 -187 486 -272 521 -237 b 438 -104 521 -139 486 -104 b 353 -187 389 -104 353 -139 z "},"Ằ":{"ha":875,"x_min":0,"x_max":0,"o":"m 421 1426 l 285 1426 l 407 1258 l 514 1258 z m 549 1224 l 549 1219 b 438 1122 549 1161 514 1122 b 326 1219 363 1122 326 1161 l 326 1224 l 231 1224 l 231 1219 b 438 1044 231 1115 306 1044 b 646 1219 568 1044 646 1115 l 646 1224 z m 335 972 l 35 0 l 156 0 l 231 246 l 644 246 l 719 0 l 840 0 l 540 972 z m 261 351 l 428 901 l 447 901 l 614 351 z "},"Ẳ":{"ha":875,"x_min":0,"x_max":0,"o":"m 400 1243 l 482 1243 l 476 1294 b 597 1406 549 1294 597 1335 b 444 1522 597 1485 526 1522 b 299 1482 389 1522 336 1506 l 333 1413 b 443 1446 364 1431 399 1446 b 511 1396 481 1446 511 1431 b 442 1347 511 1365 485 1347 l 390 1347 z m 549 1224 l 549 1219 b 438 1122 549 1161 514 1122 b 326 1219 363 1122 326 1161 l 326 1224 l 231 1224 l 231 1219 b 438 1044 231 1115 306 1044 b 646 1219 568 1044 646 1115 l 646 1224 z m 335 972 l 35 0 l 156 0 l 231 246 l 644 246 l 719 0 l 840 0 l 540 972 z m 261 351 l 428 901 l 447 901 l 614 351 z "},"Ẵ":{"ha":875,"x_min":0,"x_max":0,"o":"m 207 1321 l 272 1276 l 307 1332 b 356 1365 319 1350 333 1365 b 415 1326 378 1365 392 1353 b 522 1271 451 1290 479 1271 b 624 1333 571 1271 601 1299 l 668 1403 l 603 1447 l 567 1390 b 518 1357 554 1372 540 1357 b 458 1396 497 1357 483 1371 b 353 1451 422 1432 396 1451 b 251 1390 304 1451 274 1425 z m 549 1224 l 549 1219 b 438 1122 549 1161 514 1122 b 326 1219 363 1122 326 1161 l 326 1224 l 231 1224 l 231 1219 b 438 1044 231 1115 306 1044 b 646 1219 568 1044 646 1115 l 646 1224 z m 335 972 l 35 0 l 156 0 l 231 246 l 644 246 l 719 0 l 840 0 l 540 972 z m 261 351 l 428 901 l 447 901 l 614 351 z "},"Ǎ":{"ha":875,"x_min":0,"x_max":0,"o":"m 329 1221 l 196 1221 l 371 1053 l 503 1053 l 679 1221 l 546 1221 l 447 1119 l 428 1119 z m 335 972 l 35 0 l 156 0 l 231 246 l 644 246 l 719 0 l 840 0 l 540 972 z m 261 351 l 428 901 l 447 901 l 614 351 z "},"Ấ":{"ha":875,"x_min":0,"x_max":0,"o":"m 676 1363 l 604 1189 l 700 1189 l 793 1363 z m 546 1053 l 679 1053 l 503 1221 l 371 1221 l 196 1053 l 329 1053 l 428 1154 l 447 1154 z m 335 972 l 35 0 l 156 0 l 231 246 l 644 246 l 719 0 l 840 0 l 540 972 z m 261 351 l 428 901 l 447 901 l 614 351 z "},"Ậ":{"ha":875,"x_min":0,"x_max":0,"o":"m 546 1053 l 679 1053 l 503 1221 l 371 1221 l 196 1053 l 329 1053 l 428 1154 l 447 1154 z m 335 972 l 35 0 l 156 0 l 231 246 l 644 246 l 719 0 l 840 0 l 540 972 z m 261 351 l 428 901 l 447 901 l 614 351 z m 353 -187 b 438 -272 353 -237 389 -272 b 521 -187 486 -272 521 -237 b 438 -104 521 -139 486 -104 b 353 -187 389 -104 353 -139 z "},"Ầ":{"ha":875,"x_min":0,"x_max":0,"o":"m 654 1363 l 536 1363 l 635 1189 l 729 1189 z m 546 1053 l 679 1053 l 503 1221 l 371 1221 l 196 1053 l 329 1053 l 428 1154 l 447 1154 z m 335 972 l 35 0 l 156 0 l 231 246 l 644 246 l 719 0 l 840 0 l 540 972 z m 261 351 l 428 901 l 447 901 l 614 351 z "},"Ẩ":{"ha":875,"x_min":0,"x_max":0,"o":"m 619 1188 l 700 1188 l 696 1238 b 815 1349 767 1238 815 1278 b 664 1467 815 1428 746 1467 b 518 1425 607 1467 556 1449 l 551 1356 b 661 1389 582 1374 617 1389 b 729 1339 700 1389 729 1374 b 660 1292 729 1308 703 1292 l 610 1292 z m 546 1053 l 679 1053 l 503 1221 l 371 1221 l 196 1053 l 329 1053 l 428 1154 l 447 1154 z m 335 972 l 35 0 l 156 0 l 231 246 l 644 246 l 719 0 l 840 0 l 540 972 z m 261 351 l 428 901 l 447 901 l 614 351 z "},"Ẫ":{"ha":875,"x_min":0,"x_max":0,"o":"m 207 1326 l 272 1282 l 307 1338 b 356 1372 319 1357 333 1372 b 415 1333 378 1372 392 1358 b 522 1278 451 1297 479 1278 b 624 1339 571 1278 601 1304 l 668 1408 l 603 1453 l 567 1397 b 518 1364 554 1378 540 1364 b 458 1401 497 1364 483 1376 b 353 1458 422 1439 396 1458 b 251 1396 304 1458 274 1431 z m 546 1053 l 679 1053 l 503 1221 l 371 1221 l 196 1053 l 329 1053 l 428 1154 l 447 1154 z m 335 972 l 35 0 l 156 0 l 231 246 l 644 246 l 719 0 l 840 0 l 540 972 z m 261 351 l 428 901 l 447 901 l 614 351 z "},"Ȁ":{"ha":875,"x_min":0,"x_max":0,"o":"m 532 1225 l 414 1225 l 521 1057 l 611 1057 z m 318 1225 l 188 1225 l 317 1057 l 417 1057 z m 335 972 l 35 0 l 156 0 l 231 246 l 644 246 l 719 0 l 840 0 l 540 972 z m 261 351 l 428 901 l 447 901 l 614 351 z "},"Ạ":{"ha":875,"x_min":0,"x_max":0,"o":"m 335 972 l 35 0 l 156 0 l 231 246 l 644 246 l 719 0 l 840 0 l 540 972 z m 261 351 l 428 901 l 447 901 l 614 351 z m 353 -187 b 438 -272 353 -237 389 -272 b 521 -187 486 -272 521 -237 b 438 -104 521 -139 486 -104 b 353 -187 389 -104 353 -139 z "},"Ả":{"ha":875,"x_min":0,"x_max":0,"o":"m 404 1039 l 485 1039 l 481 1090 b 600 1201 551 1090 600 1131 b 449 1318 600 1279 529 1318 b 303 1276 392 1318 340 1300 l 336 1207 b 446 1242 367 1226 401 1242 b 514 1192 485 1242 514 1225 b 444 1143 514 1160 488 1143 l 394 1143 z m 335 972 l 35 0 l 156 0 l 231 246 l 644 246 l 719 0 l 840 0 l 540 972 z m 261 351 l 428 901 l 447 901 l 614 351 z "},"Ȃ":{"ha":875,"x_min":0,"x_max":0,"o":"m 543 1064 l 640 1064 l 640 1072 b 438 1257 640 1190 560 1257 b 233 1072 314 1257 233 1190 l 233 1064 l 331 1064 l 331 1071 b 438 1176 331 1132 365 1176 b 543 1071 508 1176 543 1132 z m 335 972 l 35 0 l 156 0 l 231 246 l 644 246 l 719 0 l 840 0 l 540 972 z m 261 351 l 428 901 l 447 901 l 614 351 z "},"Ǻ":{"ha":875,"x_min":0,"x_max":0,"o":"m 301 1172 b 438 1039 301 1093 361 1039 b 575 1172 514 1039 575 1092 b 533 1269 575 1213 560 1246 l 640 1422 l 521 1422 l 453 1304 b 438 1304 449 1304 443 1304 b 301 1172 360 1304 301 1250 z m 378 1172 b 438 1232 378 1207 401 1232 b 497 1172 474 1232 497 1207 b 438 1113 497 1138 474 1113 b 378 1172 401 1113 378 1138 z m 335 972 l 35 0 l 156 0 l 231 246 l 644 246 l 719 0 l 840 0 l 540 972 z m 261 351 l 428 901 l 447 901 l 614 351 z "},"Ƀ":{"ha":918,"x_min":0,"x_max":0,"o":"m 65 0 l 551 0 b 844 254 719 0 844 94 l 844 268 b 683 482 844 404 753 465 l 683 501 b 843 717 751 522 843 581 l 843 728 b 553 972 843 875 724 972 l 65 972 l 65 868 l 201 868 l 201 311 l 65 311 l 65 226 l 201 226 l 201 104 l 65 104 z m 318 543 l 318 867 l 543 867 b 726 711 656 867 726 806 l 726 697 b 543 543 726 604 656 543 z m 318 106 l 318 226 l 488 226 l 488 311 l 318 311 l 318 438 l 539 438 b 728 278 661 438 728 376 l 728 265 b 539 106 728 167 661 106 z "},"Ḉ":{"ha":892,"x_min":0,"x_max":0,"o":"m 479 1221 l 385 1053 l 492 1053 l 614 1221 z m 83 375 b 419 -18 83 135 213 -1 l 410 -117 l 461 -117 b 529 -161 504 -117 529 -132 b 461 -208 529 -194 500 -208 b 351 -175 418 -208 382 -193 l 318 -244 b 464 -285 356 -268 407 -285 b 617 -171 546 -285 617 -249 b 496 -62 617 -101 568 -62 l 500 -18 b 819 339 706 -4 819 129 l 819 357 l 704 357 l 704 335 b 463 85 704 189 628 85 b 200 372 297 85 200 192 l 200 600 b 463 888 200 781 297 888 b 704 638 628 888 704 783 l 704 626 l 819 626 l 819 633 b 463 992 819 854 692 992 b 83 597 232 992 83 854 z "},"Ǆ":{"ha":1701,"x_min":0,"x_max":0,"o":"m 1189 1221 l 1054 1221 l 1231 1053 l 1363 1053 l 1539 1221 l 1404 1221 l 1306 1119 l 1288 1119 z m 65 972 l 65 868 l 201 868 l 201 104 l 65 104 l 65 0 l 444 0 b 846 396 700 0 846 126 l 846 576 b 444 972 846 844 700 972 z m 985 972 l 985 868 l 1511 868 l 1511 851 l 969 154 l 969 0 l 1636 0 l 1636 104 l 1083 104 l 1083 121 l 1626 818 l 1626 972 z m 318 865 l 444 865 b 731 581 632 865 731 778 l 731 390 b 444 106 731 194 632 106 l 318 106 z "},"Ḍ":{"ha":921,"x_min":0,"x_max":0,"o":"m 65 972 l 65 868 l 201 868 l 201 104 l 65 104 l 65 0 l 444 0 b 846 396 700 0 846 126 l 846 576 b 444 972 846 844 700 972 z m 318 865 l 444 865 b 731 581 632 865 731 778 l 731 390 b 444 106 731 194 632 106 l 318 106 z m 357 -187 b 442 -272 357 -237 393 -272 b 525 -187 490 -272 525 -237 b 442 -104 525 -139 490 -104 b 357 -187 393 -104 357 -139 z "},"Ḏ":{"ha":921,"x_min":0,"x_max":0,"o":"m 65 972 l 65 868 l 201 868 l 201 104 l 65 104 l 65 0 l 444 0 b 846 396 700 0 846 126 l 846 576 b 444 972 846 844 700 972 z m 318 865 l 444 865 b 731 581 632 865 731 778 l 731 390 b 444 106 731 194 632 106 l 318 106 z m 656 -119 l 228 -119 l 228 -211 l 656 -211 z "},"ǅ":{"ha":1644,"x_min":0,"x_max":0,"o":"m 65 972 l 65 868 l 201 868 l 201 104 l 65 104 l 65 0 l 444 0 b 846 396 700 0 846 126 l 846 576 b 444 972 846 844 700 972 z m 1390 960 l 1285 844 l 1265 844 l 1160 960 l 1036 960 l 1207 771 l 1343 771 l 1514 960 z m 318 865 l 444 865 b 731 581 632 865 731 778 l 731 390 b 444 106 731 194 632 106 l 318 106 z m 1019 679 l 1019 583 l 1438 583 l 1438 568 l 1006 142 l 1006 0 l 1564 0 l 1564 96 l 1119 96 l 1119 111 l 1553 538 l 1553 679 z "},"Ḝ":{"ha":782,"x_min":0,"x_max":0,"o":"m 531 1224 l 531 1219 b 419 1122 531 1161 494 1122 b 308 1219 344 1122 308 1161 l 308 1224 l 213 1224 l 213 1219 b 419 1044 213 1115 288 1044 b 626 1219 550 1044 626 1115 l 626 1224 z m 111 972 l 111 0 l 374 0 l 363 -117 l 414 -117 b 482 -161 457 -117 482 -132 b 415 -208 482 -194 453 -208 b 306 -175 371 -208 336 -193 l 271 -244 b 417 -285 308 -268 361 -285 b 569 -171 499 -285 569 -249 b 449 -62 569 -101 521 -62 l 454 0 l 717 0 l 717 106 l 228 106 l 228 436 l 671 436 l 671 542 l 228 542 l 228 867 l 710 867 l 710 972 z "},"Ế":{"ha":782,"x_min":0,"x_max":0,"o":"m 657 1363 l 585 1189 l 682 1189 l 775 1363 z m 528 1053 l 661 1053 l 485 1221 l 353 1221 l 176 1053 l 311 1053 l 410 1154 l 429 1154 z m 111 972 l 111 0 l 717 0 l 717 106 l 228 106 l 228 436 l 671 436 l 671 542 l 228 542 l 228 867 l 710 867 l 710 972 z "},"Ệ":{"ha":782,"x_min":0,"x_max":0,"o":"m 528 1053 l 661 1053 l 485 1221 l 353 1221 l 176 1053 l 311 1053 l 410 1154 l 429 1154 z m 111 972 l 111 0 l 717 0 l 717 106 l 228 106 l 228 436 l 671 436 l 671 542 l 228 542 l 228 867 l 710 867 l 710 972 z m 329 -187 b 414 -272 329 -237 365 -272 b 497 -187 461 -272 497 -237 b 414 -104 497 -139 461 -104 b 329 -187 365 -104 329 -139 z "},"Ề":{"ha":782,"x_min":0,"x_max":0,"o":"m 636 1363 l 518 1363 l 615 1189 l 711 1189 z m 528 1053 l 661 1053 l 485 1221 l 353 1221 l 176 1053 l 311 1053 l 410 1154 l 429 1154 z m 111 972 l 111 0 l 717 0 l 717 106 l 228 106 l 228 436 l 671 436 l 671 542 l 228 542 l 228 867 l 710 867 l 710 972 z "},"Ể":{"ha":782,"x_min":0,"x_max":0,"o":"m 600 1188 l 682 1188 l 676 1238 b 797 1349 749 1238 797 1278 b 646 1467 797 1428 726 1467 b 499 1425 589 1467 536 1449 l 533 1356 b 643 1389 564 1374 599 1389 b 711 1339 682 1389 711 1374 b 642 1292 711 1308 685 1292 l 590 1292 z m 528 1053 l 661 1053 l 485 1221 l 353 1221 l 176 1053 l 311 1053 l 410 1154 l 429 1154 z m 111 972 l 111 0 l 717 0 l 717 106 l 228 106 l 228 436 l 671 436 l 671 542 l 228 542 l 228 867 l 710 867 l 710 972 z "},"Ễ":{"ha":782,"x_min":0,"x_max":0,"o":"m 189 1326 l 254 1282 l 289 1338 b 338 1372 301 1357 315 1372 b 397 1333 360 1372 374 1358 b 504 1278 433 1297 461 1278 b 606 1339 553 1278 583 1304 l 650 1408 l 585 1453 l 549 1397 b 500 1364 535 1378 522 1364 b 440 1401 478 1364 464 1376 b 333 1458 404 1439 378 1458 b 233 1396 286 1458 256 1431 z m 528 1053 l 661 1053 l 485 1221 l 353 1221 l 176 1053 l 311 1053 l 410 1154 l 429 1154 z m 111 972 l 111 0 l 717 0 l 717 106 l 228 106 l 228 436 l 671 436 l 671 542 l 228 542 l 228 867 l 710 867 l 710 972 z "},"Ȅ":{"ha":782,"x_min":0,"x_max":0,"o":"m 514 1225 l 396 1225 l 501 1057 l 593 1057 z m 300 1225 l 168 1225 l 299 1057 l 399 1057 z m 111 972 l 111 0 l 717 0 l 717 106 l 228 106 l 228 436 l 671 436 l 671 542 l 228 542 l 228 867 l 710 867 l 710 972 z "},"Ẹ":{"ha":782,"x_min":0,"x_max":0,"o":"m 111 972 l 111 0 l 717 0 l 717 106 l 228 106 l 228 436 l 671 436 l 671 542 l 228 542 l 228 867 l 710 867 l 710 972 z m 329 -187 b 414 -272 329 -237 365 -272 b 497 -187 461 -272 497 -237 b 414 -104 497 -139 461 -104 b 329 -187 365 -104 329 -139 z "},"Ẻ":{"ha":782,"x_min":0,"x_max":0,"o":"m 385 1039 l 467 1039 l 461 1090 b 582 1201 533 1090 582 1131 b 431 1318 582 1279 511 1318 b 283 1276 374 1318 321 1300 l 318 1207 b 428 1242 349 1226 383 1242 b 496 1192 465 1242 496 1225 b 426 1143 496 1160 469 1143 l 375 1143 z m 111 972 l 111 0 l 717 0 l 717 106 l 228 106 l 228 436 l 671 436 l 671 542 l 228 542 l 228 867 l 710 867 l 710 972 z "},"Ȇ":{"ha":782,"x_min":0,"x_max":0,"o":"m 525 1064 l 622 1064 l 622 1072 b 419 1257 622 1190 542 1257 b 215 1072 296 1257 215 1190 l 215 1064 l 313 1064 l 313 1071 b 419 1176 313 1132 347 1176 b 525 1071 490 1176 525 1132 z m 111 972 l 111 0 l 717 0 l 717 106 l 228 106 l 228 436 l 671 436 l 671 542 l 228 542 l 228 867 l 710 867 l 710 972 z "},"Ḗ":{"ha":782,"x_min":0,"x_max":0,"o":"m 435 1415 l 342 1247 l 447 1247 l 571 1415 z m 633 1161 l 206 1161 l 206 1071 l 633 1071 z m 111 972 l 111 0 l 717 0 l 717 106 l 228 106 l 228 436 l 671 436 l 671 542 l 228 542 l 228 867 l 710 867 l 710 972 z "},"Ḕ":{"ha":782,"x_min":0,"x_max":0,"o":"m 404 1419 l 268 1419 l 390 1251 l 497 1251 z m 633 1161 l 206 1161 l 206 1071 l 633 1071 z m 111 972 l 111 0 l 717 0 l 717 106 l 228 106 l 228 436 l 671 436 l 671 542 l 228 542 l 228 867 l 710 867 l 710 972 z "},"Ẽ":{"ha":782,"x_min":0,"x_max":0,"o":"m 189 1097 l 254 1053 l 289 1108 b 338 1142 301 1126 315 1142 b 397 1104 360 1142 374 1129 b 504 1049 433 1067 461 1049 b 606 1110 553 1049 583 1075 l 650 1179 l 585 1224 l 549 1167 b 500 1133 535 1149 522 1133 b 440 1172 478 1133 464 1147 b 333 1228 404 1208 378 1228 b 233 1167 286 1228 256 1201 z m 111 972 l 111 0 l 717 0 l 717 106 l 228 106 l 228 436 l 671 436 l 671 542 l 228 542 l 228 867 l 710 867 l 710 972 z "},"Ǧ":{"ha":917,"x_min":0,"x_max":0,"o":"m 357 1221 l 224 1221 l 400 1053 l 531 1053 l 707 1221 l 574 1221 l 475 1119 l 456 1119 z m 83 375 b 450 -19 83 118 233 -19 b 690 106 600 -19 661 43 l 710 106 l 710 0 l 815 0 l 815 463 l 407 463 l 407 363 l 701 363 l 701 339 b 464 85 701 185 626 85 b 200 372 297 85 200 192 l 200 600 b 463 888 200 781 297 888 b 700 647 628 888 700 785 l 700 638 l 815 638 l 815 644 b 463 992 815 856 692 992 b 83 597 232 992 83 854 z "},"Ģ":{"ha":917,"x_min":0,"x_max":0,"o":"m 83 375 b 450 -19 83 118 233 -19 b 690 106 600 -19 661 43 l 710 106 l 710 0 l 815 0 l 815 463 l 407 463 l 407 363 l 701 363 l 701 339 b 464 85 701 185 626 85 b 200 372 297 85 200 192 l 200 600 b 463 888 200 781 297 888 b 700 647 628 888 700 785 l 700 638 l 815 638 l 815 644 b 463 992 815 856 692 992 b 83 597 232 992 83 854 z m 388 -165 b 468 -243 388 -211 421 -243 l 482 -243 l 482 -268 b 435 -314 482 -301 468 -314 l 401 -314 l 401 -375 l 440 -375 b 549 -269 513 -375 549 -340 l 549 -172 b 468 -85 549 -118 514 -85 b 388 -165 421 -85 388 -118 z "},"ẞ":{"ha":879,"x_min":0,"x_max":0,"o":"m 104 0 l 221 0 l 221 615 b 451 868 221 800 324 868 l 688 868 l 688 851 l 503 681 b 417 522 450 631 417 586 b 531 372 417 457 454 407 l 597 343 b 715 208 658 315 715 285 b 575 85 715 135 664 85 b 424 233 486 85 424 135 l 308 233 b 575 -19 308 76 411 -19 b 831 210 738 -19 831 76 b 651 439 831 342 743 399 l 592 465 b 532 528 556 481 532 497 b 572 600 532 557 547 578 l 807 819 l 807 972 l 451 972 b 104 610 243 972 104 849 z "},"Ḡ":{"ha":917,"x_min":0,"x_max":0,"o":"m 679 1161 l 251 1161 l 251 1071 l 679 1071 z m 83 375 b 450 -19 83 118 233 -19 b 690 106 600 -19 661 43 l 710 106 l 710 0 l 815 0 l 815 463 l 407 463 l 407 363 l 701 363 l 701 339 b 464 85 701 185 626 85 b 200 372 297 85 200 192 l 200 600 b 463 888 200 781 297 888 b 700 647 628 888 700 785 l 700 638 l 815 638 l 815 644 b 463 992 815 856 692 992 b 83 597 232 992 83 854 z "},"Ḫ":{"ha":911,"x_min":0,"x_max":0,"o":"m 111 972 l 111 0 l 228 0 l 228 435 l 683 435 l 683 0 l 800 0 l 800 972 l 683 972 l 683 540 l 228 540 l 228 972 z m 561 -99 l 561 -106 b 456 -211 561 -167 526 -211 b 349 -106 383 -211 349 -167 l 349 -99 l 251 -99 l 251 -107 b 456 -292 251 -224 332 -292 b 658 -107 578 -292 658 -224 l 658 -99 z "},"Ḥ":{"ha":911,"x_min":0,"x_max":0,"o":"m 111 972 l 111 0 l 228 0 l 228 435 l 683 435 l 683 0 l 800 0 l 800 972 l 683 972 l 683 540 l 228 540 l 228 972 z m 372 -187 b 456 -272 372 -237 407 -272 b 539 -187 504 -272 539 -237 b 456 -104 539 -139 504 -104 b 372 -187 407 -104 372 -139 z "},"Ǐ":{"ha":339,"x_min":0,"x_max":0,"o":"m 61 1221 l -72 1221 l 104 1053 l 236 1053 l 411 1221 l 278 1221 l 179 1119 l 160 1119 z m 111 972 l 111 0 l 228 0 l 228 972 z "},"Ȉ":{"ha":339,"x_min":0,"x_max":0,"o":"m 264 1225 l 146 1225 l 253 1057 l 343 1057 z m 50 1225 l -81 1225 l 49 1057 l 149 1057 z m 111 972 l 111 0 l 228 0 l 228 972 z "},"Ḯ":{"ha":339,"x_min":0,"x_max":0,"o":"m 185 1447 l 92 1279 l 199 1279 l 321 1447 z m -51 1138 b 32 1056 -51 1089 -17 1056 b 115 1138 81 1056 115 1089 b 32 1221 115 1188 81 1221 b -51 1138 -17 1221 -51 1188 z m 224 1138 b 307 1056 224 1089 258 1056 b 390 1138 356 1056 390 1089 b 307 1221 390 1188 356 1221 b 224 1138 258 1221 224 1188 z m 111 972 l 111 0 l 228 0 l 228 972 z "},"Ị":{"ha":339,"x_min":0,"x_max":0,"o":"m 111 972 l 111 0 l 228 0 l 228 972 z m 86 -187 b 169 -272 86 -237 121 -272 b 253 -187 218 -272 253 -237 b 169 -104 253 -139 218 -104 b 86 -187 121 -104 86 -139 z "},"Ỉ":{"ha":339,"x_min":0,"x_max":0,"o":"m 136 1039 l 217 1039 l 213 1090 b 332 1201 283 1090 332 1131 b 181 1318 332 1279 263 1318 b 35 1276 124 1318 72 1300 l 68 1207 b 178 1242 99 1226 133 1242 b 246 1192 217 1242 246 1225 b 176 1143 246 1160 219 1143 l 126 1143 z m 111 972 l 111 0 l 228 0 l 228 972 z "},"Ȋ":{"ha":339,"x_min":0,"x_max":0,"o":"m 275 1064 l 372 1064 l 372 1072 b 169 1257 372 1190 292 1257 b -35 1072 46 1257 -35 1190 l -35 1064 l 63 1064 l 63 1071 b 169 1176 63 1132 97 1176 b 275 1071 240 1176 275 1132 z m 111 972 l 111 0 l 228 0 l 228 972 z "},"Ķ":{"ha":847,"x_min":0,"x_max":0,"o":"m 111 0 l 228 0 l 228 432 l 247 432 l 671 0 l 831 0 l 340 492 l 814 972 l 658 972 l 247 549 l 228 549 l 228 972 l 111 972 z m 353 -165 b 433 -243 353 -211 386 -243 l 447 -243 l 447 -268 b 400 -314 447 -301 433 -314 l 367 -314 l 367 -375 l 406 -375 b 514 -269 478 -375 514 -340 l 514 -172 b 433 -85 514 -118 479 -85 b 353 -165 386 -85 353 -118 z "},"Ǉ":{"ha":1583,"x_min":0,"x_max":0,"o":"m 111 972 l 111 0 l 719 0 l 719 106 l 228 106 l 228 972 z m 1129 972 l 1129 867 l 1300 867 l 1300 292 b 1122 88 1300 169 1250 88 b 931 292 994 88 931 169 l 931 367 l 814 367 l 814 292 b 1122 -19 814 90 932 -19 b 1415 292 1314 -19 1415 89 l 1415 867 l 1521 867 l 1521 972 z "},"Ļ":{"ha":758,"x_min":0,"x_max":0,"o":"m 111 972 l 111 0 l 719 0 l 719 106 l 228 106 l 228 972 z m 335 -165 b 415 -243 335 -211 369 -243 l 429 -243 l 429 -268 b 382 -314 429 -301 417 -314 l 350 -314 l 350 -375 l 388 -375 b 496 -269 461 -375 496 -340 l 496 -172 b 415 -85 496 -118 461 -85 b 335 -165 368 -85 335 -118 z "},"Ḷ":{"ha":758,"x_min":0,"x_max":0,"o":"m 111 972 l 111 0 l 719 0 l 719 106 l 228 106 l 228 972 z m 332 -187 b 415 -272 332 -237 367 -272 b 500 -187 464 -272 500 -237 b 415 -104 500 -139 464 -104 b 332 -187 367 -104 332 -139 z "},"ǈ":{"ha":1100,"x_min":0,"x_max":0,"o":"m 111 972 l 111 0 l 719 0 l 719 106 l 228 106 l 228 972 z m 846 868 b 931 785 846 819 882 785 b 1014 868 979 785 1014 819 b 931 953 1014 918 979 953 b 846 868 882 953 846 918 z m 985 679 l 875 679 l 875 -139 b 835 -181 875 -167 864 -181 l 739 -181 l 739 -278 l 864 -278 b 985 -158 942 -278 985 -232 z "},"Ḻ":{"ha":758,"x_min":0,"x_max":0,"o":"m 111 972 l 111 0 l 719 0 l 719 106 l 228 106 l 228 972 z m 629 -119 l 201 -119 l 201 -211 l 629 -211 z "},"Ṃ":{"ha":1201,"x_min":0,"x_max":0,"o":"m 111 972 l 111 0 l 224 0 l 224 896 l 243 896 l 500 0 l 701 0 l 958 896 l 978 896 l 978 0 l 1090 0 l 1090 972 l 868 972 l 610 74 l 592 74 l 333 972 z m 517 -187 b 600 -272 517 -237 553 -272 b 685 -187 649 -272 685 -237 b 600 -104 685 -139 649 -104 b 517 -187 553 -104 517 -139 z "},"Ǌ":{"ha":1747,"x_min":0,"x_max":0,"o":"m 111 972 l 111 0 l 226 0 l 226 900 l 246 900 l 583 0 l 810 0 l 810 972 l 694 972 l 694 74 l 676 74 l 338 972 z m 1293 972 l 1293 867 l 1464 867 l 1464 292 b 1286 88 1464 169 1414 88 b 1094 292 1158 88 1094 169 l 1094 367 l 978 367 l 978 292 b 1286 -19 978 90 1096 -19 b 1579 292 1478 -19 1579 89 l 1579 867 l 1685 867 l 1685 972 z "},"Ņ":{"ha":922,"x_min":0,"x_max":0,"o":"m 111 972 l 111 0 l 226 0 l 226 900 l 246 900 l 583 0 l 810 0 l 810 972 l 694 972 l 694 74 l 676 74 l 338 972 z m 385 -165 b 465 -243 385 -211 418 -243 l 479 -243 l 479 -268 b 432 -314 479 -301 465 -314 l 399 -314 l 399 -375 l 438 -375 b 544 -269 510 -375 544 -340 l 544 -172 b 465 -85 544 -118 511 -85 b 385 -165 418 -85 385 -118 z "},"Ṅ":{"ha":922,"x_min":0,"x_max":0,"o":"m 381 1139 b 465 1056 381 1090 417 1056 b 549 1139 513 1056 549 1090 b 465 1222 549 1188 513 1222 b 381 1139 417 1222 381 1188 z m 111 972 l 111 0 l 226 0 l 226 900 l 246 900 l 583 0 l 810 0 l 810 972 l 694 972 l 694 74 l 676 74 l 338 972 z "},"Ṇ":{"ha":922,"x_min":0,"x_max":0,"o":"m 111 972 l 111 0 l 226 0 l 226 900 l 246 900 l 583 0 l 810 0 l 810 972 l 694 972 l 694 74 l 676 74 l 338 972 z m 381 -187 b 465 -272 381 -237 417 -272 b 549 -187 513 -272 549 -237 b 465 -104 549 -139 513 -104 b 381 -187 417 -104 381 -139 z "},"ǋ":{"ha":1264,"x_min":0,"x_max":0,"o":"m 111 972 l 111 0 l 226 0 l 226 900 l 246 900 l 583 0 l 810 0 l 810 972 l 694 972 l 694 74 l 676 74 l 338 972 z m 1011 868 b 1094 785 1011 819 1046 785 b 1178 868 1143 785 1178 819 b 1094 953 1178 918 1143 953 b 1011 868 1046 953 1011 918 z m 1150 679 l 1039 679 l 1039 -139 b 999 -181 1039 -167 1028 -181 l 903 -181 l 903 -278 l 1028 -278 b 1150 -158 1106 -278 1150 -232 z "},"Ṉ":{"ha":922,"x_min":0,"x_max":0,"o":"m 111 972 l 111 0 l 226 0 l 226 900 l 246 900 l 583 0 l 810 0 l 810 972 l 694 972 l 694 74 l 676 74 l 338 972 z m 679 -119 l 251 -119 l 251 -211 l 679 -211 z "},"Ǒ":{"ha":929,"x_min":0,"x_max":0,"o":"m 357 1221 l 222 1221 l 399 1053 l 531 1053 l 707 1221 l 572 1221 l 474 1119 l 456 1119 z m 83 597 l 83 375 b 464 -19 83 118 232 -19 b 846 375 697 -19 846 118 l 846 597 b 464 992 846 854 697 992 b 83 597 232 992 83 854 z m 200 601 b 464 888 200 781 297 888 b 729 601 632 888 729 781 l 729 371 b 464 85 729 192 632 85 b 200 371 297 85 200 192 z "},"Ố":{"ha":929,"x_min":0,"x_max":0,"o":"m 703 1363 l 631 1189 l 726 1189 l 821 1363 z m 572 1053 l 707 1053 l 531 1221 l 399 1221 l 222 1053 l 357 1053 l 456 1154 l 474 1154 z m 83 597 l 83 375 b 464 -19 83 118 232 -19 b 846 375 697 -19 846 118 l 846 597 b 464 992 846 854 697 992 b 83 597 232 992 83 854 z m 200 601 b 464 888 200 781 297 888 b 729 601 632 888 729 781 l 729 371 b 464 85 729 192 632 85 b 200 371 297 85 200 192 z "},"Ộ":{"ha":929,"x_min":0,"x_max":0,"o":"m 572 1053 l 707 1053 l 531 1221 l 399 1221 l 222 1053 l 357 1053 l 456 1154 l 474 1154 z m 83 597 l 83 375 b 464 -19 83 118 232 -19 b 846 375 697 -19 846 118 l 846 597 b 464 992 846 854 697 992 b 83 597 232 992 83 854 z m 200 601 b 464 888 200 781 297 888 b 729 601 632 888 729 781 l 729 371 b 464 85 729 192 632 85 b 200 371 297 85 200 192 z m 381 -187 b 464 -272 381 -237 417 -272 b 549 -187 513 -272 549 -237 b 464 -104 549 -139 513 -104 b 381 -187 417 -104 381 -139 z "},"Ồ":{"ha":929,"x_min":0,"x_max":0,"o":"m 682 1363 l 564 1363 l 661 1189 l 757 1189 z m 572 1053 l 707 1053 l 531 1221 l 399 1221 l 222 1053 l 357 1053 l 456 1154 l 474 1154 z m 83 597 l 83 375 b 464 -19 83 118 232 -19 b 846 375 697 -19 846 118 l 846 597 b 464 992 846 854 697 992 b 83 597 232 992 83 854 z m 200 601 b 464 888 200 781 297 888 b 729 601 632 888 729 781 l 729 371 b 464 85 729 192 632 85 b 200 371 297 85 200 192 z "},"Ổ":{"ha":929,"x_min":0,"x_max":0,"o":"m 646 1188 l 728 1188 l 722 1238 b 843 1349 794 1238 843 1278 b 690 1467 843 1428 772 1467 b 544 1425 633 1467 582 1449 l 579 1356 b 689 1389 610 1374 644 1389 b 756 1339 726 1389 756 1374 b 688 1292 756 1308 731 1292 l 636 1292 z m 572 1053 l 707 1053 l 531 1221 l 399 1221 l 222 1053 l 357 1053 l 456 1154 l 474 1154 z m 83 597 l 83 375 b 464 -19 83 118 232 -19 b 846 375 697 -19 846 118 l 846 597 b 464 992 846 854 697 992 b 83 597 232 992 83 854 z m 200 601 b 464 888 200 781 297 888 b 729 601 632 888 729 781 l 729 371 b 464 85 729 192 632 85 b 200 371 297 85 200 192 z "},"Ỗ":{"ha":929,"x_min":0,"x_max":0,"o":"m 233 1326 l 299 1282 l 335 1338 b 383 1372 347 1357 361 1372 b 443 1333 406 1372 419 1358 b 550 1278 479 1297 506 1278 b 651 1339 599 1278 628 1304 l 696 1408 l 631 1453 l 593 1397 b 546 1364 581 1378 568 1364 b 486 1401 524 1364 510 1376 b 379 1458 450 1439 422 1458 b 278 1396 331 1458 301 1431 z m 572 1053 l 707 1053 l 531 1221 l 399 1221 l 222 1053 l 357 1053 l 456 1154 l 474 1154 z m 83 597 l 83 375 b 464 -19 83 118 232 -19 b 846 375 697 -19 846 118 l 846 597 b 464 992 846 854 697 992 b 83 597 232 992 83 854 z m 200 601 b 464 888 200 781 297 888 b 729 601 632 888 729 781 l 729 371 b 464 85 729 192 632 85 b 200 371 297 85 200 192 z "},"Ȍ":{"ha":929,"x_min":0,"x_max":0,"o":"m 560 1225 l 442 1225 l 547 1057 l 639 1057 z m 346 1225 l 214 1225 l 344 1057 l 444 1057 z m 83 597 l 83 375 b 464 -19 83 118 232 -19 b 846 375 697 -19 846 118 l 846 597 b 464 992 846 854 697 992 b 83 597 232 992 83 854 z m 200 601 b 464 888 200 781 297 888 b 729 601 632 888 729 781 l 729 371 b 464 85 729 192 632 85 b 200 371 297 85 200 192 z "},"Ȫ":{"ha":929,"x_min":0,"x_max":0,"o":"m 679 1388 l 250 1388 l 250 1296 l 679 1296 z m 244 1138 b 328 1056 244 1089 279 1056 b 410 1138 375 1056 410 1089 b 328 1221 410 1188 375 1221 b 244 1138 279 1221 244 1188 z m 519 1138 b 601 1056 519 1089 554 1056 b 685 1138 650 1056 685 1089 b 601 1221 685 1188 650 1221 b 519 1138 554 1221 519 1188 z m 83 597 l 83 375 b 464 -19 83 118 232 -19 b 846 375 697 -19 846 118 l 846 597 b 464 992 846 854 697 992 b 83 597 232 992 83 854 z m 200 601 b 464 888 200 781 297 888 b 729 601 632 888 729 781 l 729 371 b 464 85 729 192 632 85 b 200 371 297 85 200 192 z "},"Ȱ":{"ha":929,"x_min":0,"x_max":0,"o":"m 679 1374 l 250 1374 l 250 1282 l 679 1282 z m 381 1139 b 464 1056 381 1090 417 1056 b 549 1139 513 1056 549 1090 b 464 1222 549 1188 513 1222 b 381 1139 417 1222 381 1188 z m 83 597 l 83 375 b 464 -19 83 118 232 -19 b 846 375 697 -19 846 118 l 846 597 b 464 992 846 854 697 992 b 83 597 232 992 83 854 z m 200 601 b 464 888 200 781 297 888 b 729 601 632 888 729 781 l 729 371 b 464 85 729 192 632 85 b 200 371 297 85 200 192 z "},"Ọ":{"ha":929,"x_min":0,"x_max":0,"o":"m 83 597 l 83 375 b 464 -19 83 118 232 -19 b 846 375 697 -19 846 118 l 846 597 b 464 992 846 854 697 992 b 83 597 232 992 83 854 z m 200 601 b 464 888 200 781 297 888 b 729 601 632 888 729 781 l 729 371 b 464 85 729 192 632 85 b 200 371 297 85 200 192 z m 381 -187 b 464 -272 381 -237 417 -272 b 549 -187 513 -272 549 -237 b 464 -104 549 -139 513 -104 b 381 -187 417 -104 381 -139 z "},"Ω":{"ha":861,"x_min":0,"x_max":0,"o":"m 90 606 l 90 385 b 221 117 90 240 144 160 l 221 99 l 74 99 l 74 0 l 372 0 l 372 115 b 201 394 239 154 201 249 l 201 604 b 431 890 201 783 282 890 b 661 604 579 890 661 783 l 661 394 b 489 115 661 249 622 154 l 489 0 l 788 0 l 788 99 l 642 99 l 642 117 b 771 385 717 160 771 240 l 771 606 b 431 992 771 840 656 992 b 90 606 206 992 90 840 z "},"Ỏ":{"ha":929,"x_min":0,"x_max":0,"o":"m 431 1039 l 513 1039 l 507 1090 b 628 1201 579 1090 628 1131 b 475 1318 628 1279 557 1318 b 329 1276 418 1318 367 1300 l 363 1207 b 474 1242 394 1226 429 1242 b 540 1192 511 1242 540 1225 b 472 1143 540 1160 515 1143 l 421 1143 z m 83 597 l 83 375 b 464 -19 83 118 232 -19 b 846 375 697 -19 846 118 l 846 597 b 464 992 846 854 697 992 b 83 597 232 992 83 854 z m 200 601 b 464 888 200 781 297 888 b 729 601 632 888 729 781 l 729 371 b 464 85 729 192 632 85 b 200 371 297 85 200 192 z "},"Ơ":{"ha":936,"x_min":0,"x_max":0,"o":"m 83 597 l 83 375 b 464 -19 83 118 232 -19 b 846 375 697 -19 846 118 l 846 597 b 779 847 846 700 822 783 b 894 1032 854 863 894 917 l 894 1089 l 792 1089 l 792 1036 b 711 918 792 957 765 926 b 464 992 647 967 564 992 b 83 597 232 992 83 854 z m 200 601 b 464 888 200 781 297 888 b 729 601 632 888 729 781 l 729 371 b 464 85 729 192 632 85 b 200 371 297 85 200 192 z "},"Ớ":{"ha":936,"x_min":0,"x_max":0,"o":"m 481 1221 l 386 1053 l 493 1053 l 615 1221 z m 83 597 l 83 375 b 464 -19 83 118 232 -19 b 846 375 697 -19 846 118 l 846 597 b 779 847 846 700 822 783 b 894 1032 854 863 894 917 l 894 1089 l 792 1089 l 792 1036 b 711 918 792 957 765 926 b 464 992 647 967 564 992 b 83 597 232 992 83 854 z m 200 601 b 464 888 200 781 297 888 b 729 601 632 888 729 781 l 729 371 b 464 85 729 192 632 85 b 200 371 297 85 200 192 z "},"Ợ":{"ha":936,"x_min":0,"x_max":0,"o":"m 83 597 l 83 375 b 464 -19 83 118 232 -19 b 846 375 697 -19 846 118 l 846 597 b 779 847 846 700 822 783 b 894 1032 854 863 894 917 l 894 1089 l 792 1089 l 792 1036 b 711 918 792 957 765 926 b 464 992 647 967 564 992 b 83 597 232 992 83 854 z m 200 601 b 464 888 200 781 297 888 b 729 601 632 888 729 781 l 729 371 b 464 85 729 192 632 85 b 200 371 297 85 200 192 z m 381 -187 b 464 -272 381 -237 417 -272 b 549 -187 513 -272 549 -237 b 464 -104 549 -139 513 -104 b 381 -187 417 -104 381 -139 z "},"Ờ":{"ha":936,"x_min":0,"x_max":0,"o":"m 449 1225 l 314 1225 l 436 1057 l 542 1057 z m 83 597 l 83 375 b 464 -19 83 118 232 -19 b 846 375 697 -19 846 118 l 846 597 b 779 847 846 700 822 783 b 894 1032 854 863 894 917 l 894 1089 l 792 1089 l 792 1036 b 711 918 792 957 765 926 b 464 992 647 967 564 992 b 83 597 232 992 83 854 z m 200 601 b 464 888 200 781 297 888 b 729 601 632 888 729 781 l 729 371 b 464 85 729 192 632 85 b 200 371 297 85 200 192 z "},"Ở":{"ha":936,"x_min":0,"x_max":0,"o":"m 431 1039 l 513 1039 l 507 1090 b 628 1201 579 1090 628 1131 b 475 1318 628 1279 557 1318 b 329 1276 418 1318 367 1300 l 363 1207 b 474 1242 394 1226 429 1242 b 540 1192 511 1242 540 1225 b 472 1143 540 1160 515 1143 l 421 1143 z m 83 597 l 83 375 b 464 -19 83 118 232 -19 b 846 375 697 -19 846 118 l 846 597 b 779 847 846 700 822 783 b 894 1032 854 863 894 917 l 894 1089 l 792 1089 l 792 1036 b 711 918 792 957 765 926 b 464 992 647 967 564 992 b 83 597 232 992 83 854 z m 200 601 b 464 888 200 781 297 888 b 729 601 632 888 729 781 l 729 371 b 464 85 729 192 632 85 b 200 371 297 85 200 192 z "},"Ỡ":{"ha":936,"x_min":0,"x_max":0,"o":"m 233 1097 l 299 1053 l 335 1108 b 383 1142 347 1126 361 1142 b 443 1104 406 1142 419 1129 b 550 1049 479 1067 506 1049 b 651 1110 599 1049 628 1075 l 696 1179 l 631 1224 l 593 1167 b 546 1133 581 1149 568 1133 b 486 1172 524 1133 510 1147 b 379 1228 450 1208 422 1228 b 278 1167 331 1228 301 1201 z m 83 597 l 83 375 b 464 -19 83 118 232 -19 b 846 375 697 -19 846 118 l 846 597 b 779 847 846 700 822 783 b 894 1032 854 863 894 917 l 894 1089 l 792 1089 l 792 1036 b 711 918 792 957 765 926 b 464 992 647 967 564 992 b 83 597 232 992 83 854 z m 200 601 b 464 888 200 781 297 888 b 729 601 632 888 729 781 l 729 371 b 464 85 729 192 632 85 b 200 371 297 85 200 192 z "},"Ȏ":{"ha":929,"x_min":0,"x_max":0,"o":"m 571 1064 l 668 1064 l 668 1072 b 464 1257 668 1190 586 1257 b 261 1072 342 1257 261 1190 l 261 1064 l 358 1064 l 358 1071 b 464 1176 358 1132 393 1176 b 571 1071 536 1176 571 1132 z m 83 597 l 83 375 b 464 -19 83 118 232 -19 b 846 375 697 -19 846 118 l 846 597 b 464 992 846 854 697 992 b 83 597 232 992 83 854 z m 200 601 b 464 888 200 781 297 888 b 729 601 632 888 729 781 l 729 371 b 464 85 729 192 632 85 b 200 371 297 85 200 192 z "},"Ṓ":{"ha":929,"x_min":0,"x_max":0,"o":"m 481 1415 l 386 1247 l 493 1247 l 615 1415 z m 679 1161 l 250 1161 l 250 1071 l 679 1071 z m 83 597 l 83 375 b 464 -19 83 118 232 -19 b 846 375 697 -19 846 118 l 846 597 b 464 992 846 854 697 992 b 83 597 232 992 83 854 z m 200 601 b 464 888 200 781 297 888 b 729 601 632 888 729 781 l 729 371 b 464 85 729 192 632 85 b 200 371 297 85 200 192 z "},"Ṑ":{"ha":929,"x_min":0,"x_max":0,"o":"m 449 1419 l 314 1419 l 436 1251 l 542 1251 z m 679 1161 l 250 1161 l 250 1071 l 679 1071 z m 83 597 l 83 375 b 464 -19 83 118 232 -19 b 846 375 697 -19 846 118 l 846 597 b 464 992 846 854 697 992 b 83 597 232 992 83 854 z m 200 601 b 464 888 200 781 297 888 b 729 601 632 888 729 781 l 729 371 b 464 85 729 192 632 85 b 200 371 297 85 200 192 z "},"Ǫ":{"ha":929,"x_min":0,"x_max":0,"o":"m 83 597 l 83 375 b 439 -19 83 126 221 -10 l 431 -54 b 418 -137 424 -83 418 -111 b 517 -228 418 -196 456 -228 l 597 -228 l 597 -143 l 538 -143 b 507 -115 518 -143 507 -133 b 513 -78 507 -103 510 -94 l 524 -17 b 846 375 722 6 846 140 l 846 597 b 464 992 846 854 697 992 b 83 597 232 992 83 854 z m 200 601 b 464 888 200 781 297 888 b 729 601 632 888 729 781 l 729 371 b 464 85 729 192 632 85 b 200 371 297 85 200 192 z "},"Ǿ":{"ha":929,"x_min":0,"x_max":0,"o":"m 481 1221 l 386 1053 l 493 1053 l 615 1221 z m 83 597 l 83 375 b 244 36 83 213 142 99 l 194 -89 l 275 -121 l 322 1 b 464 -19 365 -12 413 -19 b 846 375 697 -19 846 118 l 846 597 b 690 933 846 757 789 869 l 735 1044 l 656 1076 l 614 969 b 464 992 569 985 519 992 b 83 597 232 992 83 854 z m 200 601 b 464 888 200 781 297 888 b 574 868 506 888 542 881 l 288 143 b 200 371 231 192 200 269 z m 729 601 l 729 371 b 464 85 729 192 632 85 b 363 101 426 85 393 90 l 647 824 b 729 601 701 775 729 699 z "},"Ṍ":{"ha":929,"x_min":0,"x_max":0,"o":"m 481 1442 l 386 1272 l 493 1272 l 615 1442 z m 233 1097 l 299 1053 l 335 1108 b 383 1142 347 1126 361 1142 b 443 1104 406 1142 419 1129 b 550 1049 479 1067 506 1049 b 651 1110 599 1049 628 1075 l 696 1179 l 631 1224 l 593 1167 b 546 1133 581 1149 568 1133 b 486 1172 524 1133 510 1147 b 379 1228 450 1208 422 1228 b 278 1167 331 1228 301 1201 z m 83 597 l 83 375 b 464 -19 83 118 232 -19 b 846 375 697 -19 846 118 l 846 597 b 464 992 846 854 697 992 b 83 597 232 992 83 854 z m 200 601 b 464 888 200 781 297 888 b 729 601 632 888 729 781 l 729 371 b 464 85 729 192 632 85 b 200 371 297 85 200 192 z "},"Ṏ":{"ha":929,"x_min":0,"x_max":0,"o":"m 244 1357 b 328 1275 244 1308 279 1275 b 410 1357 375 1275 410 1308 b 328 1440 410 1407 375 1440 b 244 1357 279 1440 244 1407 z m 519 1357 b 601 1275 519 1308 554 1275 b 685 1357 650 1275 685 1308 b 601 1440 685 1407 650 1440 b 519 1357 554 1440 519 1407 z m 233 1097 l 299 1053 l 335 1108 b 383 1142 347 1126 361 1142 b 443 1104 406 1142 419 1129 b 550 1049 479 1067 506 1049 b 651 1110 599 1049 628 1075 l 696 1179 l 631 1224 l 593 1167 b 546 1133 581 1149 568 1133 b 486 1172 524 1133 510 1147 b 379 1228 450 1208 422 1228 b 278 1167 331 1228 301 1201 z m 83 597 l 83 375 b 464 -19 83 118 232 -19 b 846 375 697 -19 846 118 l 846 597 b 464 992 846 854 697 992 b 83 597 232 992 83 854 z m 200 601 b 464 888 200 781 297 888 b 729 601 632 888 729 781 l 729 371 b 464 85 729 192 632 85 b 200 371 297 85 200 192 z "},"Ȭ":{"ha":929,"x_min":0,"x_max":0,"o":"m 679 1382 l 250 1382 l 250 1290 l 679 1290 z m 233 1097 l 299 1053 l 335 1108 b 383 1142 347 1126 361 1142 b 443 1104 406 1142 419 1129 b 550 1049 479 1067 506 1049 b 651 1110 599 1049 628 1075 l 696 1179 l 631 1224 l 593 1167 b 546 1133 581 1149 568 1133 b 486 1172 524 1133 510 1147 b 379 1228 450 1208 422 1228 b 278 1167 331 1228 301 1201 z m 83 597 l 83 375 b 464 -19 83 118 232 -19 b 846 375 697 -19 846 118 l 846 597 b 464 992 846 854 697 992 b 83 597 232 992 83 854 z m 200 601 b 464 888 200 781 297 888 b 729 601 632 888 729 781 l 729 371 b 464 85 729 192 632 85 b 200 371 297 85 200 192 z "},"Ŗ":{"ha":876,"x_min":0,"x_max":0,"o":"m 111 972 l 111 0 l 228 0 l 228 399 l 564 399 b 656 313 626 399 656 368 l 656 0 l 771 0 l 771 326 b 656 453 771 410 722 450 l 656 472 b 810 699 739 499 810 571 l 810 714 b 504 972 810 875 683 972 z m 228 867 l 493 867 b 693 690 622 867 693 803 l 693 681 b 493 504 693 569 619 504 l 228 504 z m 360 -165 b 440 -243 360 -211 394 -243 l 456 -243 l 456 -268 b 408 -314 456 -301 442 -314 l 375 -314 l 375 -375 l 413 -375 b 521 -269 486 -375 521 -340 l 521 -172 b 440 -85 521 -118 486 -85 b 360 -165 393 -85 360 -118 z "},"Ȑ":{"ha":876,"x_min":0,"x_max":0,"o":"m 522 1225 l 404 1225 l 510 1057 l 601 1057 z m 308 1225 l 176 1225 l 307 1057 l 407 1057 z m 111 972 l 111 0 l 228 0 l 228 399 l 564 399 b 656 313 626 399 656 368 l 656 0 l 771 0 l 771 326 b 656 453 771 410 722 450 l 656 472 b 810 699 739 499 810 571 l 810 714 b 504 972 810 875 683 972 z m 228 867 l 493 867 b 693 690 622 867 693 803 l 693 681 b 493 504 693 569 619 504 l 228 504 z "},"Ṛ":{"ha":876,"x_min":0,"x_max":0,"o":"m 111 972 l 111 0 l 228 0 l 228 399 l 564 399 b 656 313 626 399 656 368 l 656 0 l 771 0 l 771 326 b 656 453 771 410 722 450 l 656 472 b 810 699 739 499 810 571 l 810 714 b 504 972 810 875 683 972 z m 228 867 l 493 867 b 693 690 622 867 693 803 l 693 681 b 493 504 693 569 619 504 l 228 504 z m 357 -187 b 440 -272 357 -237 393 -272 b 525 -187 489 -272 525 -237 b 440 -104 525 -139 489 -104 b 357 -187 393 -104 357 -139 z "},"Ȓ":{"ha":876,"x_min":0,"x_max":0,"o":"m 533 1064 l 631 1064 l 631 1072 b 426 1257 631 1190 549 1257 b 224 1072 304 1257 224 1190 l 224 1064 l 319 1064 l 319 1071 b 426 1176 319 1132 356 1176 b 533 1071 497 1176 533 1132 z m 111 972 l 111 0 l 228 0 l 228 399 l 564 399 b 656 313 626 399 656 368 l 656 0 l 771 0 l 771 326 b 656 453 771 410 722 450 l 656 472 b 810 699 739 499 810 571 l 810 714 b 504 972 810 875 683 972 z m 228 867 l 493 867 b 693 690 622 867 693 803 l 693 681 b 493 504 693 569 619 504 l 228 504 z "},"Ṟ":{"ha":876,"x_min":0,"x_max":0,"o":"m 111 972 l 111 0 l 228 0 l 228 399 l 564 399 b 656 313 626 399 656 368 l 656 0 l 771 0 l 771 326 b 656 453 771 410 722 450 l 656 472 b 810 699 739 499 810 571 l 810 714 b 504 972 810 875 683 972 z m 228 867 l 493 867 b 693 690 622 867 693 803 l 693 681 b 493 504 693 569 619 504 l 228 504 z m 654 -119 l 226 -119 l 226 -211 l 654 -211 z "},"Ṥ":{"ha":851,"x_min":0,"x_max":0,"o":"m 554 1225 l 461 1056 l 568 1056 l 690 1225 z m 225 1139 b 308 1056 225 1090 261 1056 b 393 1139 357 1056 393 1090 b 308 1222 393 1188 357 1222 b 225 1139 261 1222 225 1188 z m 418 992 b 90 726 222 992 90 890 b 379 454 90 563 207 496 l 451 436 b 668 263 582 406 668 369 b 435 82 668 158 586 82 b 182 321 286 82 182 158 l 182 350 l 67 350 l 67 321 b 435 -19 67 93 222 -19 b 783 265 646 -19 783 93 b 483 539 783 436 651 500 l 411 557 b 206 728 282 589 206 624 b 418 890 206 832 289 890 b 649 692 551 890 649 832 l 649 633 l 764 633 l 764 692 b 418 992 764 890 614 992 z "},"Ṧ":{"ha":851,"x_min":0,"x_max":0,"o":"m 340 1339 b 424 1256 340 1290 376 1256 b 508 1339 472 1256 508 1290 b 424 1422 508 1388 472 1422 b 340 1339 376 1422 340 1388 z m 315 1221 l 182 1221 l 358 1053 l 490 1053 l 667 1221 l 532 1221 l 433 1119 l 414 1119 z m 418 992 b 90 726 222 992 90 890 b 379 454 90 563 207 496 l 451 436 b 668 263 582 406 668 369 b 435 82 668 158 586 82 b 182 321 286 82 182 158 l 182 350 l 67 350 l 67 321 b 435 -19 67 93 222 -19 b 783 265 646 -19 783 93 b 483 539 783 436 651 500 l 411 557 b 206 728 282 589 206 624 b 418 890 206 832 289 890 b 649 692 551 890 649 832 l 649 633 l 764 633 l 764 692 b 418 992 764 890 614 992 z "},"Ə":{"ha":901,"x_min":0,"x_max":0,"o":"m 818 353 l 818 625 b 450 992 818 863 685 992 b 83 632 218 992 83 863 l 83 626 l 199 626 l 199 635 b 450 888 199 792 278 888 b 703 628 622 888 703 792 l 703 503 l 83 503 l 83 353 b 450 -19 83 113 218 -19 b 818 353 683 -19 818 113 z m 450 85 b 199 347 278 85 199 181 l 199 397 l 703 397 l 703 347 b 450 85 703 181 624 85 z "},"Ș":{"ha":851,"x_min":0,"x_max":0,"o":"m 418 992 b 90 726 222 992 90 890 b 379 454 90 563 207 496 l 451 436 b 668 263 582 406 668 369 b 435 82 668 158 586 82 b 182 321 286 82 182 158 l 182 350 l 67 350 l 67 321 b 435 -19 67 93 222 -19 b 783 265 646 -19 783 93 b 483 539 783 436 651 500 l 411 557 b 206 728 282 589 206 624 b 418 890 206 832 289 890 b 649 692 551 890 649 832 l 649 633 l 764 633 l 764 692 b 418 992 764 890 614 992 z m 363 -165 b 443 -243 363 -211 396 -243 l 457 -243 l 457 -268 b 410 -314 457 -301 443 -314 l 376 -314 l 376 -375 l 415 -375 b 522 -269 488 -375 522 -340 l 522 -172 b 443 -85 522 -118 489 -85 b 363 -165 396 -85 363 -118 z "},"Ṡ":{"ha":851,"x_min":0,"x_max":0,"o":"m 340 1139 b 424 1056 340 1090 376 1056 b 508 1139 472 1056 508 1090 b 424 1222 508 1188 472 1222 b 340 1139 376 1222 340 1188 z m 418 992 b 90 726 222 992 90 890 b 379 454 90 563 207 496 l 451 436 b 668 263 582 406 668 369 b 435 82 668 158 586 82 b 182 321 286 82 182 158 l 182 350 l 67 350 l 67 321 b 435 -19 67 93 222 -19 b 783 265 646 -19 783 93 b 483 539 783 436 651 500 l 411 557 b 206 728 282 589 206 624 b 418 890 206 832 289 890 b 649 692 551 890 649 832 l 649 633 l 764 633 l 764 692 b 418 992 764 890 614 992 z "},"Ṣ":{"ha":851,"x_min":0,"x_max":0,"o":"m 418 992 b 90 726 222 992 90 890 b 379 454 90 563 207 496 l 451 436 b 668 263 582 406 668 369 b 435 82 668 158 586 82 b 182 321 286 82 182 158 l 182 350 l 67 350 l 67 321 b 435 -19 67 93 222 -19 b 783 265 646 -19 783 93 b 483 539 783 436 651 500 l 411 557 b 206 728 282 589 206 624 b 418 890 206 832 289 890 b 649 692 551 890 649 832 l 649 633 l 764 633 l 764 692 b 418 992 764 890 614 992 z m 358 -187 b 443 -272 358 -237 394 -272 b 526 -187 490 -272 526 -237 b 443 -104 526 -139 490 -104 b 358 -187 394 -104 358 -139 z "},"Ṩ":{"ha":851,"x_min":0,"x_max":0,"o":"m 340 1139 b 424 1056 340 1090 376 1056 b 508 1139 472 1056 508 1090 b 424 1222 508 1188 472 1222 b 340 1139 376 1222 340 1188 z m 418 992 b 90 726 222 992 90 890 b 379 454 90 563 207 496 l 451 436 b 668 263 582 406 668 369 b 435 82 668 158 586 82 b 182 321 286 82 182 158 l 182 350 l 67 350 l 67 321 b 435 -19 67 93 222 -19 b 783 265 646 -19 783 93 b 483 539 783 436 651 500 l 411 557 b 206 728 282 589 206 624 b 418 890 206 832 289 890 b 649 692 551 890 649 832 l 649 633 l 764 633 l 764 692 b 418 992 764 890 614 992 z m 358 -187 b 443 -272 358 -237 394 -272 b 526 -187 490 -272 526 -237 b 443 -104 526 -139 490 -104 b 358 -187 394 -104 358 -139 z "},"Ţ":{"ha":817,"x_min":0,"x_max":0,"o":"m 38 972 l 38 867 l 350 867 l 350 0 l 369 0 l 358 -117 l 410 -117 b 479 -161 453 -117 479 -132 b 411 -208 479 -194 450 -208 b 301 -175 367 -208 332 -193 l 267 -244 b 414 -285 304 -268 357 -285 b 565 -171 494 -285 565 -249 b 444 -62 565 -101 517 -62 l 451 0 l 467 0 l 467 867 l 779 867 l 779 972 z "},"Ț":{"ha":817,"x_min":0,"x_max":0,"o":"m 38 972 l 38 867 l 350 867 l 350 0 l 467 0 l 467 867 l 779 867 l 779 972 z m 329 -165 b 410 -243 329 -211 363 -243 l 424 -243 l 424 -268 b 376 -314 424 -301 410 -314 l 343 -314 l 343 -375 l 382 -375 b 490 -269 454 -375 490 -340 l 490 -172 b 410 -85 490 -118 456 -85 b 329 -165 363 -85 329 -118 z "},"Ṭ":{"ha":817,"x_min":0,"x_max":0,"o":"m 38 972 l 38 867 l 350 867 l 350 0 l 467 0 l 467 867 l 779 867 l 779 972 z m 325 -187 b 410 -272 325 -237 361 -272 b 493 -187 457 -272 493 -237 b 410 -104 493 -139 457 -104 b 325 -187 361 -104 325 -139 z "},"Ṯ":{"ha":817,"x_min":0,"x_max":0,"o":"m 38 972 l 38 867 l 350 867 l 350 0 l 467 0 l 467 867 l 779 867 l 779 972 z m 624 -119 l 196 -119 l 196 -211 l 624 -211 z "},"Ǔ":{"ha":925,"x_min":0,"x_max":0,"o":"m 354 1221 l 221 1221 l 397 1053 l 529 1053 l 704 1221 l 571 1221 l 472 1119 l 453 1119 z m 104 972 l 104 325 b 463 -19 104 99 246 -19 b 822 325 681 -19 822 99 l 822 972 l 706 972 l 706 324 b 463 85 706 165 617 85 b 221 324 308 85 221 165 l 221 972 z "},"Ȕ":{"ha":925,"x_min":0,"x_max":0,"o":"m 558 1225 l 439 1225 l 546 1057 l 636 1057 z m 343 1225 l 213 1225 l 342 1057 l 442 1057 z m 104 972 l 104 325 b 463 -19 104 99 246 -19 b 822 325 681 -19 822 99 l 822 972 l 706 972 l 706 324 b 463 85 706 165 617 85 b 221 324 308 85 221 165 l 221 972 z "},"Ǘ":{"ha":925,"x_min":0,"x_max":0,"o":"m 478 1447 l 385 1279 l 492 1279 l 614 1447 z m 243 1138 b 325 1056 243 1089 278 1056 b 408 1138 374 1056 408 1089 b 325 1221 408 1188 374 1221 b 243 1138 278 1221 243 1188 z m 517 1138 b 600 1056 517 1089 551 1056 b 683 1138 649 1056 683 1089 b 600 1221 683 1188 649 1221 b 517 1138 551 1221 517 1188 z m 104 972 l 104 325 b 463 -19 104 99 246 -19 b 822 325 681 -19 822 99 l 822 972 l 706 972 l 706 324 b 463 85 706 165 617 85 b 221 324 308 85 221 165 l 221 972 z "},"Ǚ":{"ha":925,"x_min":0,"x_max":0,"o":"m 354 1447 l 221 1447 l 397 1279 l 529 1279 l 704 1447 l 571 1447 l 472 1346 l 453 1346 z m 243 1138 b 325 1056 243 1089 278 1056 b 408 1138 374 1056 408 1089 b 325 1221 408 1188 374 1221 b 243 1138 278 1221 243 1188 z m 517 1138 b 600 1056 517 1089 551 1056 b 683 1138 649 1056 683 1089 b 600 1221 683 1188 649 1221 b 517 1138 551 1221 517 1188 z m 104 972 l 104 325 b 463 -19 104 99 246 -19 b 822 325 681 -19 822 99 l 822 972 l 706 972 l 706 324 b 463 85 706 165 617 85 b 221 324 308 85 221 165 l 221 972 z "},"Ǜ":{"ha":925,"x_min":0,"x_max":0,"o":"m 447 1451 l 311 1451 l 435 1282 l 540 1282 z m 243 1138 b 325 1056 243 1089 278 1056 b 408 1138 374 1056 408 1089 b 325 1221 408 1188 374 1221 b 243 1138 278 1221 243 1188 z m 517 1138 b 600 1056 517 1089 551 1056 b 683 1138 649 1056 683 1089 b 600 1221 683 1188 649 1221 b 517 1138 551 1221 517 1188 z m 104 972 l 104 325 b 463 -19 104 99 246 -19 b 822 325 681 -19 822 99 l 822 972 l 706 972 l 706 324 b 463 85 706 165 617 85 b 221 324 308 85 221 165 l 221 972 z "},"Ǖ":{"ha":925,"x_min":0,"x_max":0,"o":"m 676 1388 l 249 1388 l 249 1296 l 676 1296 z m 243 1138 b 325 1056 243 1089 278 1056 b 408 1138 374 1056 408 1089 b 325 1221 408 1188 374 1221 b 243 1138 278 1221 243 1188 z m 517 1138 b 600 1056 517 1089 551 1056 b 683 1138 649 1056 683 1089 b 600 1221 683 1188 649 1221 b 517 1138 551 1221 517 1188 z m 104 972 l 104 325 b 463 -19 104 99 246 -19 b 822 325 681 -19 822 99 l 822 972 l 706 972 l 706 324 b 463 85 706 165 617 85 b 221 324 308 85 221 165 l 221 972 z "},"Ụ":{"ha":925,"x_min":0,"x_max":0,"o":"m 104 972 l 104 325 b 463 -19 104 99 246 -19 b 822 325 681 -19 822 99 l 822 972 l 706 972 l 706 324 b 463 85 706 165 617 85 b 221 324 308 85 221 165 l 221 972 z m 381 -187 b 465 -272 381 -237 417 -272 b 549 -187 513 -272 549 -237 b 465 -104 549 -139 513 -104 b 381 -187 417 -104 381 -139 z "},"Ủ":{"ha":925,"x_min":0,"x_max":0,"o":"m 429 1025 l 511 1025 l 506 1076 b 626 1188 578 1076 626 1117 b 474 1304 626 1265 556 1304 b 328 1263 417 1304 365 1286 l 361 1193 b 471 1228 392 1213 428 1228 b 539 1178 510 1228 539 1211 b 469 1129 539 1146 514 1129 l 419 1129 z m 104 972 l 104 325 b 463 -19 104 99 246 -19 b 822 325 681 -19 822 99 l 822 972 l 706 972 l 706 324 b 463 85 706 165 617 85 b 221 324 308 85 221 165 l 221 972 z "},"Ư":{"ha":988,"x_min":0,"x_max":0,"o":"m 104 972 l 104 325 b 463 -19 104 99 246 -19 b 822 325 681 -19 822 99 l 822 889 l 843 889 b 986 1029 929 889 986 926 l 986 1121 l 883 1121 l 883 1032 b 826 972 883 989 864 972 l 706 972 l 706 324 b 463 85 706 165 617 85 b 221 324 308 85 221 165 l 221 972 z "},"Ứ":{"ha":988,"x_min":0,"x_max":0,"o":"m 478 1221 l 385 1053 l 492 1053 l 614 1221 z m 104 972 l 104 325 b 463 -19 104 99 246 -19 b 822 325 681 -19 822 99 l 822 889 l 843 889 b 986 1029 929 889 986 926 l 986 1121 l 883 1121 l 883 1032 b 826 972 883 989 864 972 l 706 972 l 706 324 b 463 85 706 165 617 85 b 221 324 308 85 221 165 l 221 972 z "},"Ự":{"ha":988,"x_min":0,"x_max":0,"o":"m 104 972 l 104 325 b 463 -19 104 99 246 -19 b 822 325 681 -19 822 99 l 822 889 l 843 889 b 986 1029 929 889 986 926 l 986 1121 l 883 1121 l 883 1032 b 826 972 883 989 864 972 l 706 972 l 706 324 b 463 85 706 165 617 85 b 221 324 308 85 221 165 l 221 972 z m 381 -187 b 465 -272 381 -237 417 -272 b 549 -187 513 -272 549 -237 b 465 -104 549 -139 513 -104 b 381 -187 417 -104 381 -139 z "},"Ừ":{"ha":988,"x_min":0,"x_max":0,"o":"m 447 1225 l 311 1225 l 435 1057 l 540 1057 z m 104 972 l 104 325 b 463 -19 104 99 246 -19 b 822 325 681 -19 822 99 l 822 889 l 843 889 b 986 1029 929 889 986 926 l 986 1121 l 883 1121 l 883 1032 b 826 972 883 989 864 972 l 706 972 l 706 324 b 463 85 706 165 617 85 b 221 324 308 85 221 165 l 221 972 z "},"Ử":{"ha":988,"x_min":0,"x_max":0,"o":"m 429 1025 l 511 1025 l 506 1076 b 626 1188 578 1076 626 1117 b 474 1304 626 1265 556 1304 b 328 1263 417 1304 365 1286 l 361 1193 b 471 1228 392 1213 428 1228 b 539 1178 510 1228 539 1211 b 469 1129 539 1146 514 1129 l 419 1129 z m 104 972 l 104 325 b 463 -19 104 99 246 -19 b 822 325 681 -19 822 99 l 822 889 l 843 889 b 986 1029 929 889 986 926 l 986 1121 l 883 1121 l 883 1032 b 826 972 883 989 864 972 l 706 972 l 706 324 b 463 85 706 165 617 85 b 221 324 308 85 221 165 l 221 972 z "},"Ữ":{"ha":988,"x_min":0,"x_max":0,"o":"m 232 1097 l 297 1053 l 333 1108 b 382 1142 346 1126 360 1142 b 442 1104 403 1142 418 1129 b 547 1049 478 1067 504 1049 b 649 1110 596 1049 626 1075 l 693 1179 l 628 1224 l 592 1167 b 544 1133 579 1149 567 1133 b 485 1172 522 1133 508 1147 b 378 1228 449 1208 421 1228 b 276 1167 329 1228 299 1201 z m 104 972 l 104 325 b 463 -19 104 99 246 -19 b 822 325 681 -19 822 99 l 822 889 l 843 889 b 986 1029 929 889 986 926 l 986 1121 l 883 1121 l 883 1032 b 826 972 883 989 864 972 l 706 972 l 706 324 b 463 85 706 165 617 85 b 221 324 308 85 221 165 l 221 972 z "},"Ȗ":{"ha":925,"x_min":0,"x_max":0,"o":"m 568 1064 l 665 1064 l 665 1072 b 463 1257 665 1190 585 1257 b 258 1072 339 1257 258 1190 l 258 1064 l 356 1064 l 356 1071 b 463 1176 356 1132 390 1176 b 568 1071 533 1176 568 1132 z m 104 972 l 104 325 b 463 -19 104 99 246 -19 b 822 325 681 -19 822 99 l 822 972 l 706 972 l 706 324 b 463 85 706 165 617 85 b 221 324 308 85 221 165 l 221 972 z "},"Ṻ":{"ha":925,"x_min":0,"x_max":0,"o":"m 243 1332 b 325 1249 243 1282 278 1249 b 408 1332 374 1249 408 1282 b 325 1414 408 1381 374 1414 b 243 1332 278 1414 243 1381 z m 517 1332 b 600 1249 517 1282 551 1249 b 683 1332 649 1249 683 1282 b 600 1414 683 1381 649 1414 b 517 1332 551 1414 517 1381 z m 676 1161 l 249 1161 l 249 1071 l 676 1071 z m 104 972 l 104 325 b 463 -19 104 99 246 -19 b 822 325 681 -19 822 99 l 822 972 l 706 972 l 706 324 b 463 85 706 165 617 85 b 221 324 308 85 221 165 l 221 972 z "},"Ṹ":{"ha":925,"x_min":0,"x_max":0,"o":"m 478 1442 l 385 1272 l 492 1272 l 614 1442 z m 232 1097 l 297 1053 l 333 1108 b 382 1142 346 1126 360 1142 b 442 1104 403 1142 418 1129 b 547 1049 478 1067 504 1049 b 649 1110 596 1049 626 1075 l 693 1179 l 628 1224 l 592 1167 b 544 1133 579 1149 567 1133 b 485 1172 522 1133 508 1147 b 378 1228 449 1208 421 1228 b 276 1167 329 1228 299 1201 z m 104 972 l 104 325 b 463 -19 104 99 246 -19 b 822 325 681 -19 822 99 l 822 972 l 706 972 l 706 324 b 463 85 706 165 617 85 b 221 324 308 85 221 165 l 221 972 z "},"Ẃ":{"ha":1215,"x_min":0,"x_max":0,"o":"m 624 1221 l 531 1053 l 636 1053 l 760 1221 z m 51 972 l 210 0 l 419 0 l 599 903 l 618 903 l 797 0 l 1006 0 l 1164 972 l 1047 972 l 910 75 l 890 75 l 713 972 l 504 972 l 325 75 l 306 75 l 168 972 z "},"Ẅ":{"ha":1215,"x_min":0,"x_max":0,"o":"m 388 1138 b 471 1056 388 1089 422 1056 b 553 1138 518 1056 553 1089 b 471 1221 553 1188 518 1221 b 388 1138 422 1221 388 1188 z m 663 1138 b 746 1056 663 1089 697 1056 b 828 1138 793 1056 828 1089 b 746 1221 828 1188 793 1221 b 663 1138 697 1221 663 1188 z m 51 972 l 210 0 l 419 0 l 599 903 l 618 903 l 797 0 l 1006 0 l 1164 972 l 1047 972 l 910 75 l 890 75 l 713 972 l 504 972 l 325 75 l 306 75 l 168 972 z "},"Ẁ":{"ha":1215,"x_min":0,"x_max":0,"o":"m 592 1225 l 457 1225 l 579 1057 l 686 1057 z m 51 972 l 210 0 l 419 0 l 599 903 l 618 903 l 797 0 l 1006 0 l 1164 972 l 1047 972 l 910 75 l 890 75 l 713 972 l 504 972 l 325 75 l 306 75 l 168 972 z "},"Ẏ":{"ha":847,"x_min":0,"x_max":0,"o":"m 339 1139 b 424 1056 339 1090 375 1056 b 507 1139 472 1056 507 1090 b 424 1222 507 1188 472 1222 b 339 1139 375 1222 339 1188 z m 19 972 l 365 371 l 365 0 l 482 0 l 482 371 l 828 972 l 694 972 l 433 507 l 414 507 l 153 972 z "},"Ỵ":{"ha":847,"x_min":0,"x_max":0,"o":"m 19 972 l 365 371 l 365 0 l 482 0 l 482 371 l 828 972 l 694 972 l 433 507 l 414 507 l 153 972 z m 339 -187 b 424 -272 339 -237 375 -272 b 507 -187 472 -272 507 -237 b 424 -104 507 -139 472 -104 b 339 -187 375 -104 339 -139 z "},"Ỳ":{"ha":847,"x_min":0,"x_max":0,"o":"m 408 1225 l 272 1225 l 394 1057 l 501 1057 z m 19 972 l 365 371 l 365 0 l 482 0 l 482 371 l 828 972 l 694 972 l 433 507 l 414 507 l 153 972 z "},"Ỷ":{"ha":847,"x_min":0,"x_max":0,"o":"m 390 1025 l 471 1025 l 467 1076 b 586 1188 538 1076 586 1117 b 435 1304 586 1265 517 1304 b 289 1263 378 1304 326 1286 l 322 1193 b 432 1228 353 1213 388 1228 b 500 1178 471 1228 500 1211 b 431 1129 500 1146 474 1129 l 381 1129 z m 19 972 l 365 371 l 365 0 l 482 0 l 482 371 l 828 972 l 694 972 l 433 507 l 414 507 l 153 972 z "},"Ȳ":{"ha":847,"x_min":0,"x_max":0,"o":"m 638 1161 l 210 1161 l 210 1071 l 638 1071 z m 19 972 l 365 371 l 365 0 l 482 0 l 482 371 l 828 972 l 694 972 l 433 507 l 414 507 l 153 972 z "},"Ỹ":{"ha":847,"x_min":0,"x_max":0,"o":"m 193 1097 l 258 1053 l 293 1108 b 342 1142 306 1126 319 1142 b 403 1104 364 1142 378 1129 b 508 1049 438 1067 465 1049 b 610 1110 557 1049 588 1075 l 654 1179 l 589 1224 l 553 1167 b 504 1133 540 1149 526 1133 b 444 1172 483 1133 469 1147 b 339 1228 408 1208 382 1228 b 238 1167 290 1228 260 1201 z m 19 972 l 365 371 l 365 0 l 482 0 l 482 371 l 828 972 l 694 972 l 433 507 l 414 507 l 153 972 z "},"Ẓ":{"ha":801,"x_min":0,"x_max":0,"o":"m 86 972 l 86 868 l 611 868 l 611 851 l 69 154 l 69 0 l 738 0 l 738 104 l 185 104 l 185 121 l 726 818 l 726 972 z m 313 -187 b 396 -272 313 -237 349 -272 b 481 -187 444 -272 481 -237 b 396 -104 481 -139 444 -104 b 313 -187 349 -104 313 -139 z "},"ắ":{"ha":799,"x_min":0,"x_max":0,"o":"m 426 1194 l 319 1004 l 425 1004 l 558 1194 z m 497 960 l 497 953 b 392 847 497 892 463 847 b 285 953 319 847 285 892 l 285 960 l 188 960 l 188 951 b 392 767 188 835 268 767 b 594 951 514 767 594 835 l 594 960 z m 93 492 l 196 458 b 386 604 217 546 276 604 b 554 449 499 604 554 544 l 554 399 l 325 399 b 69 193 179 399 69 331 b 324 -19 69 57 179 -19 b 550 101 464 -19 521 47 l 565 103 b 668 0 565 40 606 0 l 764 0 l 764 93 l 701 93 b 663 135 676 93 663 107 l 663 442 b 388 699 663 604 560 699 b 93 492 217 699 125 606 z m 179 196 b 329 310 179 272 242 310 l 554 310 l 554 294 b 336 75 554 156 467 75 b 179 196 242 75 179 119 z "},"ặ":{"ha":799,"x_min":0,"x_max":0,"o":"m 497 960 l 497 953 b 392 847 497 892 463 847 b 285 953 319 847 285 892 l 285 960 l 188 960 l 188 951 b 392 767 188 835 268 767 b 594 951 514 767 594 835 l 594 960 z m 93 492 l 196 458 b 386 604 217 546 276 604 b 554 449 499 604 554 544 l 554 399 l 325 399 b 69 193 179 399 69 331 b 324 -19 69 57 179 -19 b 550 101 464 -19 521 47 l 565 103 b 668 0 565 40 606 0 l 764 0 l 764 93 l 701 93 b 663 135 676 93 663 107 l 663 442 b 388 699 663 604 560 699 b 93 492 217 699 125 606 z m 179 196 b 329 310 179 272 242 310 l 554 310 l 554 294 b 336 75 554 156 467 75 b 179 196 242 75 179 119 z m 310 -187 b 394 -272 310 -237 346 -272 b 478 -187 442 -272 478 -237 b 394 -104 478 -139 442 -104 b 310 -187 346 -104 310 -139 z "},"ằ":{"ha":799,"x_min":0,"x_max":0,"o":"m 356 1194 l 222 1194 l 356 1004 l 461 1004 z m 497 960 l 497 953 b 392 847 497 892 463 847 b 285 953 319 847 285 892 l 285 960 l 188 960 l 188 951 b 392 767 188 835 268 767 b 594 951 514 767 594 835 l 594 960 z m 93 492 l 196 458 b 386 604 217 546 276 604 b 554 449 499 604 554 544 l 554 399 l 325 399 b 69 193 179 399 69 331 b 324 -19 69 57 179 -19 b 550 101 464 -19 521 47 l 565 103 b 668 0 565 40 606 0 l 764 0 l 764 93 l 701 93 b 663 135 676 93 663 107 l 663 442 b 388 699 663 604 560 699 b 93 492 217 699 125 606 z m 179 196 b 329 310 179 272 242 310 l 554 310 l 554 294 b 336 75 554 156 467 75 b 179 196 242 75 179 119 z "},"ẳ":{"ha":799,"x_min":0,"x_max":0,"o":"m 351 986 l 433 986 l 428 1038 b 549 1149 500 1038 549 1078 b 397 1265 549 1226 478 1265 b 250 1224 340 1265 288 1247 l 285 1154 b 394 1188 315 1174 350 1188 b 463 1139 433 1188 463 1172 b 393 1090 463 1107 436 1090 l 342 1090 z m 497 960 l 497 953 b 392 847 497 892 463 847 b 285 953 319 847 285 892 l 285 960 l 188 960 l 188 951 b 392 767 188 835 268 767 b 594 951 514 767 594 835 l 594 960 z m 93 492 l 196 458 b 386 604 217 546 276 604 b 554 449 499 604 554 544 l 554 399 l 325 399 b 69 193 179 399 69 331 b 324 -19 69 57 179 -19 b 550 101 464 -19 521 47 l 565 103 b 668 0 565 40 606 0 l 764 0 l 764 93 l 701 93 b 663 135 676 93 663 107 l 663 442 b 388 699 663 604 560 699 b 93 492 217 699 125 606 z m 179 196 b 329 310 179 272 242 310 l 554 310 l 554 294 b 336 75 554 156 467 75 b 179 196 242 75 179 119 z "},"ẵ":{"ha":799,"x_min":0,"x_max":0,"o":"m 168 1054 l 238 1014 l 272 1074 b 315 1104 283 1092 294 1104 b 375 1060 336 1104 351 1085 b 472 1008 407 1024 433 1008 b 569 1069 515 1008 547 1032 l 611 1147 l 543 1188 l 508 1128 b 465 1096 497 1110 486 1096 b 406 1142 444 1096 428 1117 b 308 1192 374 1178 347 1192 b 211 1132 265 1192 232 1169 z m 497 960 l 497 953 b 392 847 497 892 463 847 b 285 953 319 847 285 892 l 285 960 l 188 960 l 188 951 b 392 767 188 835 268 767 b 594 951 514 767 594 835 l 594 960 z m 93 492 l 196 458 b 386 604 217 546 276 604 b 554 449 499 604 554 544 l 554 399 l 325 399 b 69 193 179 399 69 331 b 324 -19 69 57 179 -19 b 550 101 464 -19 521 47 l 565 103 b 668 0 565 40 606 0 l 764 0 l 764 93 l 701 93 b 663 135 676 93 663 107 l 663 442 b 388 699 663 604 560 699 b 93 492 217 699 125 606 z m 179 196 b 329 310 179 272 242 310 l 554 310 l 554 294 b 336 75 554 156 467 75 b 179 196 242 75 179 119 z "},"ǎ":{"ha":799,"x_min":0,"x_max":0,"o":"m 506 960 l 401 844 l 382 844 l 276 960 l 153 960 l 324 771 l 458 771 l 631 960 z m 93 492 l 196 458 b 386 604 217 546 276 604 b 554 449 499 604 554 544 l 554 399 l 325 399 b 69 193 179 399 69 331 b 324 -19 69 57 179 -19 b 550 101 464 -19 521 47 l 565 103 b 668 0 565 40 606 0 l 764 0 l 764 93 l 701 93 b 663 135 676 93 663 107 l 663 442 b 388 699 663 604 560 699 b 93 492 217 699 125 606 z m 179 196 b 329 310 179 272 242 310 l 554 310 l 554 294 b 336 75 554 156 467 75 b 179 196 242 75 179 119 z "},"ấ":{"ha":799,"x_min":0,"x_max":0,"o":"m 660 1124 l 579 924 l 676 924 l 778 1124 z m 276 771 l 382 888 l 401 888 l 506 771 l 631 771 l 458 960 l 324 960 l 153 771 z m 93 492 l 196 458 b 386 604 217 546 276 604 b 554 449 499 604 554 544 l 554 399 l 325 399 b 69 193 179 399 69 331 b 324 -19 69 57 179 -19 b 550 101 464 -19 521 47 l 565 103 b 668 0 565 40 606 0 l 764 0 l 764 93 l 701 93 b 663 135 676 93 663 107 l 663 442 b 388 699 663 604 560 699 b 93 492 217 699 125 606 z m 179 196 b 329 310 179 272 242 310 l 554 310 l 554 294 b 336 75 554 156 467 75 b 179 196 242 75 179 119 z "},"ậ":{"ha":799,"x_min":0,"x_max":0,"o":"m 276 771 l 382 888 l 401 888 l 506 771 l 631 771 l 458 960 l 324 960 l 153 771 z m 93 492 l 196 458 b 386 604 217 546 276 604 b 554 449 499 604 554 544 l 554 399 l 325 399 b 69 193 179 399 69 331 b 324 -19 69 57 179 -19 b 550 101 464 -19 521 47 l 565 103 b 668 0 565 40 606 0 l 764 0 l 764 93 l 701 93 b 663 135 676 93 663 107 l 663 442 b 388 699 663 604 560 699 b 93 492 217 699 125 606 z m 179 196 b 329 310 179 272 242 310 l 554 310 l 554 294 b 336 75 554 156 467 75 b 179 196 242 75 179 119 z m 310 -187 b 394 -272 310 -237 346 -272 b 478 -187 442 -272 478 -237 b 394 -104 478 -139 442 -104 b 310 -187 346 -104 310 -139 z "},"ầ":{"ha":799,"x_min":0,"x_max":0,"o":"m 621 1124 l 501 1124 l 613 924 l 708 924 z m 276 771 l 382 888 l 401 888 l 506 771 l 631 771 l 458 960 l 324 960 l 153 771 z m 93 492 l 196 458 b 386 604 217 546 276 604 b 554 449 499 604 554 544 l 554 399 l 325 399 b 69 193 179 399 69 331 b 324 -19 69 57 179 -19 b 550 101 464 -19 521 47 l 565 103 b 668 0 565 40 606 0 l 764 0 l 764 93 l 701 93 b 663 135 676 93 663 107 l 663 442 b 388 699 663 604 560 699 b 93 492 217 699 125 606 z m 179 196 b 329 310 179 272 242 310 l 554 310 l 554 294 b 336 75 554 156 467 75 b 179 196 242 75 179 119 z "},"ẩ":{"ha":799,"x_min":0,"x_max":0,"o":"m 579 915 l 661 915 l 656 967 b 776 1078 728 967 776 1007 b 624 1194 776 1156 706 1194 b 478 1153 567 1194 515 1176 l 511 1083 b 621 1118 542 1103 578 1118 b 689 1068 660 1118 689 1101 b 619 1019 689 1036 664 1019 l 569 1019 z m 276 771 l 382 888 l 401 888 l 506 771 l 631 771 l 458 960 l 324 960 l 153 771 z m 93 492 l 196 458 b 386 604 217 546 276 604 b 554 449 499 604 554 544 l 554 399 l 325 399 b 69 193 179 399 69 331 b 324 -19 69 57 179 -19 b 550 101 464 -19 521 47 l 565 103 b 668 0 565 40 606 0 l 764 0 l 764 93 l 701 93 b 663 135 676 93 663 107 l 663 442 b 388 699 663 604 560 699 b 93 492 217 699 125 606 z m 179 196 b 329 310 179 272 242 310 l 554 310 l 554 294 b 336 75 554 156 467 75 b 179 196 242 75 179 119 z "},"ẫ":{"ha":799,"x_min":0,"x_max":0,"o":"m 168 1063 l 238 1022 l 272 1082 b 315 1113 283 1100 294 1113 b 375 1068 336 1113 351 1093 b 472 1017 407 1032 433 1017 b 569 1078 515 1017 547 1040 l 611 1156 l 543 1196 l 508 1136 b 465 1104 497 1118 486 1104 b 406 1150 444 1104 428 1125 b 308 1200 374 1186 347 1200 b 211 1140 265 1200 232 1178 z m 276 771 l 382 888 l 401 888 l 506 771 l 631 771 l 458 960 l 324 960 l 153 771 z m 93 492 l 196 458 b 386 604 217 546 276 604 b 554 449 499 604 554 544 l 554 399 l 325 399 b 69 193 179 399 69 331 b 324 -19 69 57 179 -19 b 550 101 464 -19 521 47 l 565 103 b 668 0 565 40 606 0 l 764 0 l 764 93 l 701 93 b 663 135 676 93 663 107 l 663 442 b 388 699 663 604 560 699 b 93 492 217 699 125 606 z m 179 196 b 329 310 179 272 242 310 l 554 310 l 554 294 b 336 75 554 156 467 75 b 179 196 242 75 179 119 z "},"ȁ":{"ha":799,"x_min":0,"x_max":0,"o":"m 483 960 l 368 960 l 468 771 l 564 771 z m 267 960 l 144 960 l 263 771 l 361 771 z m 93 492 l 196 458 b 386 604 217 546 276 604 b 554 449 499 604 554 544 l 554 399 l 325 399 b 69 193 179 399 69 331 b 324 -19 69 57 179 -19 b 550 101 464 -19 521 47 l 565 103 b 668 0 565 40 606 0 l 764 0 l 764 93 l 701 93 b 663 135 676 93 663 107 l 663 442 b 388 699 663 604 560 699 b 93 492 217 699 125 606 z m 179 196 b 329 310 179 272 242 310 l 554 310 l 554 294 b 336 75 554 156 467 75 b 179 196 242 75 179 119 z "},"ạ":{"ha":799,"x_min":0,"x_max":0,"o":"m 93 492 l 196 458 b 386 604 217 546 276 604 b 554 449 499 604 554 544 l 554 399 l 325 399 b 69 193 179 399 69 331 b 324 -19 69 57 179 -19 b 550 101 464 -19 521 47 l 565 103 b 668 0 565 40 606 0 l 764 0 l 764 93 l 701 93 b 663 135 676 93 663 107 l 663 442 b 388 699 663 604 560 699 b 93 492 217 699 125 606 z m 179 196 b 329 310 179 272 242 310 l 554 310 l 554 294 b 336 75 554 156 467 75 b 179 196 242 75 179 119 z m 310 -187 b 394 -272 310 -237 346 -272 b 478 -187 442 -272 478 -237 b 394 -104 478 -139 442 -104 b 310 -187 346 -104 310 -139 z "},"ǽ":{"ha":1297,"x_min":0,"x_max":0,"o":"m 683 960 l 578 771 l 682 771 l 817 960 z m 89 493 l 189 461 b 390 604 214 546 278 604 b 567 449 501 604 567 543 l 567 394 l 333 394 b 69 192 181 394 69 328 b 340 -19 69 54 183 -19 b 613 139 503 -19 579 61 l 629 139 b 908 -19 685 43 783 -19 b 1193 156 1068 -19 1143 64 l 1106 208 b 906 78 1072 140 1018 78 b 676 307 772 78 685 167 l 1208 307 l 1208 367 b 896 699 1208 565 1086 699 b 644 569 790 699 701 649 l 629 569 b 390 699 592 647 511 699 b 89 493 218 699 122 606 z m 678 394 b 894 600 689 522 772 600 b 1099 394 1014 600 1094 528 z m 178 194 b 338 307 178 269 244 307 l 567 307 l 567 293 b 349 72 567 154 478 72 b 178 194 247 72 178 118 z "},"ả":{"ha":799,"x_min":0,"x_max":0,"o":"m 357 758 l 438 758 l 433 810 b 553 921 504 810 553 850 b 401 1038 553 1000 482 1038 b 256 997 344 1038 292 1021 l 289 926 b 399 961 319 946 354 961 b 467 911 438 961 467 946 b 397 863 467 879 440 863 l 346 863 z m 93 492 l 196 458 b 386 604 217 546 276 604 b 554 449 499 604 554 544 l 554 399 l 325 399 b 69 193 179 399 69 331 b 324 -19 69 57 179 -19 b 550 101 464 -19 521 47 l 565 103 b 668 0 565 40 606 0 l 764 0 l 764 93 l 701 93 b 663 135 676 93 663 107 l 663 442 b 388 699 663 604 560 699 b 93 492 217 699 125 606 z m 179 196 b 329 310 179 272 242 310 l 554 310 l 554 294 b 336 75 554 156 467 75 b 179 196 242 75 179 119 z "},"ȃ":{"ha":799,"x_min":0,"x_max":0,"o":"m 497 771 l 594 771 l 594 779 b 392 964 594 896 514 964 b 188 779 268 964 188 896 l 188 771 l 285 771 l 285 778 b 392 883 285 839 319 883 b 497 778 463 883 497 839 z m 93 492 l 196 458 b 386 604 217 546 276 604 b 554 449 499 604 554 544 l 554 399 l 325 399 b 69 193 179 399 69 331 b 324 -19 69 57 179 -19 b 550 101 464 -19 521 47 l 565 103 b 668 0 565 40 606 0 l 764 0 l 764 93 l 701 93 b 663 135 676 93 663 107 l 663 442 b 388 699 663 604 560 699 b 93 492 217 699 125 606 z m 179 196 b 329 310 179 272 242 310 l 554 310 l 554 294 b 336 75 554 156 467 75 b 179 196 242 75 179 119 z "},"ʼ":{"ha":349,"x_min":0,"x_max":0,"o":"m 81 901 b 175 813 81 850 121 813 l 194 813 l 194 768 b 144 718 194 733 179 718 l 104 718 l 104 650 l 149 650 b 268 769 229 650 268 689 l 268 897 b 175 992 268 953 228 992 b 81 901 121 992 81 954 z "},"ǻ":{"ha":799,"x_min":0,"x_max":0,"o":"m 254 886 b 392 754 254 808 315 754 b 529 886 468 754 529 807 b 486 986 529 928 513 963 l 586 1132 l 474 1132 l 410 1018 b 392 1019 404 1019 397 1019 b 254 886 314 1019 254 965 z m 332 886 b 392 946 332 921 356 946 b 451 886 428 946 451 921 b 392 828 451 851 428 828 b 332 886 356 828 332 851 z m 93 492 l 196 458 b 386 604 217 546 276 604 b 554 449 499 604 554 544 l 554 399 l 325 399 b 69 193 179 399 69 331 b 324 -19 69 57 179 -19 b 550 101 464 -19 521 47 l 565 103 b 668 0 565 40 606 0 l 764 0 l 764 93 l 701 93 b 663 135 676 93 663 107 l 663 442 b 388 699 663 604 560 699 b 93 492 217 699 125 606 z m 179 196 b 329 310 179 272 242 310 l 554 310 l 554 294 b 336 75 554 156 467 75 b 179 196 242 75 179 119 z "},"฿":{"ha":879,"x_min":0,"x_max":0,"o":"m 111 972 l 111 0 l 393 0 l 393 -161 l 501 -161 l 501 0 l 514 0 b 804 254 679 0 804 94 l 804 268 b 643 482 804 404 713 465 l 643 501 b 803 717 711 522 803 581 l 803 728 b 515 972 803 875 683 972 l 501 972 l 501 1133 l 393 1133 l 393 972 z m 228 867 l 393 867 l 393 543 l 228 543 z m 506 867 b 689 711 618 867 689 806 l 689 697 b 506 543 689 604 618 543 l 501 543 l 501 867 z m 228 438 l 393 438 l 393 106 l 228 106 z m 501 438 b 690 278 624 438 690 376 l 690 265 b 501 106 690 167 624 106 l 501 438 z "},"₿":{"ha":879,"x_min":0,"x_max":0,"o":"m 111 972 l 111 0 l 314 0 l 314 -161 l 407 -161 l 407 0 l 483 0 l 483 -161 l 576 -161 l 576 4 b 804 254 710 25 804 115 l 804 268 b 643 482 804 404 713 465 l 643 501 b 803 717 711 522 803 581 l 803 728 b 576 968 803 857 711 947 l 576 1133 l 483 1133 l 483 972 l 407 972 l 407 1133 l 314 1133 l 314 972 z m 228 867 l 506 867 b 689 711 618 867 689 806 l 689 697 b 506 543 689 604 618 543 l 228 543 z m 228 438 l 501 438 b 690 278 624 438 690 376 l 690 265 b 501 106 690 167 624 106 l 228 106 z "},"̮":{"ha":0,"x_min":0,"x_max":0,"o":"m 385 -99 l 385 -106 b 279 -211 385 -167 350 -211 b 172 -106 207 -211 172 -167 l 172 -99 l 75 -99 l 75 -107 b 279 -292 75 -224 156 -292 b 482 -107 401 -292 482 -224 l 482 -99 z "},"̆":{"ha":0,"x_min":0,"x_max":0,"o":"m 385 960 l 385 953 b 279 847 385 892 350 847 b 172 953 207 847 172 892 l 172 960 l 75 960 l 75 951 b 279 767 75 835 156 767 b 482 951 401 767 482 835 l 482 960 z "},"̑":{"ha":0,"x_min":0,"x_max":0,"o":"m 385 771 l 482 771 l 482 779 b 279 964 482 896 401 964 b 75 779 156 964 75 896 l 75 771 l 172 771 l 172 778 b 279 883 172 839 207 883 b 385 778 350 883 385 839 z "},"ƀ":{"ha":894,"x_min":0,"x_max":0,"o":"m 8 854 l 8 782 l 115 782 l 115 0 l 222 0 l 222 113 l 242 113 b 492 -19 278 44 350 -19 b 813 331 668 -19 813 113 l 813 349 b 492 699 813 565 669 699 b 244 572 350 699 278 635 l 225 572 l 225 782 l 461 782 l 461 854 l 225 854 l 225 972 l 115 972 l 115 854 z m 463 601 b 700 346 603 601 700 507 l 700 333 b 463 78 700 172 601 78 b 224 333 322 78 224 172 l 224 346 b 463 601 224 507 322 601 z "},"∙":{"ha":861,"x_min":0,"x_max":0,"o":"m 264 486 b 431 322 264 392 338 322 b 597 486 524 322 597 390 b 431 650 597 581 525 650 b 264 486 336 650 264 581 z "},"̌":{"ha":0,"x_min":0,"x_max":0,"o":"m 429 960 l 324 844 l 304 844 l 200 960 l 75 960 l 247 771 l 382 771 l 553 960 z "},"ḉ":{"ha":831,"x_min":0,"x_max":0,"o":"m 461 960 l 354 771 l 460 771 l 593 960 z m 82 347 l 82 332 b 386 -18 82 129 210 0 l 378 -117 l 428 -117 b 497 -161 471 -117 497 -132 b 429 -208 497 -194 468 -208 b 319 -175 385 -208 350 -193 l 286 -244 b 432 -285 324 -268 375 -285 b 583 -171 514 -285 583 -249 b 464 -62 583 -101 535 -62 l 468 -18 b 758 239 638 -3 732 113 l 650 263 b 429 79 633 158 564 79 b 192 333 294 79 192 175 l 192 346 b 429 600 192 504 294 600 b 646 417 564 600 632 517 l 753 439 b 428 699 731 576 624 699 b 82 347 229 699 82 565 z "},"₵":{"ha":892,"x_min":0,"x_max":0,"o":"m 83 375 b 408 -17 83 139 208 4 l 408 -161 l 515 -161 l 515 -17 b 819 339 711 3 819 135 l 819 357 l 704 357 l 704 335 b 515 89 704 206 643 110 l 515 883 b 704 638 643 863 704 767 l 704 626 l 819 626 l 819 633 b 515 989 819 838 711 969 l 515 1133 l 408 1133 l 408 989 b 83 597 208 968 83 833 z m 200 372 l 200 600 b 408 883 200 760 276 861 l 408 89 b 200 372 276 111 200 213 z "},"̧":{"ha":0,"x_min":0,"x_max":0,"o":"m 181 29 l 167 -117 l 218 -117 b 286 -161 261 -117 286 -132 b 219 -208 286 -194 257 -208 b 108 -175 175 -208 140 -193 l 75 -244 b 221 -285 113 -268 164 -285 b 374 -171 303 -285 374 -249 b 253 -62 374 -101 325 -62 l 261 29 z "},"̂":{"ha":0,"x_min":0,"x_max":0,"o":"m 200 771 l 304 888 l 324 888 l 429 771 l 553 771 l 382 960 l 247 960 l 75 771 z "},"₡":{"ha":900,"x_min":0,"x_max":0,"o":"m 83 378 b 250 33 83 213 144 96 l 217 -161 l 307 -161 l 333 -1 b 410 -17 357 -8 383 -14 l 385 -161 l 475 -161 l 499 -18 b 828 343 710 -7 828 129 l 828 360 l 713 360 l 713 339 b 517 89 713 206 650 108 l 639 829 b 713 633 689 785 713 715 l 713 624 l 828 624 l 828 629 b 660 950 828 781 768 893 l 689 1133 l 600 1133 l 574 981 b 499 990 550 986 525 989 l 521 1133 l 432 1133 l 407 989 b 83 594 208 967 83 831 z m 351 106 l 481 886 b 557 875 508 886 533 882 l 426 88 b 351 106 399 90 374 97 z m 200 375 l 200 597 b 389 878 200 749 268 850 l 271 161 b 200 375 225 211 200 283 z "},"̦":{"ha":0,"x_min":0,"x_max":0,"o":"m 75 -165 b 156 -243 75 -211 110 -243 l 169 -243 l 169 -268 b 122 -314 169 -301 157 -314 l 90 -314 l 90 -375 l 128 -375 b 236 -269 201 -375 236 -340 l 236 -172 b 156 -85 236 -118 201 -85 b 75 -165 108 -85 75 -118 z "},"̒":{"ha":0,"x_min":0,"x_max":0,"o":"m 236 854 b 156 932 236 900 201 932 l 142 932 l 142 958 b 189 1004 142 992 154 1004 l 221 1004 l 221 1065 l 183 1065 b 75 958 111 1065 75 1031 l 75 861 b 156 774 75 807 110 774 b 236 854 203 774 236 807 z "},"ʻ":{"ha":349,"x_min":0,"x_max":0,"o":"m 268 740 b 175 828 268 792 228 828 l 156 828 l 156 872 b 206 922 156 907 171 922 l 244 922 l 244 992 l 200 992 b 81 872 119 992 81 953 l 81 743 b 175 650 81 689 121 650 b 268 740 228 650 268 688 z "},"⁒":{"ha":963,"x_min":0,"x_max":0,"o":"m 104 872 b 225 754 104 804 158 754 b 346 872 293 754 346 804 b 225 992 346 942 294 992 b 104 872 157 992 104 942 z m 58 40 l 132 -19 l 904 932 l 831 992 z m 642 100 b 763 -19 642 31 694 -19 b 883 100 829 -19 883 31 b 763 218 883 168 832 218 b 642 100 694 218 642 168 z "},"̏":{"ha":0,"x_min":0,"x_max":0,"o":"m 415 960 l 300 960 l 399 771 l 496 771 z m 197 960 l 75 960 l 194 771 l 293 771 z "},"ḍ":{"ha":894,"x_min":0,"x_max":0,"o":"m 779 972 l 669 972 l 669 572 l 650 572 b 403 699 615 635 544 699 b 82 349 225 699 82 565 l 82 331 b 403 -19 82 113 226 -19 b 653 113 544 -19 615 44 l 672 113 l 672 0 l 779 0 z m 432 601 b 669 346 572 601 669 507 l 669 333 b 432 78 669 172 571 78 b 193 333 292 78 193 172 l 193 346 b 432 601 193 507 292 601 z m 358 -187 b 442 -272 358 -237 394 -272 b 526 -187 490 -272 526 -237 b 442 -104 526 -139 490 -104 b 358 -187 394 -104 358 -139 z "},"̤":{"ha":0,"x_min":0,"x_max":0,"o":"m 75 -187 b 158 -269 75 -236 110 -269 b 242 -187 207 -269 242 -236 b 158 -104 242 -137 207 -104 b 75 -187 110 -104 75 -137 z m 336 -187 b 418 -269 336 -236 371 -269 b 501 -187 467 -269 501 -236 b 418 -104 501 -137 467 -104 b 336 -187 371 -104 336 -137 z "},"̈":{"ha":0,"x_min":0,"x_max":0,"o":"m 75 867 b 158 783 75 817 110 783 b 242 867 207 783 242 817 b 158 949 242 915 207 949 b 75 867 110 949 75 915 z m 336 867 b 418 783 336 817 371 783 b 501 867 467 783 501 817 b 418 949 501 915 467 949 b 336 867 371 949 336 915 z "},"∕":{"ha":536,"x_min":0,"x_max":0,"o":"m 431 1111 l 0 -201 l 110 -201 l 542 1111 z "},"ḏ":{"ha":894,"x_min":0,"x_max":0,"o":"m 779 972 l 669 972 l 669 572 l 650 572 b 403 699 615 635 544 699 b 82 349 225 699 82 565 l 82 331 b 403 -19 82 113 226 -19 b 653 113 544 -19 615 44 l 672 113 l 672 0 l 779 0 z m 432 601 b 669 346 572 601 669 507 l 669 333 b 432 78 669 172 571 78 b 193 333 292 78 193 172 l 193 346 b 432 601 193 507 292 601 z m 656 -119 l 228 -119 l 228 -211 l 656 -211 z "},"₫":{"ha":993,"x_min":0,"x_max":0,"o":"m 886 854 l 779 854 l 779 972 l 669 972 l 669 854 l 432 854 l 432 782 l 669 782 l 669 572 l 650 572 b 403 699 615 635 544 699 b 82 349 225 699 82 565 l 82 331 b 403 -19 82 113 226 -19 b 653 113 544 -19 615 44 l 672 113 l 672 0 l 779 0 l 779 782 l 886 782 z m 432 601 b 669 346 572 601 669 507 l 669 333 b 432 78 669 172 571 78 b 193 333 292 78 193 172 l 193 346 b 432 601 193 507 292 601 z m 779 -89 l 132 -89 l 132 -161 l 779 -161 z "},"̇":{"ha":0,"x_min":0,"x_max":0,"o":"m 75 868 b 160 785 75 819 111 785 b 243 868 207 785 243 819 b 160 953 243 918 207 953 b 75 868 111 953 75 918 z "},"̣":{"ha":0,"x_min":0,"x_max":0,"o":"m 75 -187 b 160 -272 75 -237 111 -272 b 243 -187 207 -272 243 -237 b 160 -104 243 -139 207 -104 b 75 -187 111 -104 75 -139 z "},"ʺ":{"ha":507,"x_min":0,"x_max":0,"o":"m 90 972 l 75 618 l 160 618 l 206 972 z m 325 972 l 294 618 l 382 618 l 440 972 z "},"↓":{"ha":861,"x_min":0,"x_max":0,"o":"m 61 321 l 393 -10 l 468 -10 l 800 321 l 729 392 l 525 188 l 493 140 l 476 146 l 483 203 l 483 972 l 378 972 l 378 203 l 385 146 l 368 140 l 336 188 l 132 392 z "},"ǆ":{"ha":1618,"x_min":0,"x_max":0,"o":"m 779 972 l 669 972 l 669 572 l 650 572 b 403 699 615 635 544 699 b 82 349 225 699 82 565 l 82 331 b 403 -19 82 113 226 -19 b 653 113 544 -19 615 44 l 672 113 l 672 0 l 779 0 z m 1363 960 l 1258 844 l 1239 844 l 1133 960 l 1010 960 l 1181 771 l 1315 771 l 1488 960 z m 992 679 l 992 583 l 1410 583 l 1410 568 l 978 142 l 978 0 l 1538 0 l 1538 96 l 1093 96 l 1093 111 l 1526 538 l 1526 679 z m 432 601 b 669 346 572 601 669 507 l 669 333 b 432 78 669 172 571 78 b 193 333 292 78 193 172 l 193 346 b 432 601 193 507 292 601 z "},"ḝ":{"ha":822,"x_min":0,"x_max":0,"o":"m 525 960 l 525 953 b 419 847 525 892 490 847 b 313 953 347 847 313 892 l 313 960 l 215 960 l 215 951 b 419 767 215 835 296 767 b 622 951 542 767 622 835 l 622 960 z m 82 347 l 82 331 b 386 -18 82 136 201 0 l 376 -117 l 428 -117 b 496 -161 471 -117 496 -132 b 428 -208 496 -194 467 -208 b 318 -175 385 -208 350 -193 l 285 -244 b 431 -285 322 -268 374 -285 b 583 -171 513 -285 583 -249 b 463 -62 583 -101 535 -62 l 467 -18 b 731 168 621 -4 692 88 l 636 214 b 429 78 603 139 546 78 b 193 311 294 78 197 165 l 746 311 l 746 361 b 419 699 746 568 613 699 b 82 347 221 699 82 557 z m 194 401 b 419 601 211 528 296 601 b 635 401 542 601 626 528 z "},"ế":{"ha":822,"x_min":0,"x_max":0,"o":"m 688 1124 l 607 924 l 704 924 l 806 1124 z m 304 771 l 410 888 l 429 888 l 535 771 l 658 771 l 488 960 l 351 960 l 181 771 z m 82 347 l 82 331 b 426 -19 82 121 219 -19 b 731 168 608 -19 689 82 l 636 214 b 429 78 603 139 546 78 b 193 311 294 78 197 165 l 746 311 l 746 361 b 419 699 746 568 613 699 b 82 347 221 699 82 557 z m 194 401 b 419 601 211 528 296 601 b 635 401 542 601 626 528 z "},"ệ":{"ha":822,"x_min":0,"x_max":0,"o":"m 304 771 l 410 888 l 429 888 l 535 771 l 658 771 l 488 960 l 351 960 l 181 771 z m 82 347 l 82 331 b 426 -19 82 121 219 -19 b 731 168 608 -19 689 82 l 636 214 b 429 78 603 139 546 78 b 193 311 294 78 197 165 l 746 311 l 746 361 b 419 699 746 568 613 699 b 82 347 221 699 82 557 z m 194 401 b 419 601 211 528 296 601 b 635 401 542 601 626 528 z m 343 -187 b 426 -272 343 -237 379 -272 b 511 -187 475 -272 511 -237 b 426 -104 511 -139 475 -104 b 343 -187 379 -104 343 -139 z "},"ề":{"ha":822,"x_min":0,"x_max":0,"o":"m 649 1124 l 531 1124 l 640 924 l 736 924 z m 304 771 l 410 888 l 429 888 l 535 771 l 658 771 l 488 960 l 351 960 l 181 771 z m 82 347 l 82 331 b 426 -19 82 121 219 -19 b 731 168 608 -19 689 82 l 636 214 b 429 78 603 139 546 78 b 193 311 294 78 197 165 l 746 311 l 746 361 b 419 699 746 568 613 699 b 82 347 221 699 82 557 z m 194 401 b 419 601 211 528 296 601 b 635 401 542 601 626 528 z "},"ể":{"ha":822,"x_min":0,"x_max":0,"o":"m 607 915 l 689 915 l 683 967 b 804 1078 756 967 804 1007 b 651 1194 804 1156 733 1194 b 506 1153 594 1194 543 1176 l 539 1083 b 649 1118 571 1103 606 1118 b 717 1068 688 1118 717 1101 b 649 1019 717 1036 692 1019 l 597 1019 z m 304 771 l 410 888 l 429 888 l 535 771 l 658 771 l 488 960 l 351 960 l 181 771 z m 82 347 l 82 331 b 426 -19 82 121 219 -19 b 731 168 608 -19 689 82 l 636 214 b 429 78 603 139 546 78 b 193 311 294 78 197 165 l 746 311 l 746 361 b 419 699 746 568 613 699 b 82 347 221 699 82 557 z m 194 401 b 419 601 211 528 296 601 b 635 401 542 601 626 528 z "},"ễ":{"ha":822,"x_min":0,"x_max":0,"o":"m 196 1063 l 265 1022 l 300 1082 b 343 1113 311 1100 322 1113 b 403 1068 364 1113 381 1093 b 500 1017 435 1032 461 1017 b 597 1078 543 1017 576 1040 l 639 1156 l 571 1196 l 536 1136 b 493 1104 525 1118 514 1104 b 433 1150 472 1104 456 1125 b 336 1200 401 1186 375 1200 b 239 1140 293 1200 260 1178 z m 304 771 l 410 888 l 429 888 l 535 771 l 658 771 l 488 960 l 351 960 l 181 771 z m 82 347 l 82 331 b 426 -19 82 121 219 -19 b 731 168 608 -19 689 82 l 636 214 b 429 78 603 139 546 78 b 193 311 294 78 197 165 l 746 311 l 746 361 b 419 699 746 568 613 699 b 82 347 221 699 82 557 z m 194 401 b 419 601 211 528 296 601 b 635 401 542 601 626 528 z "},"ȅ":{"ha":822,"x_min":0,"x_max":0,"o":"m 511 960 l 396 960 l 496 771 l 592 771 z m 294 960 l 172 960 l 290 771 l 389 771 z m 82 347 l 82 331 b 426 -19 82 121 219 -19 b 731 168 608 -19 689 82 l 636 214 b 429 78 603 139 546 78 b 193 311 294 78 197 165 l 746 311 l 746 361 b 419 699 746 568 613 699 b 82 347 221 699 82 557 z m 194 401 b 419 601 211 528 296 601 b 635 401 542 601 626 528 z "},"ẹ":{"ha":822,"x_min":0,"x_max":0,"o":"m 82 347 l 82 331 b 426 -19 82 121 219 -19 b 731 168 608 -19 689 82 l 636 214 b 429 78 603 139 546 78 b 193 311 294 78 197 165 l 746 311 l 746 361 b 419 699 746 568 613 699 b 82 347 221 699 82 557 z m 194 401 b 419 601 211 528 296 601 b 635 401 542 601 626 528 z m 343 -187 b 426 -272 343 -237 379 -272 b 511 -187 475 -272 511 -237 b 426 -104 511 -139 475 -104 b 343 -187 379 -104 343 -139 z "},"ẻ":{"ha":822,"x_min":0,"x_max":0,"o":"m 385 758 l 465 758 l 461 810 b 581 921 532 810 581 850 b 429 1038 581 1000 511 1038 b 283 997 372 1038 321 1021 l 317 926 b 426 961 347 946 382 961 b 494 911 465 961 494 946 b 425 863 494 879 468 863 l 375 863 z m 82 347 l 82 331 b 426 -19 82 121 219 -19 b 731 168 608 -19 689 82 l 636 214 b 429 78 603 139 546 78 b 193 311 294 78 197 165 l 746 311 l 746 361 b 419 699 746 568 613 699 b 82 347 221 699 82 557 z m 194 401 b 419 601 211 528 296 601 b 635 401 542 601 626 528 z "},"₈":{"ha":540,"x_min":0,"x_max":0,"o":"m 60 90 b 146 -19 60 21 110 -10 l 146 -36 b 51 -151 106 -46 51 -75 b 271 -296 51 -236 131 -296 b 490 -151 410 -296 490 -236 b 394 -36 490 -75 435 -46 l 394 -19 b 482 90 431 -10 482 21 b 271 226 482 174 397 226 b 60 90 143 226 60 174 z m 146 81 b 271 153 146 126 193 153 b 394 81 347 153 394 126 b 271 7 394 35 347 7 b 146 81 193 7 146 35 z m 138 -144 b 271 -67 138 -93 188 -67 b 403 -144 353 -67 403 -93 b 271 -222 403 -196 353 -222 b 138 -144 188 -222 138 -196 z "},"⁸":{"ha":540,"x_min":0,"x_max":0,"o":"m 60 854 b 146 744 60 785 110 754 l 146 728 b 51 613 106 718 51 689 b 271 468 51 528 131 468 b 490 613 410 468 490 528 b 394 728 490 689 435 718 l 394 744 b 482 854 431 754 482 785 b 271 990 482 938 397 990 b 60 854 143 990 60 938 z m 146 844 b 271 917 146 890 193 917 b 394 844 347 917 394 890 b 271 771 394 799 347 771 b 146 844 193 771 146 799 z m 138 619 b 271 697 138 671 188 697 b 403 619 353 697 403 671 b 271 542 403 568 353 542 b 138 619 188 542 138 568 z "},"ȇ":{"ha":822,"x_min":0,"x_max":0,"o":"m 525 771 l 622 771 l 622 779 b 419 964 622 896 542 964 b 215 779 296 964 215 896 l 215 771 l 313 771 l 313 778 b 419 883 313 839 347 883 b 525 778 490 883 525 839 z m 82 347 l 82 331 b 426 -19 82 121 219 -19 b 731 168 608 -19 689 82 l 636 214 b 429 78 603 139 546 78 b 193 311 294 78 197 165 l 746 311 l 746 361 b 419 699 746 568 613 699 b 82 347 221 699 82 557 z m 194 401 b 419 601 211 528 296 601 b 635 401 542 601 626 528 z "},"ḗ":{"ha":822,"x_min":0,"x_max":0,"o":"m 453 1172 l 346 982 l 451 982 l 585 1172 z m 633 889 l 206 889 l 206 799 l 633 799 z m 82 347 l 82 331 b 426 -19 82 121 219 -19 b 731 168 608 -19 689 82 l 636 214 b 429 78 603 139 546 78 b 193 311 294 78 197 165 l 746 311 l 746 361 b 419 699 746 568 613 699 b 82 347 221 699 82 557 z m 194 401 b 419 601 211 528 296 601 b 635 401 542 601 626 528 z "},"ḕ":{"ha":822,"x_min":0,"x_max":0,"o":"m 386 1183 l 253 1183 l 386 993 l 492 993 z m 633 889 l 206 889 l 206 799 l 633 799 z m 82 347 l 82 331 b 426 -19 82 121 219 -19 b 731 168 608 -19 689 82 l 636 214 b 429 78 603 139 546 78 b 193 311 294 78 197 165 l 746 311 l 746 361 b 419 699 746 568 613 699 b 82 347 221 699 82 557 z m 194 401 b 419 601 211 528 296 601 b 635 401 542 601 626 528 z "},"∅":{"ha":889,"x_min":0,"x_max":0,"o":"m 82 346 l 82 333 b 253 28 82 196 147 88 l 199 -97 l 292 -137 l 349 -8 b 444 -19 379 -15 411 -19 b 807 333 654 -19 807 125 l 807 346 b 636 650 807 483 742 592 l 690 775 l 597 817 l 540 688 b 444 699 510 694 478 699 b 82 346 235 699 82 554 z m 188 347 b 444 600 188 493 297 600 b 500 594 464 600 482 597 l 293 122 b 188 332 228 165 186 239 z m 703 347 l 703 332 b 444 79 703 183 592 79 b 389 85 425 79 407 82 l 594 557 b 703 347 661 513 703 439 z "},"℮":{"ha":843,"x_min":0,"x_max":0,"o":"m 422 699 b 82 339 214 699 82 557 b 422 -19 82 122 214 -19 b 715 139 554 -19 654 35 l 642 139 b 422 32 589 61 514 32 b 233 104 349 32 283 54 b 213 161 219 118 213 136 l 213 289 b 240 317 213 307 222 317 l 761 317 l 761 347 b 422 699 761 557 629 699 z m 422 647 b 611 575 496 647 564 624 b 632 518 625 561 632 543 l 632 396 b 604 368 632 378 622 368 l 240 368 b 213 396 222 368 213 378 l 213 518 b 233 575 213 543 219 561 b 422 647 281 624 349 647 z "},"ẽ":{"ha":822,"x_min":0,"x_max":0,"o":"m 196 799 l 265 758 l 300 818 b 343 849 311 836 322 849 b 403 804 364 849 381 829 b 500 753 435 768 461 753 b 597 813 543 753 576 775 l 639 892 l 571 932 l 536 872 b 493 840 525 854 514 840 b 433 886 472 840 456 860 b 336 936 401 922 375 936 b 239 876 293 936 260 914 z m 82 347 l 82 331 b 426 -19 82 121 219 -19 b 731 168 608 -19 689 82 l 636 214 b 429 78 603 139 546 78 b 193 311 294 78 197 165 l 746 311 l 746 361 b 419 699 746 568 613 699 b 82 347 221 699 82 557 z m 194 401 b 419 601 211 528 296 601 b 635 401 542 601 626 528 z "},"€":{"ha":949,"x_min":0,"x_max":0,"o":"m 49 451 l 49 360 l 150 360 b 524 -19 156 111 301 -19 b 876 335 754 -19 876 117 l 876 357 l 760 357 l 760 335 b 524 86 760 188 689 86 b 265 360 361 86 269 188 l 518 360 l 518 451 l 265 451 l 265 532 l 518 532 l 518 625 l 267 625 b 524 886 274 788 367 886 b 760 638 685 886 760 785 l 760 624 l 876 624 l 876 638 b 524 992 876 856 751 992 b 150 625 303 992 161 861 l 49 625 l 49 532 l 149 532 l 149 451 z "}}}
